<svg width="16" height="16" viewBox="0 0 16 16" xmlns="http://www.w3.org/2000/svg"><title>DOWNLOAD_2_</title><g id="Symbols" fill="none" fill-rule="evenodd"><g id="See-details-Btn" transform="translate(-10 -8)" fill="#898E9F"><path d="M25.077 24H10.923C10.4 24 10 23.567 10 23v-5c0-.567.4-1 .923-1s.923.433.923 1v4h12.308v-4c0-.567.4-1 .923-1s.923.433.923 1v5c0 .567-.4 1-.923 1zm-3.63-9l-2.77 3.333a.855.855 0 0 1-1.354 0L14.553 15a.973.973 0 0 1-.245-.667c0-.566.4-1 .923-1 .277 0 .523.134.677.334l1.169 1.4V9c0-.567.4-1 .923-1s.923.433.923 1v6.067l1.17-1.4c.153-.2.4-.334.676-.334.523 0 .923.434.923 1 0 .267-.092.5-.246.667z" id="DOWNLOAD_2_"/></g></g></svg>