<?xml version="1.0" encoding="utf-8"?>
<!-- Generator: Adobe Illustrator 15.0.0, SVG Export Plug-In . SVG Version: 6.00 Build 0)  -->
<!DOCTYPE svg PUBLIC "-//W3C//DTD SVG 1.1//EN" "http://www.w3.org/Graphics/SVG/1.1/DTD/svg11.dtd">
<svg version="1.1" id="Layer_1" xmlns="http://www.w3.org/2000/svg" xmlns:xlink="http://www.w3.org/1999/xlink" x="0px" y="0px"
	 width="457.088px" height="457.088px" viewBox="77.456 167.456 457.088 457.088"
	 enable-background="new 77.456 167.456 457.088 457.088" xml:space="preserve">
<g>
	<g id="Icon-User" transform="translate(278.000000, 278.000000)">
		<path id="Fill-57" fill="#134563" d="M28,346.544c-126.225,0-228.544-102.319-228.544-228.544
			C-200.544-8.226-98.225-110.544,28-110.544c126.225,0,228.544,102.318,228.544,228.544
			C256.544,244.225,154.225,346.544,28,346.544L28,346.544z M28-85.681c-111.881,0-203.681,91.8-203.681,203.681
			S-83.881,321.682,28,321.682S231.682,229.881,231.682,118S139.881-85.681,28-85.681L28-85.681z"/>
		<path id="Fill-58" fill="#134563" d="M-105.875,283.432l-22.95-10.52c6.694-16.256,27.731-24.862,51.638-35.381
			c22.95-10.52,51.638-22.95,51.638-38.25v-21.037c-8.606-6.694-21.994-21.994-23.906-43.988
			c-6.694-6.692-17.213-19.125-17.213-34.425c0-9.562,3.825-17.212,6.694-21.994c-1.913-10.52-5.738-31.556-5.738-47.812
			c0-52.594,36.338-87.019,93.713-87.019c16.256,0,36.338,4.781,46.855,16.257c25.818,4.781,46.855,35.381,46.855,70.762
			c0,22.951-3.825,42.076-6.693,50.682c2.868,4.781,5.737,11.475,5.737,19.125c0,18.169-8.604,29.645-17.213,35.382
			c-1.912,21.993-14.344,36.337-21.993,43.031v21.037c0,13.387,23.906,21.994,45.899,30.6c25.818,9.562,52.594,19.125,61.2,41.119
			l-23.906,8.605c-3.825-11.476-26.774-19.125-45.899-26.774c-29.645-10.519-63.112-22.95-63.112-53.55v-34.426l5.737-3.824
			c0.956,0,17.212-11.477,17.212-33.47v-8.605l7.65-2.869c0.956-0.956,8.606-4.781,8.606-16.256c0-3.825-2.869-7.65-3.825-8.605
			l-4.781-5.737l1.912-6.694c0,0,6.694-21.038,6.694-49.725c0-23.906-13.389-45.899-27.731-45.899h-7.65l-3.824-6.694
			c-2.868-4.781-14.345-9.562-29.645-9.562c-43.031,0-68.85,22.95-68.85,62.155c0,18.17,6.693,47.812,6.693,47.812l1.912,6.694
			l-4.781,4.78c0,0-3.824,4.781-3.824,9.562c0,6.694,8.605,15.301,12.431,19.125l4.781,3.825v6.694
			c0,21.036,18.168,32.512,18.168,32.512l5.737,3.825v34.425c0,31.557-35.381,47.812-66.938,61.2
			C-81.969,267.175-102.05,276.737-105.875,283.432"/>
	</g>
</g>
</svg>
