<svg width="16" height="18" viewBox="0 0 16 18" xmlns="http://www.w3.org/2000/svg"><title>Shape</title><g id="Page-1" fill="none" fill-rule="evenodd"><g id="SCHEDULE-HOVER" transform="translate(-389 -451)" fill="#FFF"><g id="SCHEDULE" transform="translate(219 185)"><g id="Days-/-Weeks/-Months-Filters-hover" transform="translate(26 259)"><g id="From-to"><g id="Date-1"><path d="M159.635 9.953a1.158 1.158 0 0 0-.865-.382h-1.231v-.964c0-.442-.15-.82-.452-1.135A1.45 1.45 0 0 0 156 7h-.615a1.45 1.45 0 0 0-1.087.472 1.582 1.582 0 0 0-.452 1.135v.964h-3.692v-.964c0-.442-.15-.82-.452-1.135A1.45 1.45 0 0 0 148.615 7H148a1.45 1.45 0 0 0-1.086.472 1.583 1.583 0 0 0-.452 1.135v.964h-1.231c-.334 0-.622.128-.866.382a1.263 1.263 0 0 0-.365.904v12.857c0 .348.122.65.365.904.244.255.532.382.866.382h13.538c.334 0 .622-.127.866-.382.243-.254.365-.556.365-.904V10.857c0-.348-.122-.65-.365-.904zm-4.558-1.346a.32.32 0 0 1 .086-.23.293.293 0 0 1 .222-.091H156c.09 0 .163.03.221.09a.32.32 0 0 1 .087.231V11.5a.32.32 0 0 1-.087.231.293.293 0 0 1-.221.09h-.615a.293.293 0 0 1-.222-.09.32.32 0 0 1-.086-.23V8.606zm-7.385 0a.32.32 0 0 1 .087-.23.293.293 0 0 1 .221-.091h.615c.09 0 .164.03.222.09.057.06.086.138.086.231V11.5a.32.32 0 0 1-.086.231.293.293 0 0 1-.221.09H148a.292.292 0 0 1-.221-.09.32.32 0 0 1-.087-.23V8.606zm11.077 15.107h-13.538V13.43h13.538v10.285z" id="Shape"/></g></g></g></g></g></g></svg>