<?xml version="1.0" encoding="utf-8"?>
<!-- Generator: Adobe Illustrator 15.0.0, SVG Export Plug-In . SVG Version: 6.00 Build 0)  -->
<!DOCTYPE svg PUBLIC "-//W3C//DTD SVG 1.1//EN" "http://www.w3.org/Graphics/SVG/1.1/DTD/svg11.dtd">
<svg version="1.1" id="Layer_1" xmlns="http://www.w3.org/2000/svg" xmlns:xlink="http://www.w3.org/1999/xlink" x="0px" y="0px"
	 width="512px" height="512px" viewBox="0 0 512 512" enable-background="new 0 0 512 512" xml:space="preserve">
<g>
	<polygon fill="#898E9F" points="385.526,278.67 385.526,248.445 415.75,248.445 415.75,223.555 385.526,223.555 385.526,193.33 
		360.635,193.33 360.635,223.555 330.411,223.555 330.411,248.445 360.635,248.445 360.635,278.67 	"/>
	<path fill="#898E9F" d="M362.822,359.785c0,0,0-15.645-1.304-23.823c-1.066-6.46-10.017-14.994-48.063-28.98
		c-37.453-13.748-35.143-7.052-35.143-32.357c0-16.416,8.356-6.874,13.689-38.047c2.074-12.268,3.733-4.089,8.237-23.765
		c2.371-10.312-1.6-11.082-1.125-16.001s0.947-9.305,1.837-19.38c1.067-12.445-10.489-45.217-51.914-45.217
		c-41.426,0-52.982,32.771-51.856,45.276c0.889,10.016,1.363,14.461,1.837,19.38s-3.496,5.688-1.125,16.001
		c4.504,19.616,6.163,11.438,8.237,23.765c5.333,31.172,13.69,21.631,13.69,38.047c0,25.364,2.311,18.668-35.144,32.358
		c-38.046,13.926-47.055,22.519-48.062,28.979c-1.363,8.12-1.363,23.765-1.363,23.765h113.786H362.822z"/>
</g>
<g>
	<path fill="#898E9F" d="M256,24c31.33,0,61.711,6.131,90.297,18.222c27.624,11.684,52.438,28.416,73.752,49.729
		c21.314,21.314,38.046,46.128,49.729,73.751C481.869,194.289,488,224.669,488,256c0,31.33-6.131,61.711-18.222,90.297
		c-11.684,27.624-28.415,52.438-49.729,73.752s-46.128,38.046-73.752,49.729C317.711,481.869,287.33,488,256,488
		c-31.331,0-61.711-6.131-90.297-18.222c-27.624-11.684-52.437-28.415-73.751-49.729c-21.314-21.314-38.045-46.128-49.729-73.752
		C30.131,317.711,24,287.33,24,256c0-31.331,6.131-61.711,18.222-90.297c11.684-27.624,28.416-52.437,49.729-73.751
		c21.314-21.314,46.128-38.045,73.751-49.729C194.289,30.131,224.67,24,256,24 M256,0C114.615,0,0,114.615,0,256
		s114.615,256,256,256s256-114.615,256-256S397.385,0,256,0L256,0z"/>
</g>
</svg>
