<svg width="32" height="45" viewBox="0 0 32 45" xmlns="http://www.w3.org/2000/svg"><title>Icon</title><g id="Symbols" fill="none" fill-rule="evenodd"><g id="Pdf-Icon" fill="#898E9F"><g id="Icon"><path d="M0 45h32V31.607H0V45zm20.934-10.02h4.627v1.388H22.51v1.475h2.515v1.283h-2.515v2.7h-1.575v-6.847zm-7.353 0h2.544c.563 0 1.056.09 1.478.27.423.18.776.424 1.061.732.285.309.5.67.643 1.085.144.415.216.857.216 1.326 0 .52-.08.992-.24 1.413a3.04 3.04 0 0 1-.686 1.08 3.08 3.08 0 0 1-1.075.694c-.42.164-.885.246-1.397.246H13.58v-6.847zm-6.46 0h2.908c.326 0 .625.067.898.202.271.135.505.312.7.53.196.219.35.466.461.743.112.276.168.556.168.839a2.48 2.48 0 0 1-.6 1.61 2.04 2.04 0 0 1-1.58.714H8.696v2.208H7.12v-6.847z" id="Shape"/><path d="M10.46 37.998c.135-.161.203-.396.203-.704 0-.16-.021-.3-.063-.415a.854.854 0 0 0-.168-.29.643.643 0 0 0-.24-.168.728.728 0 0 0-.269-.053H8.695v1.87H9.98c.186 0 .346-.08.48-.24zM22.933 1.607v7.5H30.4z" id="Shape"/><path id="Shape" d="M20 12V0H0v28h32V12zM16.893 40.283c.224-.103.41-.246.561-.43.15-.182.266-.398.346-.645.08-.248.12-.52.12-.815 0-.302-.04-.577-.12-.824a1.854 1.854 0 0 0-.35-.642 1.527 1.527 0 0 0-.567-.414 1.901 1.901 0 0 0-.758-.145h-.97v4.07h.97c.288 0 .544-.052.768-.155z"/></g></g></g></svg>