<svg width="60" height="60" viewBox="0 0 60 60" xmlns="http://www.w3.org/2000/svg"><title>Group 9</title><g id="Page-1" fill="none" fill-rule="evenodd"><g id="SUPPORT" transform="translate(-278 -834)"><g id="Support-v3" transform="translate(218 165)"><g id="Row-1"><g id="Row-4" transform="translate(31 633)"><g id="Group-9" transform="translate(29 36)"><circle id="Oval-65" fill="#CBCED7" cx="30" cy="30" r="30"/><path d="M45.354 37.4c-1.037-1.4-4.15-2.4-7.47-3.6-3.32-1.2-3.942-1.8-3.942-1.8v-3s1.245-.8 1.66-3.6c.83.2 1.453-1 1.66-1.8 0-.6-.207-2.4-1.037-2.4.207-1.4.415-2.6.207-3.2-.207-2.4-2.697-5-6.432-5-3.735 0-6.225 2.6-6.432 5 0 .6 0 1.8.207 3.2-.83-.2-1.037 1.6-1.037 2.4 0 .6.83 2 1.66 1.8.415 2.8 1.66 3.6 1.66 3.6v3s-.83.4-3.943 1.8c-3.32 1.2-6.432 2.2-7.47 3.6-.83 1.4-.622 7.6-.622 7.6h31.954s.207-6.4-.623-7.6z" id="Shape" fill="#FFF" opacity=".9"/></g></g></g></g></g></g></svg>