<svg width="10" height="13" viewBox="0 0 10 13" xmlns="http://www.w3.org/2000/svg"><title>lock</title><g id="Page-1" fill="none" fill-rule="evenodd"><g id="LOGIN-1" transform="translate(-1049 -450)" fill="#FFF"><g id="Log-In-Panel" transform="translate(1006)"><g id="Password" transform="translate(40 447)"><path d="M12.043 8.273h-.176a.464.464 0 0 1-.127-.02.266.266 0 0 1-.117-.067.412.412 0 0 1-.078-.108.302.302 0 0 1-.03-.137V6.984a3.883 3.883 0 0 0-.263-1.425 3.153 3.153 0 0 0-.322-.625 4.416 4.416 0 0 0-.43-.547 3.669 3.669 0 0 0-1.113-.81A3.321 3.321 0 0 0 8 3.273a3.321 3.321 0 0 0-1.387.302 3.669 3.669 0 0 0-1.113.81c-.156.17-.3.352-.43.548-.13.195-.237.403-.322.625a3.883 3.883 0 0 0-.264 1.426v.937c0 .052-.01.1-.029.146a.27.27 0 0 1-.078.108.505.505 0 0 1-.117.068.324.324 0 0 1-.127.03h-.176a.474.474 0 0 0-.215.048.632.632 0 0 0-.166.117.487.487 0 0 0-.107.166.573.573 0 0 0-.04.215v5.88a.607.607 0 0 0 .146.371.43.43 0 0 0 .167.117c.065.026.137.039.215.039h8.086c.078 0 .15-.013.215-.04a.43.43 0 0 0 .166-.117.607.607 0 0 0 .107-.175.522.522 0 0 0 .04-.196V8.82a.573.573 0 0 0-.04-.215.487.487 0 0 0-.107-.166.632.632 0 0 0-.166-.117.474.474 0 0 0-.215-.049zm-3.535 3.399l-.01.01-.01.01-.078.078a.26.26 0 0 0-.058.087.557.557 0 0 0-.04.206v.761a.26.26 0 0 1-.029.117.603.603 0 0 1-.068.108.206.206 0 0 1-.098.068.369.369 0 0 1-.234 0 .245.245 0 0 1-.098-.058.454.454 0 0 1-.068-.088.205.205 0 0 1-.03-.108v-.8a.549.549 0 0 0-.039-.206.26.26 0 0 0-.058-.087l-.078-.079-.01-.01-.01-.01a.586.586 0 0 1-.127-.126 1.09 1.09 0 0 1-.088-.147.767.767 0 0 1-.01-.654.884.884 0 0 1 .176-.254.808.808 0 0 1 1.113 0c.072.072.13.156.176.254a.753.753 0 0 1 .05.488.718.718 0 0 1-.06.166 1.09 1.09 0 0 1-.087.147.586.586 0 0 1-.127.127zm1.758-3.711a.288.288 0 0 1-.107.234.346.346 0 0 1-.108.059.433.433 0 0 1-.137.02H6.086a.433.433 0 0 1-.137-.02.274.274 0 0 1-.107-.068.412.412 0 0 1-.078-.108.26.26 0 0 1-.03-.117v-.977c0-.169.013-.335.04-.498.025-.162.068-.315.126-.459a2.84 2.84 0 0 1 .498-.8c.105-.118.219-.219.342-.303a2.283 2.283 0 0 1 1.26-.4c.156 0 .306.016.45.048a2.433 2.433 0 0 1 .81.352c.123.084.237.185.342.303a2.84 2.84 0 0 1 .498.8c.058.144.1.297.127.46.026.162.039.328.039.497V7.961z" id="lock"/></g></g></g></g></svg>