<svg width="16" height="16" viewBox="0 0 16 16" xmlns="http://www.w3.org/2000/svg"><title>DOWNLOAD_2_</title><g id="Symbols" fill="none" fill-rule="evenodd"><g id="Download-Full-report-Btn-hover" transform="translate(-14 -7)" fill="#FFF"><g transform="translate(14 7)" id="Group-13"><path d="M15.077 16H.923C.4 16 0 15.567 0 15v-5c0-.567.4-1 .923-1s.923.433.923 1v4h12.308v-4c0-.567.4-1 .923-1s.923.433.923 1v5c0 .567-.4 1-.923 1zm-3.63-9l-2.77 3.333a.855.855 0 0 1-1.354 0L4.553 7a.973.973 0 0 1-.245-.667c0-.566.4-1 .923-1 .277 0 .523.134.677.334l1.169 1.4V1c0-.567.4-1 .923-1s.923.433.923 1v6.067l1.17-1.4c.153-.2.4-.334.676-.334.523 0 .923.434.923 1 0 .267-.092.5-.246.667z" id="DOWNLOAD_2_"/></g></g></g></svg>