<svg width="12" height="13" viewBox="0 0 12 13" xmlns="http://www.w3.org/2000/svg"><title>document</title><g id="Page-1" fill="none" fill-rule="evenodd"><g id="DASHBOARD" transform="translate(-1123 -476)" fill="#898E9F"><g id="ARQIVA-RIGHT-SIDE" transform="translate(933 102)"><g id="REPRESENTATIVE"><path d="M190.375 375.523a.32.32 0 0 0-.04.05.32.32 0 0 1-.038.048.32.32 0 0 0-.04.049.095.095 0 0 0-.019.049 1.366 1.366 0 0 0-.166.38 2.55 2.55 0 0 0-.049.215c-.013.072-.02.14-.02.206v.107c0 .033.004.065.01.098l.02.087a.41.41 0 0 1 .01.098h.02v.04c0 .012.003.025.01.038l.019.04.01.019c.13.443.315.898.556 1.367.241.469.518.934.83 1.397.313.462.658.92 1.035 1.377a19.226 19.226 0 0 0 2.54 2.539c.455.377.914.722 1.376 1.035.463.312.928.589 1.397.83.469.24.924.426 1.367.556 0 .013.007.02.02.02.013 0 .026.003.039.01.013.006.026.01.039.01h.039v.019a.41.41 0 0 1 .097.01l.088.02c.033.006.065.01.098.01h.107c.066 0 .134-.007.206-.02a2.55 2.55 0 0 0 .214-.05 1.366 1.366 0 0 0 .381-.165c.013 0 .03-.007.05-.02a.32.32 0 0 0 .048-.039.32.32 0 0 1 .049-.039.32.32 0 0 0 .049-.039c.117-.078.23-.173.341-.283.111-.11.218-.222.323-.332a3.425 3.425 0 0 0 .507-.694l.04-.087a.557.557 0 0 0 .029-.098l.02-.098a.453.453 0 0 0 .01-.088.726.726 0 0 0-.02-.175.966.966 0 0 0-.05-.147 1.338 1.338 0 0 0-.068-.137.313.313 0 0 0-.097-.107 4.289 4.289 0 0 0-.498-.46 9.073 9.073 0 0 0-.606-.439c-.215-.143-.426-.28-.635-.41a17.4 17.4 0 0 0-.585-.351l-.01-.01c-.007-.007-.017-.01-.03-.01-.013 0-.022-.003-.029-.01l-.01-.01-.078-.038a.453.453 0 0 0-.176-.04h-.097a.712.712 0 0 0-.235.04c-.039.013-.074.026-.107.039a1.746 1.746 0 0 0-.313.205 2.857 2.857 0 0 1-.224.166 5.177 5.177 0 0 0-.234.166 8.733 8.733 0 0 0-.254.195.478.478 0 0 0-.098.068c-.013.013-.033.02-.059.02l-.078.04a.363.363 0 0 1-.166.04l-.088-.002h-.078a.321.321 0 0 1-.078-.01.536.536 0 0 1-.137-.049.16.16 0 0 1-.097-.039.153.153 0 0 0-.04-.029.153.153 0 0 1-.038-.03 2.94 2.94 0 0 1-.41-.253 9.54 9.54 0 0 1-.87-.713 13.38 13.38 0 0 1-1.24-1.299 9.54 9.54 0 0 1-.332-.43 2.94 2.94 0 0 1-.254-.41.153.153 0 0 1-.03-.039.153.153 0 0 0-.028-.039.536.536 0 0 1-.098-.313V379.01a.363.363 0 0 1 .039-.166l.039-.078c0-.026.007-.046.02-.059a.123.123 0 0 0 .029-.049.123.123 0 0 1 .03-.049l.038-.039c.052-.065.108-.136.166-.215.059-.078.114-.156.166-.234.052-.078.108-.153.166-.225a1.746 1.746 0 0 0 .205-.312l.04-.107a.771.771 0 0 0 .038-.235v-.097a.453.453 0 0 0-.039-.176l-.039-.078-.01-.01c-.006-.007-.01-.016-.01-.03 0-.012-.002-.022-.009-.029l-.01-.01a17.4 17.4 0 0 0-.351-.585c-.13-.209-.267-.42-.41-.635a9.073 9.073 0 0 0-.44-.606 4.289 4.289 0 0 0-.459-.498.313.313 0 0 0-.107-.097 1.338 1.338 0 0 0-.137-.069.966.966 0 0 0-.147-.049.726.726 0 0 0-.175-.02.453.453 0 0 0-.088.01l-.098.02a.557.557 0 0 0-.098.03 1.165 1.165 0 0 0-.087.039 3.527 3.527 0 0 0-.694.507c-.11.105-.221.212-.332.323-.11.11-.205.224-.283.341z" id="document"/></g></g></g></g></svg>