<?xml version="1.0" encoding="UTF-8"?>
<svg width="44px" height="48px" viewBox="0 0 44 48" version="1.1" xmlns="http://www.w3.org/2000/svg" xmlns:xlink="http://www.w3.org/1999/xlink">
    <!-- Generator: Sketch 43.2 (39069) - http://www.bohemiancoding.com/sketch -->
    <title>icon-menu</title>
    <desc>Created with Sketch.</desc>
    <defs></defs>
    <g id="Page-1" stroke="none" stroke-width="1" fill="none" fill-rule="evenodd">
        <g id="icon-menu" fill-rule="nonzero" fill="#2B76B8">
            <path d="M34,48 L10,48 C9.478,48 9.043,47.598 9.003,47.077 L7.07,21.946 C3.095,21.484 0,18.097 0,14 C0,9.581 3.678,5.849 8.032,5.849 C8.942,5.849 9.835,6.026 10.668,6.369 C12.072,2.509 16.439,0 22,0 C27.224,0 30.878,2.112 33.14,6.45 C34.027,6.054 34.988,5.848 35.968,5.848 C40.322,5.849 44,9.581 44,14 C44,18.097 40.905,21.484 36.93,21.946 L34.997,47.077 C34.957,47.598 34.522,48 34,48 Z M10.926,46 L33.073,46 L35.002,20.923 C35.043,20.402 35.478,20 36,20 C39.309,20 42,17.309 42,14 C42,10.375 38.821,7.849 35.968,7.849 C34.986,7.849 34.069,8.123 33.244,8.666 C32.999,8.827 32.693,8.873 32.412,8.789 C32.13,8.706 31.899,8.504 31.78,8.234 C29.898,3.981 26.791,2 22,2 C16.843,2 12.941,4.415 12.29,8.009 C12.23,8.339 12.009,8.617 11.7,8.749 C11.392,8.883 11.037,8.851 10.757,8.666 C9.932,8.123 9.015,7.849 8.033,7.849 C5.179,7.849 2,10.375 2,14 C2,17.309 4.691,20 8,20 C8.522,20 8.957,20.402 8.997,20.923 L10.926,46 Z" id="Shape"></path>
            <path d="M34.625,40 L9.375,40 C8.823,40 8.375,39.553 8.375,39 C8.375,38.447 8.823,38 9.375,38 L34.625,38 C35.177,38 35.625,38.447 35.625,39 C35.625,39.553 35.177,40 34.625,40 Z" id="Shape"></path>
            <path d="M17,40 C16.448,40 16,39.553 16,39 L16,31 C16,30.447 16.448,30 17,30 C17.552,30 18,30.447 18,31 L18,39 C18,39.553 17.552,40 17,40 Z" id="Shape"></path>
            <path d="M22,40 C21.448,40 21,39.553 21,39 L21,29 C21,28.447 21.448,28 22,28 C22.552,28 23,28.447 23,29 L23,39 C23,39.553 22.552,40 22,40 Z" id="Shape"></path>
            <path d="M27,40 C26.448,40 26,39.553 26,39 L26,31 C26,30.447 26.448,30 27,30 C27.552,30 28,30.447 28,31 L28,39 C28,39.553 27.552,40 27,40 Z" id="Shape"></path>
        </g>
    </g>
</svg>