<svg width="13" height="12" viewBox="0 0 13 12" xmlns="http://www.w3.org/2000/svg"><title>Configurations off</title><g id="Symbols" fill="none" fill-rule="evenodd"><path d="M10.478 4.347a4.508 4.508 0 0 0-.508-.846c.576-1.227.863-1.976.863-2.247 0-.043-.022-.082-.067-.114C9.41.38 8.712 0 8.666 0l-.101.033c-.463.445-.982 1.053-1.557 1.823a5.857 5.857 0 0 0-.508-.032 5.86 5.86 0 0 0-.508.032c-.157-.228-.451-.594-.88-1.099C4.684.252 4.424 0 4.334 0c-.023 0-.192.087-.508.26-.316.174-.649.359-.999.554-.35.196-.547.304-.592.326-.046.033-.068.07-.068.114 0 .271.288 1.02.863 2.247a4.53 4.53 0 0 0-.508.847C.841 4.51 0 4.678 0 4.852v2.28c0 .173.84.342 2.522.504.135.293.305.576.508.847-.575 1.227-.863 1.976-.863 2.247 0 .043.022.081.068.114C3.61 11.614 4.31 12 4.334 12c.09 0 .35-.255.778-.765.429-.51.723-.88.88-1.107.226.021.395.032.508.032.113 0 .282-.01.508-.032.157.228.451.597.88 1.107.428.51.688.765.779.765.022 0 .722-.385 2.099-1.156.045-.033.067-.07.067-.114 0-.271-.288-1.02-.863-2.247a4.7 4.7 0 0 0 .508-.847C12.159 7.474 13 7.306 13 7.132v-2.28c0-.173-.84-.342-2.522-.505zM8.032 7.466c-.423.407-.934.61-1.532.61a2.13 2.13 0 0 1-1.532-.61 1.97 1.97 0 0 1-.635-1.474c0-.564.215-1.053.643-1.466A2.123 2.123 0 0 1 6.5 3.908c.587 0 1.095.206 1.524.618.428.413.643.902.643 1.466a1.97 1.97 0 0 1-.635 1.474z" id="Configurations-off" fill="#CBCED7"/></g></svg>