<?xml version="1.0" encoding="utf-8"?>
<!-- Generator: Adobe Illustrator 15.0.0, SVG Export Plug-In . SVG Version: 6.00 Build 0)  -->
<!DOCTYPE svg PUBLIC "-//W3C//DTD SVG 1.1//EN" "http://www.w3.org/Graphics/SVG/1.1/DTD/svg11.dtd">
<svg version="1.1" id="Capa_1" xmlns="http://www.w3.org/2000/svg" xmlns:xlink="http://www.w3.org/1999/xlink" x="0px" y="0px"
	 width="595.279px" height="595.28px" viewBox="0 123.305 595.279 595.28" enable-background="new 0 123.305 595.279 595.28"
	 xml:space="preserve">
<path fill="#D75A4A" d="M442.623,149.495c34.92-34.919,91.547-34.919,126.467,0c34.92,34.92,34.92,91.547,0,126.467L442.623,149.495
	z"/>
<polygon fill="#ED8A19" points="474.235,323.378 184.57,613.055 178.646,666.406 497.953,347.087 497.953,347.087 "/>
<polygon fill="#ED8A19" points="115.412,603.173 168.764,597.249 458.429,307.573 411.012,260.156 121.336,549.821 "/>
<polygon fill="#ED8A19" points="395.206,244.351 371.487,220.631 371.487,220.631 52.179,539.939 105.531,534.016 "/>
<polygon fill="#C7CAC7" points="545.37,299.67 545.37,299.67 569.09,275.962 442.623,149.495 418.904,173.214 418.914,173.214 "/>
<polygon fill="#C7CAC7" points="403.098,189.02 403.098,189.02 387.292,204.826 387.292,204.826 513.759,331.281 513.759,331.281 
	529.565,315.476 529.565,315.476 "/>
<path fill="#FBCE9D" d="M161.231,620.588l-57.254,6.36c-0.402,0.045-0.815,0.067-1.218,0.067h-0.012l0,0l0,0
	c-0.011,0-0.011,0-0.011,0c-0.402,0-0.816-0.022-1.219-0.067c-0.436-0.044-0.794-0.29-1.207-0.391
	c-0.805-0.19-1.576-0.392-2.313-0.749c-0.56-0.269-1.04-0.593-1.543-0.939c-0.637-0.447-1.219-0.928-1.755-1.497
	c-0.425-0.447-0.771-0.906-1.118-1.42c-0.425-0.638-0.771-1.297-1.062-2.023c-0.246-0.604-0.425-1.196-0.559-1.845
	c-0.079-0.357-0.269-0.659-0.313-1.028c-0.045-0.424,0.112-0.815,0.112-1.229c0-0.425-0.157-0.805-0.112-1.229l6.36-57.253
	l-57.253,6.36c-0.414,0.045-0.839,0.066-1.241,0.066c-0.883,0-1.699-0.268-2.537-0.469L4.941,697.839l23.541-23.541
	c4.37-4.37,11.435-4.37,15.806,0c4.37,4.371,4.37,11.436,0,15.806l-23.541,23.541l134.471-32.014
	c-0.291-1.219-0.481-2.481-0.336-3.789L161.231,620.588z"/>
<path fill="#38454F" d="M44.287,674.298c-4.371-4.37-11.436-4.37-15.806,0L4.941,697.839L0,718.585l20.746-4.94l23.541-23.541
	C48.647,685.733,48.647,678.669,44.287,674.298z"/>
<polygon fill="#F2ECBF" points="545.37,299.67 418.914,173.214 418.904,173.214 403.098,189.02 403.098,189.02 529.565,315.476 
	529.565,315.476 "/>
<path fill="#EBBA16" d="M458.429,307.573L168.764,597.249l-53.352,5.924l5.924-53.352l289.676-289.665l-15.806-15.806
	L105.531,534.016l-53.352,5.924l-12.665,12.665l-2.549,10.697c0.839,0.201,1.644,0.469,2.538,0.469c0.402,0,0.827-0.021,1.24-0.066
	l57.254-6.36l-6.36,57.253c-0.045,0.425,0.111,0.816,0.111,1.229c0,0.425-0.156,0.805-0.111,1.229
	c0.044,0.369,0.234,0.671,0.312,1.028c0.134,0.638,0.324,1.252,0.559,1.845c0.291,0.716,0.638,1.386,1.062,2.023
	c0.335,0.503,0.704,0.983,1.117,1.42c0.525,0.559,1.118,1.05,1.755,1.497c0.492,0.347,0.995,0.683,1.543,0.939
	c0.727,0.347,1.509,0.559,2.313,0.749c0.425,0.101,0.771,0.335,1.208,0.391c0.402,0.045,0.805,0.067,1.218,0.067h0.012l0,0h0.011
	h0.012h0.011l0,0c0.392,0,0.805-0.022,1.219-0.067l57.253-6.36l-6.36,57.254c-0.146,1.318,0.045,2.57,0.336,3.789l10.764-2.56
	l12.665-12.653l5.924-53.353L474.235,323.39L458.429,307.573z"/>
<polygon fill="#F2ECBF" points="513.759,331.281 387.292,204.826 387.292,204.826 371.487,220.631 371.487,220.631 395.206,244.351 
	411.012,260.156 458.429,307.573 474.235,323.378 497.953,347.087 497.953,347.087 "/>
</svg>
