<svg width="840" height="328" viewBox="0 0 840 328" xmlns="http://www.w3.org/2000/svg" xmlns:xlink="http://www.w3.org/1999/xlink"><title>Chart</title><defs><path id="path-1" d="M0 0h820v328H0z"/></defs><g id="Page-1" fill="none" fill-rule="evenodd"><g id="DASHBOARD-2" transform="translate(-237 -2292)"><g id="ARCHIVE-STATUS" transform="translate(216 2111)"><g id="Chart" transform="translate(21 181)"><g id="Rectangle-789"><use fill="#2F323A" xlink:href="#path-1"/><use fill="#405976" xlink:href="#path-1"/></g><path id="Rectangle-789" fill-opacity=".03" fill="#FFF" d="M0 278h840v50H0z"/><g id="Rectangle-779-+-105" transform="translate(0 42)"><path id="Rectangle-779" fill="#D8D8D8" opacity=".1" d="M0 13h840v1H0z"/><path d="M16.686 4.354c-.243 0-.473-.04-.69-.122a1.661 1.661 0 0 1-.968-.938 2.004 2.004 0 0 1-.146-.79c0-.282.052-.545.158-.792.105-.246.251-.46.44-.643.19-.183.414-.327.675-.432.262-.105.548-.158.86-.158.309 0 .59.051.841.153.253.103.468.245.648.428s.32.402.417.657c.097.255.146.537.146.846a2.602 2.602 0 0 1-.203 1.017 3.993 3.993 0 0 1-.236.475c-.091.157-.195.32-.313.488l-1.57 2.268a.411.411 0 0 1-.167.137.566.566 0 0 1-.247.052h-.738l1.962-2.57.184-.247c.058-.078.111-.156.162-.234a1.793 1.793 0 0 1-.558.301 2.064 2.064 0 0 1-.657.104zm1.611-1.885c0-.202-.032-.384-.096-.547a1.17 1.17 0 0 0-.675-.68 1.417 1.417 0 0 0-.52-.092c-.198 0-.379.032-.542.097a1.176 1.176 0 0 0-.686.677 1.405 1.405 0 0 0-.095.522c0 .204.03.386.088.547a1.06 1.06 0 0 0 .652.66c.158.056.334.084.529.084.216 0 .407-.035.574-.105a1.205 1.205 0 0 0 .682-.686c.06-.154.09-.312.09-.478zM24.314.552v.36a.793.793 0 0 1-.104.418l-2.668 5.386a.597.597 0 0 1-.162.2.432.432 0 0 1-.279.084h-.572l2.71-5.319c.039-.075.078-.144.119-.207.04-.063.086-.123.137-.18h-3.366a.19.19 0 0 1-.137-.06.19.19 0 0 1-.061-.138V.551h4.383zm.738 5.953a.572.572 0 0 1 .16-.4.55.55 0 0 1 .398-.167.577.577 0 0 1 .4.167.572.572 0 0 1 .162.4.567.567 0 0 1-.162.4.572.572 0 0 1-.4.162.572.572 0 0 1-.22-.042.522.522 0 0 1-.178-.12.572.572 0 0 1-.16-.4zM30.965.902a.385.385 0 0 1-.108.282c-.072.073-.193.11-.364.11h-2.025l-.297 1.692c.336-.072.646-.108.931-.108.336 0 .632.05.889.148.256.1.471.236.646.41.174.174.305.38.393.617.089.237.133.494.133.774 0 .342-.06.65-.18.926-.12.277-.284.513-.493.71a2.157 2.157 0 0 1-.735.452 2.597 2.597 0 0 1-.914.157c-.189 0-.37-.019-.544-.056a2.747 2.747 0 0 1-1.247-.623l.243-.342a.25.25 0 0 1 .216-.117c.057 0 .124.023.2.07.077.046.169.097.277.155.108.057.235.108.38.155.146.046.319.07.52.07.225 0 .427-.036.608-.109.18-.072.333-.174.46-.308.128-.133.226-.293.296-.479.069-.186.103-.394.103-.626 0-.2-.03-.382-.088-.544A1.07 1.07 0 0 0 30 3.904a1.218 1.218 0 0 0-.444-.265 1.851 1.851 0 0 0-.62-.095c-.163 0-.33.013-.505.04a3.52 3.52 0 0 0-.54.131l-.503-.148.521-3.016h3.056v.351z" id="97.5" fill="#FFF"/></g><path d="M24.442 25h-.826a.355.355 0 0 1-.23-.072.44.44 0 0 1-.133-.181l-.736-1.903H18.98l-.737 1.903a.43.43 0 0 1-.132.176.351.351 0 0 1-.231.077h-.825l3.151-7.881h1.084L24.442 25zm-5.165-2.926h2.942l-1.237-3.207a5.993 5.993 0 0 1-.236-.742c-.04.15-.08.289-.119.415a4.959 4.959 0 0 1-.112.333l-1.238 3.201zm7.331-.363V25h-1.061v-7.881h2.227c.5 0 .93.05 1.293.15.363.102.663.247.9.438.236.19.41.42.524.69.114.27.171.571.171.905 0 .279-.044.539-.132.781-.088.242-.215.46-.382.652s-.37.356-.61.492-.513.238-.817.308c.132.077.249.189.352.335L31.372 25h-.947c-.194 0-.337-.075-.428-.226l-2.046-2.816a.596.596 0 0 0-.204-.19.734.734 0 0 0-.33-.057h-.809zm0-.775h1.117c.312 0 .586-.038.822-.113.237-.075.435-.182.594-.32.16-.137.28-.3.36-.491.081-.191.121-.402.121-.633 0-.47-.154-.823-.464-1.062-.31-.238-.771-.357-1.384-.357h-1.166v2.976zm11.215 2.436a.22.22 0 0 1 .16.072l.418.456a3.372 3.372 0 0 1-1.175.875c-.46.209-1.014.313-1.663.313a3.917 3.917 0 0 1-1.546-.294 3.387 3.387 0 0 1-1.183-.825 3.73 3.73 0 0 1-.759-1.274 4.756 4.756 0 0 1-.269-1.633c0-.594.096-1.138.289-1.634.192-.495.463-.92.811-1.276a3.63 3.63 0 0 1 1.251-.827 4.26 4.26 0 0 1 1.609-.294c.58 0 1.079.09 1.499.269.42.18.793.423 1.119.732l-.346.489a.378.378 0 0 1-.088.09.242.242 0 0 1-.144.037.278.278 0 0 1-.15-.053 7.638 7.638 0 0 1-.19-.129 4.095 4.095 0 0 0-.259-.165 2.265 2.265 0 0 0-.352-.165 2.908 2.908 0 0 0-.473-.13 3.292 3.292 0 0 0-.621-.052 3 3 0 0 0-1.158.218c-.35.145-.652.35-.905.619-.253.267-.45.593-.591.979a3.733 3.733 0 0 0-.212 1.292c0 .491.07.93.212 1.314.14.386.333.71.577.977.244.266.533.468.867.607.333.14.692.21 1.078.21.234 0 .445-.014.632-.042.187-.027.36-.07.52-.129a2.2 2.2 0 0 0 .445-.223c.138-.09.276-.197.416-.322.062-.055.122-.082.181-.082zM46.194 25h-1.073v-3.586h-4.245V25h-1.073v-7.881h1.073v3.514h4.245v-3.514h1.073V25zm3.19 0h-1.067v-7.881h1.067V25zm1.199-7.881h.852c.096 0 .173.023.231.071a.44.44 0 0 1 .133.181l2.227 5.561a3.9 3.9 0 0 1 .14.407c.042.147.084.299.124.457.033-.158.069-.31.107-.457.039-.147.084-.282.135-.407l2.217-5.56a.46.46 0 0 1 .131-.174.344.344 0 0 1 .231-.08h.858L54.757 25h-.962l-3.212-7.881zm13.25 0v.869h-3.785v2.617h3.064v.837h-3.064v2.689h3.785V25h-4.857v-7.881h4.857zm6.72 7.034a2.2 2.2 0 0 0 .875-.165c.257-.11.474-.264.652-.462a2.02 2.02 0 0 0 .407-.71c.093-.275.14-.577.14-.907v-4.79h1.062v4.79c0 .455-.073.876-.218 1.265a2.939 2.939 0 0 1-.621 1.01c-.27.283-.599.506-.987.668a3.385 3.385 0 0 1-1.31.241c-.484 0-.92-.08-1.308-.241a2.87 2.87 0 0 1-.99-.669 2.918 2.918 0 0 1-.625-1.009 3.595 3.595 0 0 1-.217-1.265v-4.79h1.062v4.785c0 .33.046.632.14.907.093.275.229.511.407.71.178.198.396.352.654.464.259.112.551.168.877.168zm9.004-5.802a.426.426 0 0 1-.105.123.232.232 0 0 1-.142.041c-.063 0-.135-.03-.218-.093a3.463 3.463 0 0 0-.313-.206 2.544 2.544 0 0 0-.457-.207 1.964 1.964 0 0 0-.646-.093c-.238 0-.45.032-.633.096a1.345 1.345 0 0 0-.459.261c-.123.11-.215.24-.278.388a1.23 1.23 0 0 0-.093.481c0 .22.054.403.162.548.108.145.251.268.43.371.177.103.379.192.604.267l.693.233c.237.081.468.172.693.273.226.1.427.228.605.382s.321.343.43.566c.107.224.162.5.162.826 0 .344-.06.668-.177.97a2.238 2.238 0 0 1-.514.79c-.225.223-.502.4-.83.527a3.055 3.055 0 0 1-1.12.193c-.51 0-.974-.093-1.394-.278a3.27 3.27 0 0 1-1.075-.75l.308-.506a.405.405 0 0 1 .107-.102.251.251 0 0 1 .14-.042c.078 0 .165.042.264.124.1.083.223.173.372.273.148.099.328.19.539.272.21.082.468.123.773.123.253 0 .478-.034.676-.104.198-.07.366-.168.503-.294.138-.127.243-.278.317-.454.073-.176.11-.372.11-.588 0-.239-.055-.434-.163-.586a1.345 1.345 0 0 0-.426-.382 2.98 2.98 0 0 0-.602-.262l-.693-.22a6.988 6.988 0 0 1-.693-.261 2.252 2.252 0 0 1-.603-.385 1.769 1.769 0 0 1-.426-.591c-.108-.237-.162-.53-.162-.877a2.088 2.088 0 0 1 .633-1.502 2.28 2.28 0 0 1 .761-.484 2.79 2.79 0 0 1 1.042-.181c.44 0 .842.07 1.205.209.363.139.68.34.951.605l-.258.506zM87.835 25h-.825a.355.355 0 0 1-.232-.072.44.44 0 0 1-.132-.181l-.737-1.903h-3.536l-.737 1.903a.43.43 0 0 1-.132.176.351.351 0 0 1-.231.077h-.825l3.152-7.881h1.083L87.834 25zm-5.165-2.926h2.942l-1.237-3.207a5.993 5.993 0 0 1-.237-.742c-.04.15-.08.289-.118.415a4.959 4.959 0 0 1-.112.333l-1.238 3.201zm9.444 2.15c.212 0 .407-.01.585-.03a3.428 3.428 0 0 0 .949-.236c.14-.057.279-.122.418-.195v-1.739h-1.221a.233.233 0 0 1-.168-.06.197.197 0 0 1-.063-.148v-.605h2.42v3.024a4.214 4.214 0 0 1-1.306.64 4.978 4.978 0 0 1-.784.16 7.338 7.338 0 0 1-.907.053 4.095 4.095 0 0 1-1.574-.294 3.622 3.622 0 0 1-1.231-.825 3.745 3.745 0 0 1-.806-1.274 4.47 4.47 0 0 1-.289-1.633c0-.601.094-1.15.283-1.645.19-.495.459-.919.809-1.273.35-.354.773-.628 1.27-.822a4.55 4.55 0 0 1 1.67-.291c.311 0 .6.022.868.068.268.046.517.112.746.198.229.086.44.19.635.314.194.123.376.261.544.415l-.302.484c-.062.099-.143.148-.242.148a.39.39 0 0 1-.193-.06 5.836 5.836 0 0 1-.307-.187 2.638 2.638 0 0 0-.416-.212 3.343 3.343 0 0 0-.577-.173 3.802 3.802 0 0 0-.79-.072c-.443 0-.845.073-1.204.218-.36.145-.665.352-.918.621a2.75 2.75 0 0 0-.584.98 3.846 3.846 0 0 0-.203 1.289c0 .499.07.943.212 1.334.14.39.34.721.596.992.257.272.561.479.913.622.353.143.741.214 1.166.214zm9.415-7.105v.869h-3.783v2.617h3.063v.837h-3.063v2.689h3.784V25h-4.857v-7.881h4.856zm4.29 4.422c0 .784.101 1.546.303 2.285a9.13 9.13 0 0 0 .874 2.114.362.362 0 0 1 .055.192.2.2 0 0 1-.038.127.387.387 0 0 1-.099.088l-.434.264c-.276-.421-.51-.84-.702-1.253a8.48 8.48 0 0 1-.729-2.511 10.135 10.135 0 0 1-.082-1.306c0-.444.028-.879.082-1.304a8.527 8.527 0 0 1 .729-2.508c.193-.414.426-.834.701-1.26l.435.27c.04.026.073.055.099.088a.2.2 0 0 1 .038.126.41.41 0 0 1-.055.188 8.745 8.745 0 0 0-1.177 4.4zm8.036-4.422v.896h-2.547V25h-1.067v-6.985h-2.557v-.896h6.171zM114.977 25v-7.881h2.513c.485 0 .902.047 1.252.143.35.095.638.23.863.407.226.176.393.39.5.646.109.255.163.541.163.86 0 .195-.03.382-.09.561-.061.18-.153.347-.276.501a1.944 1.944 0 0 1-.462.413c-.185.12-.402.22-.651.297.575.113 1.01.32 1.303.621.293.3.44.697.44 1.188 0 .334-.061.638-.184.913a1.956 1.956 0 0 1-.54.71 2.515 2.515 0 0 1-.868.459 3.901 3.901 0 0 1-1.174.162h-2.789zm1.067-3.591v2.744h1.705c.304 0 .566-.035.784-.104.218-.07.398-.168.539-.295a1.14 1.14 0 0 0 .31-.45 1.61 1.61 0 0 0 .1-.575c0-.408-.144-.73-.432-.966-.288-.236-.723-.355-1.306-.355h-1.7zm0-.76h1.408c.3 0 .561-.032.781-.099a1.58 1.58 0 0 0 .547-.274c.145-.118.252-.26.322-.427.07-.167.105-.349.105-.547 0-.462-.14-.801-.418-1.017-.28-.217-.712-.325-1.299-.325h-1.446v2.69zm6.732.892a8.745 8.745 0 0 0-1.177-4.4.41.41 0 0 1-.055-.188.2.2 0 0 1 .038-.126.387.387 0 0 1 .1-.088l.434-.27c.275.426.509.846.701 1.26a8.527 8.527 0 0 1 .729 2.508c.055.425.082.86.082 1.304 0 .447-.027.882-.082 1.306a8.48 8.48 0 0 1-.729 2.51c-.192.415-.426.833-.701 1.254l-.434-.264a.387.387 0 0 1-.1-.088.2.2 0 0 1-.038-.126.362.362 0 0 1 .055-.192 9.13 9.13 0 0 0 .874-2.115 8.64 8.64 0 0 0 .303-2.285z" id="ARCHIVE-USAGE-(TB)" fill="#FFF"/><path d="M382.576 305.35a.426.426 0 0 1-.105.124.232.232 0 0 1-.142.041c-.063 0-.135-.03-.218-.093a3.463 3.463 0 0 0-.313-.206 2.544 2.544 0 0 0-.457-.207 1.964 1.964 0 0 0-.646-.093c-.238 0-.45.032-.632.096a1.345 1.345 0 0 0-.46.262c-.123.11-.215.239-.278.387a1.23 1.23 0 0 0-.093.481c0 .22.054.403.162.548.108.145.251.268.43.371.177.103.379.192.604.267.226.075.457.153.693.234.237.08.468.17.693.272.226.1.427.228.605.382s.321.343.43.567c.107.223.161.498.161.825 0 .344-.058.668-.175.97a2.238 2.238 0 0 1-.515.79c-.225.223-.502.4-.83.528a3.055 3.055 0 0 1-1.12.192c-.51 0-.974-.093-1.394-.278a3.27 3.27 0 0 1-1.075-.75l.308-.507a.405.405 0 0 1 .107-.101.251.251 0 0 1 .14-.041c.077 0 .166.04.264.123.1.083.223.173.372.273.148.099.328.19.539.272.21.082.468.123.773.123.253 0 .478-.034.676-.104.198-.07.366-.168.503-.294.138-.127.243-.278.316-.454.074-.176.11-.372.11-.589 0-.238-.054-.433-.162-.585a1.345 1.345 0 0 0-.426-.382 2.98 2.98 0 0 0-.602-.262l-.693-.22a6.988 6.988 0 0 1-.693-.261 2.252 2.252 0 0 1-.603-.385 1.769 1.769 0 0 1-.426-.591c-.108-.237-.162-.53-.162-.877a2.088 2.088 0 0 1 .632-1.502 2.28 2.28 0 0 1 .762-.484 2.79 2.79 0 0 1 1.042-.181c.44 0 .842.07 1.205.209.363.139.68.34.952.604l-.259.507zm8.277 6.65h-.825a.355.355 0 0 1-.23-.072.44.44 0 0 1-.132-.181l-.738-1.903h-3.536l-.737 1.903a.43.43 0 0 1-.132.176.351.351 0 0 1-.231.077h-.825l3.151-7.882h1.084l3.151 7.882zm-5.164-2.926h2.942l-1.237-3.207a5.993 5.993 0 0 1-.236-.742c-.04.15-.08.289-.119.415a4.959 4.959 0 0 1-.113.333l-1.237 3.201zm10.037.077c.052.088.097.18.135.278.039.097.076.195.113.294a3.634 3.634 0 0 1 .253-.577l2.668-4.846c.047-.084.097-.136.148-.154a.684.684 0 0 1 .22-.028h.787V312h-.935v-5.791a5.964 5.964 0 0 1 .022-.517l-2.701 4.928c-.092.165-.22.247-.385.247h-.154c-.165 0-.293-.082-.385-.248l-2.761-4.944a5.126 5.126 0 0 1 .033.534V312h-.935v-7.882h.786c.096 0 .17.01.22.028.052.018.101.07.149.154l2.722 4.851zm7.414-.099V312h-1.061v-7.882h2.327c.498 0 .932.058 1.3.174.369.115.674.28.916.492.242.213.423.47.542.77.119.3.178.636.178 1.007 0 .366-.064.702-.192 1.006a2.165 2.165 0 0 1-.564.786c-.247.22-.554.392-.921.515a3.96 3.96 0 0 1-1.26.184h-1.264zm0-.847h1.266c.304 0 .572-.04.805-.121.233-.08.428-.193.586-.338.158-.145.277-.318.357-.52.081-.202.122-.423.122-.666 0-.502-.155-.894-.465-1.176-.31-.283-.778-.424-1.405-.424h-1.266v3.245zm6.617 2.899h3.41V312h-4.477v-7.882h1.067v6.986zm9.443-6.986v.87h-3.784v2.618h3.064v.836h-3.064v2.689h3.784V312h-4.856v-7.882h4.856zm10.489 3.944c0 .59-.093 1.127-.28 1.611a3.574 3.574 0 0 1-.793 1.243c-.34.345-.75.612-1.226.8a4.266 4.266 0 0 1-1.584.284h-2.948v-7.882h2.948c.58 0 1.107.095 1.584.284.477.189.885.456 1.226.803.342.346.605.761.793 1.245.187.485.28 1.022.28 1.612zm-1.095 0c0-.484-.065-.917-.197-1.298a2.736 2.736 0 0 0-.561-.968 2.393 2.393 0 0 0-.88-.605 3.041 3.041 0 0 0-1.15-.209h-1.875v6.154h1.875c.422 0 .805-.07 1.15-.209.344-.139.637-.34.88-.602.242-.262.428-.584.56-.965.133-.381.198-.814.198-1.298zm8.8 3.938h-.825a.355.355 0 0 1-.23-.072.44.44 0 0 1-.132-.181l-.738-1.903h-3.536l-.737 1.903a.43.43 0 0 1-.132.176.351.351 0 0 1-.231.077h-.825l3.151-7.882h1.084l3.151 7.882zm-5.164-2.926h2.942l-1.237-3.207a5.993 5.993 0 0 1-.236-.742c-.04.15-.08.289-.119.415a4.959 4.959 0 0 1-.113.333l-1.237 3.201zm10.802-4.956v.897h-2.546V312h-1.067v-6.985h-2.558v-.897h6.171zm5.978 0v.87h-3.784v2.618h3.064v.836h-3.064v2.689h3.784V312h-4.856v-7.882h4.856zm5.572 1.233a.426.426 0 0 1-.104.123.232.232 0 0 1-.144.041c-.062 0-.134-.03-.217-.093a3.463 3.463 0 0 0-.313-.206 2.544 2.544 0 0 0-.457-.207 1.964 1.964 0 0 0-.646-.093c-.238 0-.45.032-.633.096a1.345 1.345 0 0 0-.459.262c-.123.11-.215.239-.277.387a1.23 1.23 0 0 0-.094.481c0 .22.054.403.162.548.108.145.251.268.43.371.177.103.379.192.604.267.226.075.457.153.693.234.237.08.468.17.693.272.226.1.427.228.605.382s.321.343.43.567c.107.223.161.498.161.825 0 .344-.058.668-.175.97a2.238 2.238 0 0 1-.515.79c-.225.223-.502.4-.83.528a3.055 3.055 0 0 1-1.12.192c-.51 0-.974-.093-1.394-.278a3.27 3.27 0 0 1-1.075-.75l.308-.507a.405.405 0 0 1 .107-.101.251.251 0 0 1 .14-.041c.077 0 .166.04.264.123.1.083.223.173.372.273.148.099.328.19.539.272.21.082.468.123.772.123.254 0 .479-.034.677-.104.198-.07.366-.168.503-.294.138-.127.243-.278.317-.454.073-.176.11-.372.11-.589 0-.238-.055-.433-.163-.585a1.345 1.345 0 0 0-.426-.382 2.98 2.98 0 0 0-.602-.262l-.693-.22a6.988 6.988 0 0 1-.693-.261 2.252 2.252 0 0 1-.603-.385 1.769 1.769 0 0 1-.426-.591c-.108-.237-.162-.53-.162-.877a2.088 2.088 0 0 1 .632-1.502 2.28 2.28 0 0 1 .762-.484 2.79 2.79 0 0 1 1.043-.181c.44 0 .841.07 1.204.209.363.139.68.34.952.604l-.259.507z" id="SAMPLE-DATES" fill="#CBCED7"/><path d="M375.795 31h-.976a.42.42 0 0 1-.273-.084.52.52 0 0 1-.156-.215l-.87-2.249h-4.18l-.871 2.249a.508.508 0 0 1-.156.208.415.415 0 0 1-.273.091h-.975l3.724-9.314h1.281L375.795 31zm-6.104-3.458h3.478l-1.463-3.79a7.082 7.082 0 0 1-.28-.877 15.39 15.39 0 0 1-.14.49c-.045.15-.09.281-.132.394l-1.463 3.783zm8.665-.429V31H377.1v-9.314h2.632c.59 0 1.099.06 1.528.178.429.12.783.292 1.063.517.28.225.486.497.62.816.135.318.202.675.202 1.069 0 .33-.052.637-.156.923a2.438 2.438 0 0 1-.452.77 2.703 2.703 0 0 1-.721.582c-.284.16-.606.282-.966.364.157.091.295.223.416.396L383.986 31h-1.119c-.23 0-.398-.089-.506-.267l-2.418-3.328a.704.704 0 0 0-.241-.224c-.087-.045-.217-.068-.39-.068h-.955zm0-.916h1.319c.368 0 .692-.045.972-.134.28-.089.513-.214.702-.377.188-.162.33-.356.425-.581a1.9 1.9 0 0 0 .144-.748c0-.555-.184-.973-.55-1.255-.366-.281-.91-.422-1.635-.422h-1.377v3.517zm13.253 2.879c.07 0 .132.028.189.084l.493.54a3.985 3.985 0 0 1-1.387 1.034c-.544.247-1.2.37-1.966.37-.672 0-1.281-.116-1.827-.348a4.003 4.003 0 0 1-1.397-.975 4.407 4.407 0 0 1-.897-1.505 5.621 5.621 0 0 1-.319-1.93c0-.702.114-1.345.341-1.93a4.411 4.411 0 0 1 .959-1.509 4.29 4.29 0 0 1 1.479-.978 5.034 5.034 0 0 1 1.901-.348c.685 0 1.275.107 1.771.319.496.212.937.5 1.323.865l-.41.578a.446.446 0 0 1-.103.107.286.286 0 0 1-.17.043.33.33 0 0 1-.178-.062 9.026 9.026 0 0 1-.224-.153 4.84 4.84 0 0 0-.306-.195 2.677 2.677 0 0 0-.416-.195 3.437 3.437 0 0 0-.559-.153 3.891 3.891 0 0 0-.735-.061c-.498 0-.954.085-1.368.256-.414.171-.77.415-1.069.732a3.327 3.327 0 0 0-.699 1.157c-.167.455-.25.964-.25 1.527 0 .58.083 1.098.25 1.553.167.456.395.84.683 1.154.288.314.63.554 1.023.718.395.165.82.247 1.274.247.278 0 .527-.016.748-.048a3.07 3.07 0 0 0 .614-.153 2.6 2.6 0 0 0 .527-.263c.162-.106.326-.233.49-.38.074-.066.146-.098.215-.098zM401.502 31h-1.267v-4.238h-5.019V31h-1.267v-9.314h1.267v4.153h5.019v-4.153h1.267V31zm3.77 0h-1.261v-9.314h1.261V31zm1.417-9.314h1.007a.42.42 0 0 1 .273.084.52.52 0 0 1 .156.215l2.633 6.571c.06.147.116.308.166.481s.098.353.146.54c.039-.187.081-.367.127-.54.045-.173.098-.334.159-.481l2.62-6.572a.545.545 0 0 1 .156-.204.406.406 0 0 1 .272-.095h1.014L411.623 31h-1.137l-3.796-9.314zm15.659 0v1.026h-4.473v3.095h3.621v.988h-3.62v3.178h4.472V31h-5.74v-9.314h5.74zM434.334 31h-.976a.42.42 0 0 1-.272-.084.52.52 0 0 1-.156-.215l-.872-2.249h-4.179l-.871 2.249a.508.508 0 0 1-.156.208.415.415 0 0 1-.273.091h-.975l3.725-9.314h1.28L434.334 31zm-6.104-3.458h3.477l-1.462-3.79a7.082 7.082 0 0 1-.28-.877 15.39 15.39 0 0 1-.14.49c-.045.15-.09.281-.132.394l-1.463 3.783zm13.02-5.857v1.027h-4.473v3.095h3.621v.988h-3.62v3.178h4.471V31h-5.739v-9.314h5.74zm8.157 0v1.06h-3.01V31h-1.26v-8.255h-3.023v-1.06h7.293zm1.976 0c.113 0 .196.015.25.043a.647.647 0 0 1 .185.172l5.396 7.02a4.448 4.448 0 0 1-.026-.328 7.576 7.576 0 0 1-.007-.309v-6.598h1.105V31h-.637a.542.542 0 0 1-.25-.052.632.632 0 0 1-.199-.175l-5.388-7.014a8.357 8.357 0 0 1 .026.604V31h-1.105v-9.314h.65zM466.691 30a2.6 2.6 0 0 0 1.033-.195c.303-.13.56-.312.77-.546.21-.234.37-.513.481-.838.11-.326.166-.683.166-1.073v-5.662h1.255v5.662c0 .537-.086 1.036-.257 1.495-.171.46-.416.857-.735 1.193-.318.336-.707.599-1.166.79a4 4 0 0 1-1.548.285 4 4 0 0 1-1.546-.285c-.46-.191-.85-.454-1.17-.79a3.448 3.448 0 0 1-.738-1.193 4.248 4.248 0 0 1-.257-1.495v-5.662h1.255v5.655c0 .39.055.748.165 1.073.11.325.271.604.481.838.21.235.468.418.774.55.305.132.65.198 1.036.198zm10.64-6.857a.504.504 0 0 1-.124.146.274.274 0 0 1-.168.049c-.074 0-.16-.037-.257-.111a4.092 4.092 0 0 0-.37-.244c-.15-.089-.33-.17-.54-.244a2.321 2.321 0 0 0-.764-.11c-.282 0-.53.038-.748.114a1.59 1.59 0 0 0-.542.308c-.145.13-.255.283-.328.459-.074.175-.111.365-.111.569 0 .26.064.475.192.646.128.171.297.318.507.439.21.121.448.226.715.315l.819.276c.28.096.552.203.819.322.266.12.505.27.715.452.21.182.379.405.507.67.128.264.191.589.191.974 0 .408-.069.79-.207 1.148a2.645 2.645 0 0 1-.608.933 2.843 2.843 0 0 1-.982.623 3.61 3.61 0 0 1-1.323.228 4.04 4.04 0 0 1-1.647-.328 3.865 3.865 0 0 1-1.271-.887l.364-.598a.479.479 0 0 1 .127-.12.297.297 0 0 1 .165-.05c.091 0 .195.05.313.147.117.097.263.204.438.322.176.117.388.224.637.321.25.098.554.146.913.146.3 0 .566-.04.8-.123.234-.082.432-.198.595-.348.162-.15.287-.328.373-.536.087-.208.13-.44.13-.695 0-.282-.063-.513-.191-.693a1.59 1.59 0 0 0-.504-.451 3.521 3.521 0 0 0-.712-.31c-.266-.084-.54-.17-.819-.26a8.259 8.259 0 0 1-.819-.308 2.662 2.662 0 0 1-.712-.455 2.09 2.09 0 0 1-.503-.699c-.128-.28-.192-.625-.192-1.037 0-.329.064-.647.192-.955.128-.308.313-.58.555-.819.243-.238.543-.429.9-.572a3.298 3.298 0 0 1 1.233-.215c.52 0 .994.083 1.423.247.429.165.804.403 1.125.716l-.306.598zM487.113 31h-.974a.42.42 0 0 1-.274-.084.52.52 0 0 1-.156-.215l-.87-2.249h-4.18l-.871 2.249a.508.508 0 0 1-.156.208.415.415 0 0 1-.273.091h-.975l3.724-9.314h1.281L487.113 31zm-6.103-3.458h3.478l-1.463-3.79a7.082 7.082 0 0 1-.28-.877 15.39 15.39 0 0 1-.14.49c-.045.15-.09.281-.132.394l-1.463 3.783zm11.16 2.541c.252 0 .483-.011.693-.035a4.4 4.4 0 0 0 .594-.107c.187-.048.362-.106.527-.173.165-.067.33-.144.494-.23v-2.055h-1.443a.275.275 0 0 1-.198-.071.233.233 0 0 1-.075-.175v-.715h2.86v3.575a4.98 4.98 0 0 1-1.544.757 5.883 5.883 0 0 1-.926.188c-.33.041-.687.062-1.072.062a4.84 4.84 0 0 1-1.86-.348 4.28 4.28 0 0 1-1.456-.975 4.426 4.426 0 0 1-.952-1.505 5.283 5.283 0 0 1-.341-1.93c0-.71.112-1.358.335-1.944a4.276 4.276 0 0 1 .955-1.504 4.27 4.27 0 0 1 1.502-.972c.587-.23 1.244-.345 1.973-.345.368 0 .71.028 1.026.082a4.8 4.8 0 0 1 .881.234c.271.102.521.225.751.37.23.145.444.309.644.491l-.358.572c-.074.117-.169.176-.286.176a.46.46 0 0 1-.228-.072 6.897 6.897 0 0 1-.363-.221 3.117 3.117 0 0 0-.491-.25 3.951 3.951 0 0 0-.683-.205 4.493 4.493 0 0 0-.933-.084c-.524 0-.998.085-1.423.256a3.011 3.011 0 0 0-1.086.735 3.25 3.25 0 0 0-.689 1.157c-.16.453-.24.96-.24 1.524 0 .59.083 1.115.25 1.576.167.462.402.853.706 1.174.303.32.662.565 1.079.734.416.169.875.254 1.377.254zm11.128-8.397v1.026h-4.471v3.095h3.62v.988h-3.62v3.178h4.471V31h-5.739v-9.314h5.74z" id="ARCHIVE-AETN-USAGE" fill="#FFF"/><g id="Rectangle-779-+-105-Copy" transform="translate(0 98)"><path id="Rectangle-779" fill="#D8D8D8" opacity=".1" d="M0 13h840v1H0z"/><path d="M17.25 4.354c-.243 0-.473-.04-.69-.122a1.661 1.661 0 0 1-.968-.938 2.004 2.004 0 0 1-.146-.79c0-.282.052-.545.158-.792.105-.246.251-.46.44-.643.19-.183.414-.327.675-.432.262-.105.548-.158.86-.158.309 0 .59.051.841.153.253.103.468.245.648.428s.32.402.417.657c.097.255.146.537.146.846a2.602 2.602 0 0 1-.203 1.017 3.993 3.993 0 0 1-.236.475c-.091.157-.195.32-.313.488l-1.57 2.268a.411.411 0 0 1-.167.137.566.566 0 0 1-.247.052h-.738l1.962-2.57.184-.247c.058-.078.111-.156.162-.234a1.793 1.793 0 0 1-.558.301 2.064 2.064 0 0 1-.657.104zm1.611-1.885c0-.202-.032-.384-.096-.547a1.17 1.17 0 0 0-.675-.68 1.417 1.417 0 0 0-.52-.092c-.198 0-.379.032-.542.097a1.176 1.176 0 0 0-.686.677 1.405 1.405 0 0 0-.095.522c0 .204.03.386.088.547a1.06 1.06 0 0 0 .652.66c.158.056.334.084.529.084.216 0 .407-.035.574-.105a1.205 1.205 0 0 0 .682-.686c.06-.154.09-.312.09-.478zm5.54-1.567a.385.385 0 0 1-.108.282c-.072.073-.193.11-.364.11h-2.025l-.297 1.692c.336-.072.646-.108.931-.108.336 0 .632.05.889.148.256.1.471.236.646.41.174.174.305.38.393.617.089.237.133.494.133.774 0 .342-.06.65-.18.926-.12.277-.284.513-.493.71a2.157 2.157 0 0 1-.735.452 2.597 2.597 0 0 1-.914.157c-.189 0-.37-.019-.544-.056a2.747 2.747 0 0 1-1.247-.623l.243-.342a.25.25 0 0 1 .216-.117c.057 0 .124.023.2.07.077.046.169.097.277.155.108.057.235.108.38.155.146.046.319.07.52.07.225 0 .427-.036.608-.109.18-.072.333-.174.46-.308.128-.133.226-.293.296-.479.069-.186.103-.394.103-.626 0-.2-.03-.382-.088-.544a1.07 1.07 0 0 0-.265-.414 1.218 1.218 0 0 0-.444-.265 1.851 1.851 0 0 0-.62-.095c-.163 0-.33.013-.505.04a3.52 3.52 0 0 0-.54.131l-.504-.148.523-3.016H24.4v.351z" id="95" fill="#FFF"/><g id="13.-MAY-+-Rectangle-790" transform="translate(60 180)" fill="#FFF"><path d="M.92 13.388h1.387V8.992c0-.133.004-.266.013-.401l-1.152.986a.308.308 0 0 1-.09.051.259.259 0 0 1-.207-.013.221.221 0 0 1-.081-.07l-.252-.347 1.917-1.66h.652v5.85h1.27V14H.92v-.612zm8.33-5.486a.385.385 0 0 1-.108.282c-.072.073-.193.11-.364.11H6.752l-.296 1.692c.336-.072.646-.108.931-.108.336 0 .632.05.889.149.256.099.471.235.646.409.174.174.305.38.393.617.089.237.133.494.133.773 0 .343-.06.651-.18.928-.12.276-.284.512-.493.708a2.157 2.157 0 0 1-.736.453 2.597 2.597 0 0 1-.913.157c-.189 0-.37-.019-.545-.056a2.747 2.747 0 0 1-1.246-.623l.243-.343a.25.25 0 0 1 .216-.117c.057 0 .124.024.2.07.077.047.169.098.277.155.108.058.235.11.38.156.146.046.319.07.52.07.225 0 .427-.036.607-.109.18-.072.334-.174.462-.308.127-.133.225-.293.294-.479.07-.186.104-.394.104-.625 0-.202-.03-.383-.088-.545a1.07 1.07 0 0 0-.265-.414 1.218 1.218 0 0 0-.444-.265 1.851 1.851 0 0 0-.62-.095c-.163 0-.33.013-.505.04a3.52 3.52 0 0 0-.54.131l-.503-.149.521-3.015H9.25v.351zm1.215 5.603a.572.572 0 0 1 .16-.4.55.55 0 0 1 .398-.167.577.577 0 0 1 .4.166.572.572 0 0 1 .162.4.567.567 0 0 1-.161.401.572.572 0 0 1-.4.162.572.572 0 0 1-.221-.042.522.522 0 0 1-.178-.12.572.572 0 0 1-.16-.4zm10.021-2.727c0 .483-.076.926-.229 1.33-.153.403-.369.75-.648 1.041a2.896 2.896 0 0 1-1.006.678c-.391.16-.824.24-1.298.24-.474 0-.906-.08-1.296-.24a2.9 2.9 0 0 1-1.004-.678 3.045 3.045 0 0 1-.648-1.041 3.722 3.722 0 0 1-.229-1.33c0-.483.076-.926.23-1.33a3.07 3.07 0 0 1 .647-1.044c.28-.292.614-.52 1.004-.681.39-.163.822-.244 1.296-.244.474 0 .907.081 1.298.244.392.162.727.389 1.006.681.279.293.495.64.648 1.044.153.404.23.847.23 1.33zm-.895 0c0-.396-.054-.751-.162-1.067a2.256 2.256 0 0 0-.459-.798 1.992 1.992 0 0 0-.72-.502 2.444 2.444 0 0 0-.945-.175c-.345 0-.658.058-.94.175a2.013 2.013 0 0 0-.723.502c-.2.217-.353.483-.461.798-.108.316-.162.671-.162 1.067 0 .396.054.75.162 1.064.108.314.262.58.461.797.2.217.44.384.723.5.282.115.595.173.94.173.348 0 .663-.058.945-.174.282-.115.522-.282.72-.5.198-.217.351-.482.459-.796.108-.313.162-.668.162-1.064zm6.633 1.89a.18.18 0 0 1 .13.059l.343.373a2.759 2.759 0 0 1-.961.716c-.377.17-.83.256-1.361.256-.466 0-.887-.08-1.265-.24-.378-.161-.7-.386-.968-.676a3.051 3.051 0 0 1-.62-1.042 3.891 3.891 0 0 1-.221-1.336c0-.486.079-.931.236-1.337.158-.405.379-.752.664-1.043a2.97 2.97 0 0 1 1.024-.678c.397-.16.836-.24 1.316-.24.474 0 .883.073 1.226.22.344.147.649.346.916.599l-.284.4a.309.309 0 0 1-.072.074.198.198 0 0 1-.117.03.228.228 0 0 1-.123-.043 6.25 6.25 0 0 1-.155-.106 3.35 3.35 0 0 0-.212-.135 1.854 1.854 0 0 0-.288-.135 2.38 2.38 0 0 0-.387-.106 2.694 2.694 0 0 0-.509-.043c-.345 0-.66.06-.947.178a2.121 2.121 0 0 0-.74.506 2.303 2.303 0 0 0-.484.801 3.054 3.054 0 0 0-.173 1.058c0 .402.058.76.173 1.075.116.316.273.582.473.8.2.217.435.382.709.496.273.115.566.171.881.171.193 0 .365-.01.518-.033.153-.023.295-.058.425-.106a1.8 1.8 0 0 0 .365-.182 2.85 2.85 0 0 0 .34-.264c.05-.045.1-.067.148-.067zm6.012-5.116v.733h-2.083V14h-.873V8.285h-2.093v-.734h5.049z" id="15.-OCT"/><path id="Rectangle-790" opacity=".4" d="M15 0h1v4h-1z"/></g><g id="13.-MAY-+-Rectangle-790-Copy" transform="translate(156 180)" fill="#FFF"><path d="M2.419 7.48c.273 0 .525.038.756.116.231.079.43.19.596.333.167.145.296.318.39.522.093.205.139.431.139.68 0 .204-.026.386-.079.547-.052.16-.127.301-.225.423a1.345 1.345 0 0 1-.353.308 1.97 1.97 0 0 1-.463.202c.42.112.735.297.947.558.211.262.317.588.317.981 0 .298-.056.564-.169.801a1.802 1.802 0 0 1-.461.606 2.064 2.064 0 0 1-.682.382 2.57 2.57 0 0 1-.835.133c-.342 0-.634-.043-.877-.128a1.82 1.82 0 0 1-.616-.354 1.88 1.88 0 0 1-.415-.533 3.994 3.994 0 0 1-.274-.668l.342-.144a.476.476 0 0 1 .189-.04c.06 0 .113.012.16.038a.243.243 0 0 1 .105.119.932.932 0 0 1 .036.081c.043.087.093.185.154.295a1.249 1.249 0 0 0 .623.551c.151.066.34.099.565.099.225 0 .422-.037.591-.11.17-.074.31-.169.423-.286a1.197 1.197 0 0 0 .34-.819c0-.174-.023-.333-.07-.477a.821.821 0 0 0-.252-.373 1.297 1.297 0 0 0-.504-.248c-.214-.06-.49-.09-.826-.09v-.58c.274-.003.507-.033.7-.09.194-.058.352-.135.475-.234a.868.868 0 0 0 .268-.356 1.22 1.22 0 0 0 .083-.459c0-.186-.03-.348-.088-.486a.934.934 0 0 0-.603-.544 1.465 1.465 0 0 0-.452-.068c-.162 0-.312.024-.45.072a1.164 1.164 0 0 0-.634.506 1.433 1.433 0 0 0-.163.385.359.359 0 0 1-.107.189.283.283 0 0 1-.185.059.523.523 0 0 1-.103-.01l-.419-.072c.042-.294.123-.554.243-.78a1.861 1.861 0 0 1 1.091-.918c.239-.08.496-.12.772-.12zm3.722 5.908h1.386V8.992c0-.133.004-.266.013-.401l-1.152.986a.308.308 0 0 1-.09.051.259.259 0 0 1-.207-.013.221.221 0 0 1-.081-.07l-.252-.347 1.917-1.66h.653v5.85h1.269V14H6.14v-.612zm4.324.117a.572.572 0 0 1 .16-.4.55.55 0 0 1 .398-.167.577.577 0 0 1 .4.166.572.572 0 0 1 .162.4.567.567 0 0 1-.161.401.572.572 0 0 1-.4.162.572.572 0 0 1-.221-.042.522.522 0 0 1-.178-.12.572.572 0 0 1-.16-.4zm10.021-2.727c0 .483-.076.926-.229 1.33-.153.403-.369.75-.648 1.041a2.896 2.896 0 0 1-1.006.678c-.391.16-.824.24-1.298.24-.474 0-.906-.08-1.296-.24a2.9 2.9 0 0 1-1.004-.678 3.045 3.045 0 0 1-.648-1.041 3.722 3.722 0 0 1-.229-1.33c0-.483.076-.926.23-1.33a3.07 3.07 0 0 1 .647-1.044c.28-.292.614-.52 1.004-.681.39-.163.822-.244 1.296-.244.474 0 .907.081 1.298.244.392.162.727.389 1.006.681.279.293.495.64.648 1.044.153.404.23.847.23 1.33zm-.895 0c0-.396-.054-.751-.162-1.067a2.256 2.256 0 0 0-.459-.798 1.992 1.992 0 0 0-.72-.502 2.444 2.444 0 0 0-.945-.175c-.345 0-.658.058-.94.175a2.013 2.013 0 0 0-.723.502c-.2.217-.353.483-.461.798-.108.316-.162.671-.162 1.067 0 .396.054.75.162 1.064.108.314.262.58.461.797.2.217.44.384.723.5.282.115.595.173.94.173.348 0 .663-.058.945-.174.282-.115.522-.282.72-.5.198-.217.351-.482.459-.796.108-.313.162-.668.162-1.064zm6.633 1.89a.18.18 0 0 1 .13.059l.343.373a2.759 2.759 0 0 1-.961.716c-.377.17-.83.256-1.361.256-.466 0-.887-.08-1.265-.24-.378-.161-.7-.386-.968-.676a3.051 3.051 0 0 1-.62-1.042 3.891 3.891 0 0 1-.221-1.336c0-.486.079-.931.236-1.337.158-.405.379-.752.664-1.043a2.97 2.97 0 0 1 1.024-.678c.397-.16.836-.24 1.316-.24.474 0 .883.073 1.226.22.344.147.649.346.916.599l-.284.4a.309.309 0 0 1-.072.074.198.198 0 0 1-.117.03.228.228 0 0 1-.123-.043 6.25 6.25 0 0 1-.155-.106 3.35 3.35 0 0 0-.212-.135 1.854 1.854 0 0 0-.288-.135 2.38 2.38 0 0 0-.387-.106 2.694 2.694 0 0 0-.509-.043c-.345 0-.66.06-.947.178a2.121 2.121 0 0 0-.74.506 2.303 2.303 0 0 0-.484.801 3.054 3.054 0 0 0-.173 1.058c0 .402.058.76.173 1.075.116.316.273.582.473.8.2.217.435.382.709.496.273.115.566.171.881.171.193 0 .365-.01.518-.033.153-.023.295-.058.425-.106a1.8 1.8 0 0 0 .365-.182 2.85 2.85 0 0 0 .34-.264c.05-.045.1-.067.148-.067zm6.012-5.116v.733h-2.083V14h-.873V8.285h-2.093v-.734h5.049z" id="31.-OCT"/><path id="Rectangle-790" opacity=".4" d="M15 0h1v4h-1z"/></g><g id="13.-MAY-+-Rectangle-790-Copy-2" transform="translate(251 180)" fill="#FFF"><path d="M1.313 13.388h1.386V8.992c0-.133.004-.266.014-.401l-1.153.986a.308.308 0 0 1-.09.051.259.259 0 0 1-.206-.013.221.221 0 0 1-.081-.07L.93 9.198l1.918-1.66H3.5v5.85h1.269V14H1.313v-.612zm8.33-5.486a.385.385 0 0 1-.109.282c-.072.073-.193.11-.364.11H7.145l-.297 1.692c.336-.072.646-.108.931-.108.337 0 .633.05.89.149.256.099.471.235.645.409.174.174.305.38.394.617.088.237.133.494.133.773 0 .343-.06.651-.18.928-.12.276-.285.512-.493.708a2.157 2.157 0 0 1-.736.453 2.597 2.597 0 0 1-.913.157c-.19 0-.371-.019-.545-.056a2.747 2.747 0 0 1-1.247-.623l.244-.343a.25.25 0 0 1 .215-.117c.058 0 .124.024.2.07.077.047.17.098.277.155.109.058.235.11.38.156.146.046.32.07.52.07.226 0 .428-.036.608-.109.18-.072.334-.174.461-.308.128-.133.226-.293.295-.479.069-.186.104-.394.104-.625 0-.202-.03-.383-.088-.545a1.07 1.07 0 0 0-.266-.414 1.218 1.218 0 0 0-.443-.265 1.851 1.851 0 0 0-.621-.095c-.162 0-.33.013-.504.04a3.52 3.52 0 0 0-.54.131l-.504-.149.522-3.015h3.056v.351zm1.214 5.603a.572.572 0 0 1 .16-.4.55.55 0 0 1 .399-.167.577.577 0 0 1 .4.166.572.572 0 0 1 .162.4.567.567 0 0 1-.162.401.572.572 0 0 1-.4.162.572.572 0 0 1-.221-.042.522.522 0 0 1-.178-.12.572.572 0 0 1-.16-.4zm4.482-5.954c.079 0 .136.01.174.03.037.02.08.059.128.119l3.735 4.86a3.08 3.08 0 0 1-.018-.227 5.245 5.245 0 0 1-.005-.214V7.552h.765V14h-.44a.375.375 0 0 1-.174-.036.437.437 0 0 1-.137-.122l-3.73-4.855a5.787 5.787 0 0 1 .018.418V14h-.765V7.551h.45zm12.344 3.227c0 .483-.076.926-.23 1.33-.153.403-.368.75-.648 1.041a2.896 2.896 0 0 1-1.005.678c-.392.16-.824.24-1.299.24-.474 0-.905-.08-1.296-.24a2.9 2.9 0 0 1-1.003-.678 3.045 3.045 0 0 1-.648-1.041 3.722 3.722 0 0 1-.23-1.33c0-.483.077-.926.23-1.33a3.07 3.07 0 0 1 .648-1.044c.279-.292.613-.52 1.003-.681.39-.163.822-.244 1.297-.244.474 0 .906.081 1.298.244.391.162.726.389 1.005.681.28.293.495.64.648 1.044.154.404.23.847.23 1.33zm-.895 0c0-.396-.054-.751-.163-1.067a2.256 2.256 0 0 0-.459-.798 1.992 1.992 0 0 0-.72-.502 2.444 2.444 0 0 0-.945-.175c-.345 0-.658.058-.94.175a2.013 2.013 0 0 0-.722.502c-.2.217-.353.483-.461.798-.109.316-.163.671-.163 1.067 0 .396.054.75.163 1.064.108.314.261.58.46.797.2.217.441.384.723.5.282.115.595.173.94.173.349 0 .663-.058.945-.174.283-.115.522-.282.72-.5.199-.217.351-.482.46-.796.108-.313.162-.668.162-1.064zm1.107-3.227h.697a.29.29 0 0 1 .189.059.36.36 0 0 1 .108.148l1.823 4.55c.042.102.08.213.114.333.035.12.068.244.101.373a7.62 7.62 0 0 1 .088-.373c.032-.12.068-.231.11-.333l1.814-4.55a.377.377 0 0 1 .108-.141.281.281 0 0 1 .189-.066h.702L31.31 14h-.787l-2.628-6.449z" id="15.-NOV"/><path id="Rectangle-790" opacity=".4" d="M16 0h1v4h-1z"/></g><g id="13.-MAY-+-Rectangle-790-Copy-3" transform="translate(349 180)" fill="#FFF"><path d="M2.812 7.48c.273 0 .524.038.756.116.23.079.43.19.596.333.166.145.296.318.389.522.093.205.14.431.14.68 0 .204-.027.386-.08.547-.052.16-.127.301-.224.423a1.345 1.345 0 0 1-.354.308 1.97 1.97 0 0 1-.463.202c.42.112.736.297.947.558.212.262.317.588.317.981 0 .298-.056.564-.168.801a1.802 1.802 0 0 1-.462.606 2.064 2.064 0 0 1-.681.382 2.57 2.57 0 0 1-.835.133c-.342 0-.634-.043-.877-.128a1.82 1.82 0 0 1-.617-.354 1.88 1.88 0 0 1-.414-.533 3.994 3.994 0 0 1-.275-.668l.343-.144a.476.476 0 0 1 .189-.04c.06 0 .113.012.16.038a.243.243 0 0 1 .105.119.932.932 0 0 1 .036.081c.042.087.093.185.153.295a1.249 1.249 0 0 0 .623.551c.152.066.34.099.565.099.225 0 .422-.037.592-.11.17-.074.31-.169.423-.286a1.197 1.197 0 0 0 .34-.819c0-.174-.024-.333-.07-.477a.821.821 0 0 0-.252-.373 1.297 1.297 0 0 0-.504-.248c-.215-.06-.49-.09-.826-.09v-.58c.273-.003.506-.033.7-.09.193-.058.351-.135.474-.234a.868.868 0 0 0 .268-.356 1.22 1.22 0 0 0 .083-.459c0-.186-.029-.348-.087-.486a.934.934 0 0 0-.603-.544 1.465 1.465 0 0 0-.452-.068c-.163 0-.312.024-.45.072a1.164 1.164 0 0 0-.635.506 1.433 1.433 0 0 0-.162.385.359.359 0 0 1-.108.189.283.283 0 0 1-.184.059.523.523 0 0 1-.104-.01l-.419-.072c.043-.294.123-.554.244-.78a1.861 1.861 0 0 1 1.09-.918c.24-.08.496-.12.772-.12zm7.38 3.298c0 .564-.061 1.052-.183 1.465a3.06 3.06 0 0 1-.497 1.024c-.21.27-.458.47-.745.603a2.173 2.173 0 0 1-.92.198c-.33 0-.637-.066-.92-.198a2.008 2.008 0 0 1-.74-.603 3.03 3.03 0 0 1-.496-1.024c-.12-.413-.18-.901-.18-1.465 0-.564.06-1.053.18-1.467.12-.414.285-.757.495-1.028a2 2 0 0 1 .74-.605c.284-.133.591-.199.921-.199.327 0 .634.066.92.199.287.132.535.333.745.605.21.271.376.614.497 1.028.122.414.182.903.182 1.467zm-.833 0c0-.492-.041-.905-.124-1.24-.082-.334-.193-.603-.333-.808-.14-.204-.3-.35-.483-.438a1.297 1.297 0 0 0-1.144 0 1.241 1.241 0 0 0-.481.438c-.138.205-.248.474-.33.808-.083.335-.125.748-.125 1.24s.042.904.124 1.237c.083.334.193.602.331.806.138.204.298.35.482.439a1.297 1.297 0 0 0 1.143 0c.183-.089.344-.235.483-.439.14-.204.25-.472.333-.806.083-.333.124-.745.124-1.237zm1.498 2.727a.572.572 0 0 1 .16-.4.55.55 0 0 1 .399-.167.577.577 0 0 1 .4.166.572.572 0 0 1 .162.4.567.567 0 0 1-.162.401.572.572 0 0 1-.4.162.572.572 0 0 1-.221-.042.522.522 0 0 1-.178-.12.572.572 0 0 1-.16-.4zm4.482-5.954c.079 0 .136.01.174.03.037.02.08.059.128.119l3.735 4.86a3.08 3.08 0 0 1-.018-.227 5.245 5.245 0 0 1-.005-.214V7.552h.765V14h-.44a.375.375 0 0 1-.174-.036.437.437 0 0 1-.137-.122l-3.73-4.855a5.787 5.787 0 0 1 .018.418V14h-.765V7.551h.45zm12.344 3.227c0 .483-.076.926-.23 1.33-.153.403-.368.75-.648 1.041a2.896 2.896 0 0 1-1.005.678c-.392.16-.824.24-1.299.24-.474 0-.905-.08-1.296-.24a2.9 2.9 0 0 1-1.003-.678 3.045 3.045 0 0 1-.648-1.041 3.722 3.722 0 0 1-.23-1.33c0-.483.077-.926.23-1.33a3.07 3.07 0 0 1 .648-1.044c.279-.292.613-.52 1.003-.681.39-.163.822-.244 1.297-.244.474 0 .906.081 1.298.244.391.162.726.389 1.005.681.28.293.495.64.648 1.044.154.404.23.847.23 1.33zm-.895 0c0-.396-.054-.751-.163-1.067a2.256 2.256 0 0 0-.459-.798 1.992 1.992 0 0 0-.72-.502 2.444 2.444 0 0 0-.945-.175c-.345 0-.658.058-.94.175a2.013 2.013 0 0 0-.722.502c-.2.217-.353.483-.461.798-.109.316-.163.671-.163 1.067 0 .396.054.75.163 1.064.108.314.261.58.46.797.2.217.441.384.723.5.282.115.595.173.94.173.349 0 .663-.058.945-.174.283-.115.522-.282.72-.5.199-.217.351-.482.46-.796.108-.313.162-.668.162-1.064zm1.107-3.227h.697a.29.29 0 0 1 .189.059.36.36 0 0 1 .108.148l1.823 4.55c.042.102.08.213.114.333.035.12.068.244.101.373a7.62 7.62 0 0 1 .088-.373c.032-.12.068-.231.11-.333l1.814-4.55a.377.377 0 0 1 .108-.141.281.281 0 0 1 .189-.066h.702L31.31 14h-.787l-2.628-6.449z" id="30.-NOV"/><path id="Rectangle-790" opacity=".4" d="M16 0h1v4h-1z"/></g><g id="13.-MAY-+-Rectangle-790-Copy-4" transform="translate(447 180)" fill="#FFF"><path d="M1.163 13.388H2.55V8.992c0-.133.004-.266.013-.401l-1.152.986a.308.308 0 0 1-.09.051.259.259 0 0 1-.207-.013.221.221 0 0 1-.081-.07l-.252-.347 1.917-1.66h.652v5.85h1.27V14H1.163v-.612zm8.33-5.486a.385.385 0 0 1-.108.282c-.072.073-.193.11-.364.11H6.995L6.7 9.986c.336-.072.646-.108.931-.108.336 0 .632.05.889.149.256.099.471.235.646.409.174.174.305.38.393.617.089.237.133.494.133.773 0 .343-.06.651-.18.928-.12.276-.284.512-.493.708a2.157 2.157 0 0 1-.736.453 2.597 2.597 0 0 1-.913.157c-.189 0-.37-.019-.545-.056a2.747 2.747 0 0 1-1.246-.623l.243-.343a.25.25 0 0 1 .216-.117c.057 0 .124.024.2.07.077.047.169.098.277.155.108.058.235.11.38.156.146.046.319.07.52.07.225 0 .427-.036.607-.109.18-.072.334-.174.462-.308.127-.133.225-.293.294-.479.07-.186.104-.394.104-.625 0-.202-.03-.383-.088-.545a1.07 1.07 0 0 0-.265-.414 1.218 1.218 0 0 0-.444-.265 1.851 1.851 0 0 0-.62-.095c-.163 0-.33.013-.505.04a3.52 3.52 0 0 0-.54.131l-.503-.149.521-3.015h3.056v.351zm1.215 5.603a.572.572 0 0 1 .16-.4.55.55 0 0 1 .398-.167.577.577 0 0 1 .4.166.572.572 0 0 1 .162.4.567.567 0 0 1-.162.401.572.572 0 0 1-.4.162.572.572 0 0 1-.22-.042.522.522 0 0 1-.178-.12.572.572 0 0 1-.16-.4zm9.621-2.727c0 .483-.076.922-.23 1.319a2.924 2.924 0 0 1-.648 1.017c-.279.282-.613.5-1.003.654a3.49 3.49 0 0 1-1.296.232H14.74V7.551h2.412c.474 0 .906.078 1.296.232.39.155.724.374 1.003.657.28.284.495.623.648 1.02.154.396.23.835.23 1.318zm-.896 0c0-.396-.053-.75-.162-1.062a2.238 2.238 0 0 0-.459-.792 1.958 1.958 0 0 0-.72-.495 2.488 2.488 0 0 0-.94-.171h-1.535v5.036h1.535c.345 0 .658-.057.94-.171a1.97 1.97 0 0 0 .72-.493c.199-.215.351-.478.46-.79.108-.312.162-.666.162-1.062zm6.058-3.227v.711h-3.096v2.143H24.9v.684h-2.506v2.2h3.096V14h-3.974V7.551h3.974zm5.8 5.117a.18.18 0 0 1 .13.059l.343.373a2.759 2.759 0 0 1-.961.716c-.377.17-.83.256-1.361.256-.466 0-.887-.08-1.265-.24-.378-.161-.7-.386-.968-.676a3.051 3.051 0 0 1-.62-1.042 3.891 3.891 0 0 1-.221-1.336c0-.486.079-.931.236-1.337.158-.405.379-.752.664-1.043a2.97 2.97 0 0 1 1.024-.678c.397-.16.836-.24 1.316-.24.474 0 .883.073 1.226.22.344.147.649.346.916.599l-.284.4a.309.309 0 0 1-.072.074.198.198 0 0 1-.116.03.228.228 0 0 1-.124-.043 6.25 6.25 0 0 1-.155-.106 3.35 3.35 0 0 0-.212-.135 1.854 1.854 0 0 0-.288-.135 2.38 2.38 0 0 0-.387-.106 2.694 2.694 0 0 0-.508-.043c-.346 0-.661.06-.948.178a2.121 2.121 0 0 0-.74.506 2.303 2.303 0 0 0-.484.801 3.054 3.054 0 0 0-.173 1.058c0 .402.058.76.173 1.075.116.316.273.582.473.8.2.217.435.382.708.496.274.115.567.171.883.171.192 0 .364-.01.517-.033.153-.023.295-.058.425-.106a1.8 1.8 0 0 0 .365-.182 2.85 2.85 0 0 0 .34-.264c.05-.045.1-.067.148-.067z" id="15.-DEC"/><path id="Rectangle-790" opacity=".4" d="M15 0h1v4h-1z"/></g><g id="13.-MAY-+-Rectangle-790-Copy-5" transform="translate(542 180)" fill="#FFF"><path d="M2.662 7.48c.273 0 .525.038.756.116.231.079.43.19.596.333.167.145.296.318.39.522.093.205.139.431.139.68 0 .204-.026.386-.079.547-.052.16-.127.301-.225.423a1.345 1.345 0 0 1-.353.308 1.97 1.97 0 0 1-.464.202c.42.112.736.297.948.558.211.262.317.588.317.981 0 .298-.056.564-.169.801a1.802 1.802 0 0 1-.461.606 2.064 2.064 0 0 1-.682.382 2.57 2.57 0 0 1-.834.133c-.343 0-.635-.043-.878-.128a1.82 1.82 0 0 1-.617-.354 1.88 1.88 0 0 1-.414-.533 3.994 3.994 0 0 1-.274-.668l.342-.144a.476.476 0 0 1 .189-.04c.06 0 .113.012.16.038a.243.243 0 0 1 .106.119.932.932 0 0 1 .035.081c.043.087.093.185.153.295a1.249 1.249 0 0 0 .624.551c.151.066.34.099.564.099.226 0 .423-.037.592-.11.17-.074.31-.169.423-.286a1.197 1.197 0 0 0 .34-.819c0-.174-.023-.333-.07-.477a.821.821 0 0 0-.252-.373 1.297 1.297 0 0 0-.504-.248c-.214-.06-.49-.09-.825-.09v-.58c.273-.003.506-.033.7-.09.193-.058.351-.135.474-.234a.868.868 0 0 0 .268-.356 1.22 1.22 0 0 0 .083-.459c0-.186-.03-.348-.088-.486a.934.934 0 0 0-.603-.544 1.465 1.465 0 0 0-.452-.068c-.162 0-.312.024-.45.072a1.164 1.164 0 0 0-.634.506 1.433 1.433 0 0 0-.162.385.359.359 0 0 1-.109.189.283.283 0 0 1-.184.059.523.523 0 0 1-.104-.01l-.418-.072c.042-.294.123-.554.243-.78a1.861 1.861 0 0 1 1.091-.918c.239-.08.496-.12.772-.12zm3.721 5.908H7.77V8.992c0-.133.005-.266.014-.401l-1.152.986a.308.308 0 0 1-.09.051.259.259 0 0 1-.207-.013.221.221 0 0 1-.081-.07l-.252-.347 1.917-1.66h.652v5.85h1.27V14H6.382v-.612zm4.325.117a.572.572 0 0 1 .16-.4.55.55 0 0 1 .398-.167.577.577 0 0 1 .4.166.572.572 0 0 1 .162.4.567.567 0 0 1-.162.401.572.572 0 0 1-.4.162.572.572 0 0 1-.22-.042.522.522 0 0 1-.178-.12.572.572 0 0 1-.16-.4zm9.621-2.727c0 .483-.076.922-.23 1.319a2.924 2.924 0 0 1-.648 1.017c-.279.282-.613.5-1.003.654a3.49 3.49 0 0 1-1.296.232H14.74V7.551h2.412c.474 0 .906.078 1.296.232.39.155.724.374 1.003.657.28.284.495.623.648 1.02.154.396.23.835.23 1.318zm-.896 0c0-.396-.053-.75-.162-1.062a2.238 2.238 0 0 0-.459-.792 1.958 1.958 0 0 0-.72-.495 2.488 2.488 0 0 0-.94-.171h-1.535v5.036h1.535c.345 0 .658-.057.94-.171a1.97 1.97 0 0 0 .72-.493c.199-.215.351-.478.46-.79.108-.312.162-.666.162-1.062zm6.058-3.227v.711h-3.096v2.143H24.9v.684h-2.506v2.2h3.096V14h-3.974V7.551h3.974zm5.8 5.117a.18.18 0 0 1 .13.059l.343.373a2.759 2.759 0 0 1-.961.716c-.377.17-.83.256-1.361.256-.466 0-.887-.08-1.265-.24-.378-.161-.7-.386-.968-.676a3.051 3.051 0 0 1-.62-1.042 3.891 3.891 0 0 1-.221-1.336c0-.486.079-.931.236-1.337.158-.405.379-.752.664-1.043a2.97 2.97 0 0 1 1.024-.678c.397-.16.836-.24 1.316-.24.474 0 .883.073 1.226.22.344.147.649.346.916.599l-.284.4a.309.309 0 0 1-.072.074.198.198 0 0 1-.116.03.228.228 0 0 1-.124-.043 6.25 6.25 0 0 1-.155-.106 3.35 3.35 0 0 0-.212-.135 1.854 1.854 0 0 0-.288-.135 2.38 2.38 0 0 0-.387-.106 2.694 2.694 0 0 0-.508-.043c-.346 0-.661.06-.948.178a2.121 2.121 0 0 0-.74.506 2.303 2.303 0 0 0-.484.801 3.054 3.054 0 0 0-.173 1.058c0 .402.058.76.173 1.075.116.316.273.582.473.8.2.217.435.382.708.496.274.115.567.171.883.171.192 0 .364-.01.517-.033.153-.023.295-.058.425-.106a1.8 1.8 0 0 0 .365-.182 2.85 2.85 0 0 0 .34-.264c.05-.045.1-.067.148-.067z" id="31.-DEC"/><path id="Rectangle-790" opacity=".4" d="M15 0h1v4h-1z"/></g><g id="13.-MAY-+-Rectangle-790-Copy-6" transform="translate(639 180)" fill="#FFF"><path d="M.915 13.388h1.386V8.992c0-.133.004-.266.013-.401l-1.151.986a.308.308 0 0 1-.09.051.259.259 0 0 1-.207-.013.221.221 0 0 1-.082-.07l-.252-.347 1.917-1.66h.653v5.85h1.269V14H.915v-.612zm8.33-5.486a.385.385 0 0 1-.108.282c-.073.073-.194.11-.365.11H6.747L6.45 9.986c.336-.072.646-.108.931-.108.337 0 .633.05.89.149.256.099.471.235.645.409.174.174.305.38.394.617.088.237.133.494.133.773 0 .343-.06.651-.18.928-.12.276-.285.512-.493.708a2.157 2.157 0 0 1-.736.453 2.597 2.597 0 0 1-.914.157c-.189 0-.37-.019-.544-.056a2.747 2.747 0 0 1-1.246-.623l.242-.343a.25.25 0 0 1 .216-.117c.058 0 .124.024.2.07.077.047.17.098.277.155.109.058.235.11.38.156.146.046.32.07.52.07.226 0 .428-.036.608-.109.18-.072.334-.174.461-.308.128-.133.226-.293.295-.479.069-.186.104-.394.104-.625 0-.202-.03-.383-.088-.545a1.07 1.07 0 0 0-.266-.414 1.218 1.218 0 0 0-.443-.265 1.851 1.851 0 0 0-.621-.095c-.162 0-.33.013-.504.04a3.52 3.52 0 0 0-.54.131l-.504-.149.522-3.015h3.056v.351zm1.215 5.603a.572.572 0 0 1 .16-.4.55.55 0 0 1 .398-.167.577.577 0 0 1 .4.166.572.572 0 0 1 .162.4.567.567 0 0 1-.162.401.572.572 0 0 1-.4.162.572.572 0 0 1-.221-.042.522.522 0 0 1-.178-.12.572.572 0 0 1-.16-.4zm6.457-1.732c0 .36-.044.682-.133.967a1.959 1.959 0 0 1-.391.722 1.708 1.708 0 0 1-.637.453 2.242 2.242 0 0 1-.869.157c-.29 0-.593-.042-.909-.126a7.21 7.21 0 0 1 .023-.259l.027-.254a.202.202 0 0 1 .056-.124c.032-.031.079-.047.142-.047.054 0 .126.013.216.04.09.028.21.041.36.041.198 0 .374-.03.529-.09a.96.96 0 0 0 .391-.279c.107-.126.188-.287.243-.484.056-.196.084-.43.084-.7V7.552h.868v4.22zM23.541 14h-.675a.29.29 0 0 1-.189-.059.36.36 0 0 1-.108-.148l-.603-1.557h-2.893l-.604 1.557a.352.352 0 0 1-.108.144.287.287 0 0 1-.189.063h-.675l2.579-6.449h.886L23.541 14zm-4.226-2.394h2.408l-1.012-2.623a4.903 4.903 0 0 1-.194-.608c-.033.123-.065.236-.097.34a4.057 4.057 0 0 1-.092.272l-1.012 2.619zm5.49-4.054c.079 0 .136.01.174.029.037.02.08.059.128.119l3.735 4.86a3.08 3.08 0 0 1-.018-.227 5.245 5.245 0 0 1-.005-.214V7.552h.765V14h-.44a.375.375 0 0 1-.174-.036.437.437 0 0 1-.137-.122l-3.73-4.855a5.787 5.787 0 0 1 .017.418V14h-.765V7.551h.45z" id="15.-JAN"/><path id="Rectangle-790" opacity=".4" d="M14 0h1v4h-1z"/></g><g id="13.-MAY-+-Rectangle-790-Copy-7" transform="translate(741 180)" fill="#FFF"><path d="M2.413 7.48c.274 0 .525.038.757.116.23.079.43.19.596.333.166.145.296.318.389.522.093.205.14.431.14.68 0 .204-.027.386-.08.547-.052.16-.127.301-.224.423a1.345 1.345 0 0 1-.353.308 1.97 1.97 0 0 1-.464.202c.42.112.736.297.947.558.212.262.317.588.317.981 0 .298-.056.564-.168.801a1.802 1.802 0 0 1-.461.606 2.064 2.064 0 0 1-.682.382 2.57 2.57 0 0 1-.835.133c-.342 0-.634-.043-.877-.128a1.82 1.82 0 0 1-.617-.354 1.88 1.88 0 0 1-.414-.533 3.994 3.994 0 0 1-.275-.668l.343-.144a.476.476 0 0 1 .188-.04c.06 0 .114.012.16.038a.243.243 0 0 1 .106.119.932.932 0 0 1 .036.081c.042.087.093.185.153.295a1.249 1.249 0 0 0 .623.551c.152.066.34.099.565.099.225 0 .422-.037.592-.11.17-.074.31-.169.423-.286a1.197 1.197 0 0 0 .34-.819c0-.174-.024-.333-.07-.477a.821.821 0 0 0-.252-.373 1.297 1.297 0 0 0-.504-.248c-.215-.06-.49-.09-.826-.09v-.58c.273-.003.506-.033.7-.09.193-.058.351-.135.474-.234a.868.868 0 0 0 .268-.356 1.22 1.22 0 0 0 .083-.459c0-.186-.029-.348-.087-.486a.934.934 0 0 0-.603-.544 1.465 1.465 0 0 0-.453-.068c-.162 0-.311.024-.45.072a1.164 1.164 0 0 0-.635.506 1.433 1.433 0 0 0-.161.385.359.359 0 0 1-.108.189.283.283 0 0 1-.184.059.523.523 0 0 1-.104-.01l-.418-.072c.042-.294.122-.554.242-.78a1.861 1.861 0 0 1 1.092-.918c.238-.08.495-.12.772-.12zm7.38 3.298c0 .564-.06 1.052-.182 1.465a3.06 3.06 0 0 1-.497 1.024c-.21.27-.458.47-.745.603a2.173 2.173 0 0 1-.92.198c-.33 0-.637-.066-.92-.198a2.008 2.008 0 0 1-.74-.603 3.03 3.03 0 0 1-.495-1.024c-.12-.413-.18-.901-.18-1.465 0-.564.06-1.053.18-1.467.12-.414.284-.757.495-1.028a2 2 0 0 1 .74-.605c.283-.133.59-.199.92-.199.327 0 .634.066.92.199.287.132.535.333.745.605.21.271.376.614.497 1.028.122.414.182.903.182 1.467zm-.832 0c0-.492-.041-.905-.124-1.24-.082-.334-.193-.603-.333-.808-.14-.204-.3-.35-.483-.438a1.297 1.297 0 0 0-1.144 0 1.241 1.241 0 0 0-.481.438c-.138.205-.248.474-.33.808-.083.335-.125.748-.125 1.24s.042.904.124 1.237c.083.334.193.602.331.806.138.204.298.35.482.439a1.297 1.297 0 0 0 1.143 0c.183-.089.344-.235.483-.439.14-.204.25-.472.333-.806.083-.333.124-.745.124-1.237zm1.498 2.727a.572.572 0 0 1 .16-.4.55.55 0 0 1 .399-.167.577.577 0 0 1 .4.166.572.572 0 0 1 .162.4.567.567 0 0 1-.162.401.572.572 0 0 1-.4.162.572.572 0 0 1-.221-.042.522.522 0 0 1-.178-.12.572.572 0 0 1-.16-.4zm6.458-1.732c0 .36-.044.682-.133.967a1.959 1.959 0 0 1-.391.722 1.708 1.708 0 0 1-.637.453 2.242 2.242 0 0 1-.869.157c-.29 0-.593-.042-.909-.126a7.21 7.21 0 0 1 .023-.259l.027-.254a.202.202 0 0 1 .056-.124c.032-.031.079-.047.142-.047.054 0 .126.013.216.04.09.028.21.041.36.041.198 0 .374-.03.529-.09a.96.96 0 0 0 .391-.279c.107-.126.188-.287.243-.484.056-.196.084-.43.084-.7V7.552h.868v4.22zM23.541 14h-.675a.29.29 0 0 1-.189-.059.36.36 0 0 1-.108-.148l-.603-1.557h-2.893l-.604 1.557a.352.352 0 0 1-.108.144.287.287 0 0 1-.189.063h-.675l2.579-6.449h.886L23.541 14zm-4.226-2.394h2.408l-1.012-2.623a4.903 4.903 0 0 1-.194-.608c-.033.123-.065.236-.097.34a4.057 4.057 0 0 1-.092.272l-1.012 2.619zm5.49-4.054c.079 0 .136.01.174.029.037.02.08.059.128.119l3.735 4.86a3.08 3.08 0 0 1-.018-.227 5.245 5.245 0 0 1-.005-.214V7.552h.765V14h-.44a.375.375 0 0 1-.174-.036.437.437 0 0 1-.137-.122l-3.73-4.855a5.787 5.787 0 0 1 .017.418V14h-.765V7.551h.45z" id="30.-JAN"/><path id="Rectangle-790" opacity=".4" d="M14 0h1v4h-1z"/></g></g><g id="Rectangle-779-+-105-Copy-2" transform="translate(0 153)"><path id="Rectangle-779" fill="#D8D8D8" opacity=".1" d="M0 13h840v1H0z"/><path d="M16.686 4.354c-.243 0-.473-.04-.69-.122a1.661 1.661 0 0 1-.968-.938 2.004 2.004 0 0 1-.146-.79c0-.282.052-.545.158-.792.105-.246.251-.46.44-.643.19-.183.414-.327.675-.432.262-.105.548-.158.86-.158.309 0 .59.051.841.153.253.103.468.245.648.428s.32.402.417.657c.097.255.146.537.146.846a2.602 2.602 0 0 1-.203 1.017 3.993 3.993 0 0 1-.236.475c-.091.157-.195.32-.313.488l-1.57 2.268a.411.411 0 0 1-.167.137.566.566 0 0 1-.247.052h-.738l1.962-2.57.184-.247c.058-.078.111-.156.162-.234a1.793 1.793 0 0 1-.558.301 2.064 2.064 0 0 1-.657.104zm1.611-1.885c0-.202-.032-.384-.096-.547a1.17 1.17 0 0 0-.675-.68 1.417 1.417 0 0 0-.52-.092c-.198 0-.379.032-.542.097a1.176 1.176 0 0 0-.686.677 1.405 1.405 0 0 0-.095.522c0 .204.03.386.088.547a1.06 1.06 0 0 0 .652.66c.158.056.334.084.529.084.216 0 .407-.035.574-.105a1.205 1.205 0 0 0 .682-.686c.06-.154.09-.312.09-.478zM22.14.479c.274 0 .528.041.765.122.238.081.442.199.615.353.172.155.308.343.407.565.099.222.149.474.149.756 0 .24-.036.462-.108.666-.073.204-.17.4-.293.587a4.313 4.313 0 0 1-.425.545c-.16.175-.331.354-.511.537l-1.697 1.737c.12-.033.242-.059.365-.078.123-.02.241-.03.355-.03h2.16a.28.28 0 0 1 .207.077.268.268 0 0 1 .077.198V7h-4.302v-.274a.498.498 0 0 1 .144-.343l2.066-2.074c.17-.174.326-.341.467-.502.142-.16.262-.321.363-.483.1-.163.177-.327.232-.493.054-.167.08-.344.08-.534 0-.189-.03-.354-.09-.497a.962.962 0 0 0-.616-.562 1.443 1.443 0 0 0-.454-.07c-.163 0-.312.024-.45.072a1.22 1.22 0 0 0-.637.504 1.185 1.185 0 0 0-.155.387.359.359 0 0 1-.108.189.29.29 0 0 1-.19.058.523.523 0 0 1-.103-.009l-.418-.072c.042-.294.122-.554.242-.78A1.861 1.861 0 0 1 21.37.599c.238-.08.495-.12.771-.12zm2.912 6.026a.572.572 0 0 1 .16-.4.55.55 0 0 1 .398-.167.577.577 0 0 1 .4.167.572.572 0 0 1 .162.4.567.567 0 0 1-.162.4.572.572 0 0 1-.4.162.572.572 0 0 1-.22-.042.522.522 0 0 1-.178-.12.572.572 0 0 1-.16-.4zM30.965.902a.385.385 0 0 1-.108.282c-.072.073-.193.11-.364.11h-2.025l-.297 1.692c.336-.072.646-.108.931-.108.336 0 .632.05.889.148.256.1.471.236.646.41.174.174.305.38.393.617.089.237.133.494.133.774 0 .342-.06.65-.18.926-.12.277-.284.513-.493.71a2.157 2.157 0 0 1-.735.452 2.597 2.597 0 0 1-.914.157c-.189 0-.37-.019-.544-.056a2.747 2.747 0 0 1-1.247-.623l.243-.342a.25.25 0 0 1 .216-.117c.057 0 .124.023.2.07.077.046.169.097.277.155.108.057.235.108.38.155.146.046.319.07.52.07.225 0 .427-.036.608-.109.18-.072.333-.174.46-.308.128-.133.226-.293.296-.479.069-.186.103-.394.103-.626 0-.2-.03-.382-.088-.544A1.07 1.07 0 0 0 30 3.904a1.218 1.218 0 0 0-.444-.265 1.851 1.851 0 0 0-.62-.095c-.163 0-.33.013-.505.04a3.52 3.52 0 0 0-.54.131l-.503-.148.521-3.016h3.056v.351z" id="92.5" fill="#FFF"/></g><g id="Rectangle-779-+-105-Copy-3" transform="translate(0 209)"><path id="Rectangle-779" fill="#D8D8D8" opacity=".1" d="M0 13h840v1H0z"/><path d="M17.75 4.354c-.243 0-.473-.04-.69-.122a1.661 1.661 0 0 1-.968-.938 2.004 2.004 0 0 1-.146-.79c0-.282.052-.545.158-.792.105-.246.251-.46.44-.643.19-.183.414-.327.675-.432.262-.105.548-.158.86-.158.309 0 .59.051.841.153.253.103.468.245.648.428s.32.402.417.657c.097.255.146.537.146.846a2.602 2.602 0 0 1-.203 1.017 3.993 3.993 0 0 1-.236.475c-.091.157-.195.32-.313.488l-1.57 2.268a.411.411 0 0 1-.167.137.566.566 0 0 1-.247.052h-.738l1.962-2.57.184-.247c.058-.078.111-.156.162-.234a1.793 1.793 0 0 1-.558.301 2.064 2.064 0 0 1-.657.104zm1.611-1.885c0-.202-.032-.384-.096-.547a1.17 1.17 0 0 0-.675-.68 1.417 1.417 0 0 0-.52-.092c-.198 0-.379.032-.542.097a1.176 1.176 0 0 0-.686.677 1.405 1.405 0 0 0-.095.522c0 .204.03.386.088.547a1.06 1.06 0 0 0 .652.66c.158.056.334.084.529.084.216 0 .407-.035.574-.105a1.205 1.205 0 0 0 .682-.686c.06-.154.09-.312.09-.478zm6.089 1.309c0 .564-.06 1.052-.182 1.465a3.06 3.06 0 0 1-.498 1.023c-.21.27-.458.471-.744.604a2.173 2.173 0 0 1-.92.197c-.33 0-.637-.065-.92-.197a2.008 2.008 0 0 1-.741-.604 3.03 3.03 0 0 1-.495-1.023c-.12-.413-.18-.901-.18-1.465 0-.564.06-1.053.18-1.467.12-.414.285-.757.495-1.028a2 2 0 0 1 .74-.605c.284-.133.59-.199.92-.199.328 0 .634.066.92.199.287.132.535.333.745.605.21.271.376.614.498 1.028.121.414.182.903.182 1.467zm-.832 0c0-.492-.042-.905-.124-1.24-.083-.334-.194-.603-.333-.807-.14-.205-.301-.35-.484-.44a1.297 1.297 0 0 0-1.143 0 1.241 1.241 0 0 0-.482.44c-.138.204-.248.473-.33.807-.083.335-.124.748-.124 1.24s.041.904.124 1.238c.082.333.192.601.33.805.139.204.299.35.482.439a1.297 1.297 0 0 0 1.143 0c.183-.089.344-.235.484-.439.14-.204.25-.472.333-.805.082-.334.123-.746.123-1.238z" id="90" fill="#FFF"/></g><g id="Rectangle-779-+-105-Copy-4" transform="translate(0 264)"><path id="Rectangle-779" fill="#D8D8D8" opacity=".1" d="M0 13h840v1H0z"/><path d="M16.822 7.072a2.88 2.88 0 0 1-.882-.128 2.043 2.043 0 0 1-.689-.367 1.634 1.634 0 0 1-.445-.578 1.792 1.792 0 0 1-.158-.763c0-.414.108-.755.324-1.024.216-.268.525-.46.927-.573-.339-.127-.595-.315-.767-.565a1.544 1.544 0 0 1-.259-.898A1.606 1.606 0 0 1 15.409.97c.17-.153.375-.273.614-.36.238-.087.504-.13.799-.13.29 0 .556.043.796.13.24.087.445.207.617.36a1.594 1.594 0 0 1 .535 1.206c0 .348-.087.647-.261.898-.174.25-.429.438-.765.565.402.114.711.305.927.573.216.269.324.61.324 1.024 0 .282-.053.536-.16.763-.106.226-.255.419-.445.578-.19.159-.42.281-.687.367a2.88 2.88 0 0 1-.881.128zm0-.639c.21 0 .398-.03.564-.088.167-.058.308-.14.423-.247a1.07 1.07 0 0 0 .266-.383c.061-.148.092-.312.092-.492 0-.223-.037-.412-.11-.57a1.048 1.048 0 0 0-.297-.384 1.226 1.226 0 0 0-.43-.219 1.834 1.834 0 0 0-.508-.07c-.178 0-.347.024-.509.07-.162.047-.305.12-.43.219a1.048 1.048 0 0 0-.297.384c-.073.158-.11.347-.11.57 0 .18.03.344.092.492.062.149.15.276.266.383.115.106.256.189.423.247.166.059.354.088.564.088zm0-3.096c.21 0 .389-.032.537-.097.149-.064.27-.15.362-.256a.988.988 0 0 0 .203-.367 1.46 1.46 0 0 0 .063-.428c0-.15-.025-.29-.074-.423a.977.977 0 0 0-.585-.58 1.382 1.382 0 0 0-.506-.085c-.193 0-.361.028-.507.085a.977.977 0 0 0-.585.58c-.05.133-.074.273-.074.423 0 .148.021.29.063.428.042.138.11.26.203.367.093.106.213.192.362.256.148.065.327.097.538.097zM24.314.551v.36a.793.793 0 0 1-.104.419l-2.668 5.386a.597.597 0 0 1-.162.2.432.432 0 0 1-.279.084h-.572l2.71-5.319c.039-.075.078-.144.119-.207.04-.063.086-.123.137-.18h-3.366a.19.19 0 0 1-.137-.06.19.19 0 0 1-.061-.138V.551h4.383zm.738 5.954a.572.572 0 0 1 .16-.4.55.55 0 0 1 .398-.167.577.577 0 0 1 .4.167.572.572 0 0 1 .162.4.567.567 0 0 1-.162.4.572.572 0 0 1-.4.162.572.572 0 0 1-.22-.042.522.522 0 0 1-.178-.12.572.572 0 0 1-.16-.4zM30.965.902a.385.385 0 0 1-.108.282c-.072.073-.193.11-.364.11h-2.025l-.297 1.692c.336-.072.646-.108.931-.108.336 0 .632.05.889.148.256.1.471.236.646.41.174.174.305.38.393.617.089.237.133.494.133.774 0 .342-.06.65-.18.926-.12.277-.284.513-.493.71a2.157 2.157 0 0 1-.735.452 2.597 2.597 0 0 1-.914.157c-.189 0-.37-.019-.544-.056a2.747 2.747 0 0 1-1.247-.623l.243-.342a.25.25 0 0 1 .216-.117c.057 0 .124.023.2.07.077.046.169.097.277.155.108.057.235.108.38.155.146.046.319.07.52.07.225 0 .427-.036.608-.109.18-.072.333-.174.46-.308.128-.133.226-.293.296-.479.069-.186.103-.394.103-.626 0-.2-.03-.382-.088-.544A1.07 1.07 0 0 0 30 3.904a1.218 1.218 0 0 0-.444-.265 1.851 1.851 0 0 0-.62-.095c-.163 0-.33.013-.505.04a3.52 3.52 0 0 0-.54.131l-.503-.148.521-3.016h3.056v.351z" id="87.5" fill="#FFF"/></g><path id="Rectangle-799" fill="#FFF" opacity=".1" d="M416 56h1v221h-1z"/><path d="M31 131.83l4.42.215 4.578-.643 4.893-2.893 5.84-2.678 5.841-4.179 6.156-2.785 5.525-3.322 4.42-3.214 2.842-1.071 7.103-.429 5.367-.214 4.42-1.071 3.946-3.643 1.894-2.893 3.315-2.357 4.578-.643 5.21-1.5 7.26-1.285 6.315-.75 24.94-.643 8.525.433 10.102-1.072 7.735-4.607 5.21-3 3.472-2.464 3.157-.535.79 9.428.946 12.535.79 12 .315 12.856 1.263 28.07 1.105 5.036.316 4.607.467 14.57.947 30.535v6.857l2.052 6.321 1.105 10.178 2.368 8.036 2.052 6.535 1.105 4.071 1.579 3.207 2.525 2.571 3.315-.643 5.683-1.071 5.367-1.5 4.893-.429 4.736-.321 4.894.321 5.05.643 5.684-1.393 3.946-1.928 4.893-4.5 6.472-5.464 3.473-2.036 5.683-.214 6.63-1.928 5.05-.965 9.946-.214 7.419-.536 5.525-1.392 5.367-2.25 4.104-4.929 4.42-3.535 5.367.428 4.577-1.607 5.999-3.857 5.84-1.071 13.418.107 6.63-1.821 5.051-.858 3.789-1.392 4.104-2.893 4.262-3.643 7.892-.75 9.156-.107 9.945-.214h6.945l5.052-3.107 3.946-2.786 4.893-1.393 5.367-.535 4.578-3.536 4.262-2.571 5.367-.536 6.472-4.285 3.946-3.008 4.42-1.286 5.683-1.071 5.998-.857 7.893-.536 4.736-1.179 4.577-3.32 6.946-3.215 8.05-1.929 4.736-.964 7.42-3.214 5.366-1.714 6.946-1.822 4.893-2.57 7.42-1.715 10.26-1.607 8.524-1.179 7.735-2.142 6.63-4.072 6.156-4.178 3.157-5.143 3.63-6.535 6.472-11.357 3.473-5.25 3.946-3.535 6.472-3.75 5.052-2.464 6.945-.643 9.156-.643 7.419-2.357 5.998-1.179 5.683-.214 4.736-2.893 7.734-2.785 5.21-.857 5.05-3.964 4.894-2.786 6.946-2.25 8.84-2.464 4.262-.75 6.787-.429 5.367-3 3.789-2.892 5.998-4.607 5.525-1.179 11.366-.428 4.893-.322 5.998-3.107 5.841-2.785 4.262-.857 14.838-.108 15.628.215 7.26-1.072L807 64" id="Path-1" stroke="#5093E1" stroke-width="2" stroke-linecap="round" stroke-linejoin="round"/><g id="overlay" transform="translate(405 193)"><rect id="Rectangle-800" fill="#FFF" width="99" height="38" rx="3"/><circle id="Oval-96" fill="#5093E1" cx="12" cy="14" r="4"/><path d="M28.065 10.916c0 .62.168 1.099.504 1.435.336.336.803.504 1.4.504.322 0 .607-.052.854-.158.247-.105.456-.244.627-.42.17-.175.3-.377.388-.608.089-.232.133-.473.133-.725 0-.303-.048-.577-.143-.823a1.762 1.762 0 0 0-.403-.623 1.768 1.768 0 0 0-.613-.391 2.15 2.15 0 0 0-.78-.137c-.294 0-.562.048-.805.143-.243.096-.45.23-.623.403a1.777 1.777 0 0 0-.399.616c-.093.238-.14.5-.14.784zm2.758 3.108c.182-.238.352-.471.511-.7a2.755 2.755 0 0 1-.843.434 3.27 3.27 0 0 1-.991.147c-.369 0-.722-.063-1.06-.189a2.621 2.621 0 0 1-.896-.556 2.685 2.685 0 0 1-.62-.907 3.121 3.121 0 0 1-.231-1.239c0-.439.082-.852.245-1.239.163-.387.393-.724.69-1.011a3.247 3.247 0 0 1 1.064-.68 3.625 3.625 0 0 1 1.361-.248c.49 0 .934.08 1.334.238.399.159.738.381 1.018.668.28.288.497.632.651 1.033.154.401.231.842.231 1.323a4.24 4.24 0 0 1-.312 1.617c-.1.252-.221.5-.364.745a9.92 9.92 0 0 1-.486.753l-2.415 3.465a.727.727 0 0 1-.284.231.95.95 0 0 1-.423.091H27.75l3.073-3.976zm11.011-1.05c0 .877-.094 1.638-.284 2.282-.189.644-.447 1.177-.776 1.6a3.124 3.124 0 0 1-1.163.941 3.396 3.396 0 0 1-1.438.308c-.513 0-.993-.103-1.439-.308a3.095 3.095 0 0 1-1.158-.942c-.327-.422-.583-.955-.77-1.599-.187-.644-.28-1.405-.28-2.282s.093-1.64.28-2.286c.187-.646.443-1.18.77-1.603a3.095 3.095 0 0 1 1.158-.941 3.396 3.396 0 0 1 1.439-.308c.513 0 .993.103 1.438.308.446.205.833.52 1.163.941.329.423.587.957.776 1.603.19.647.284 1.409.284 2.286zm-1.414 0c0-.756-.062-1.388-.186-1.897-.123-.509-.289-.918-.497-1.229-.207-.31-.446-.53-.717-.661a1.925 1.925 0 0 0-1.694 0c-.27.13-.51.351-.718.662-.207.31-.372.72-.493 1.228-.121.509-.182 1.141-.182 1.897s.06 1.388.182 1.897c.121.509.286.917.493 1.225.208.308.447.527.718.658a1.925 1.925 0 0 0 1.694 0c.27-.13.51-.35.717-.658.208-.308.374-.716.497-1.225.124-.509.186-1.141.186-1.897zm2.555 4.207a.919.919 0 0 1 1.274-.85.95.95 0 0 1 .493.493.88.88 0 0 1 .074.357c0 .13-.024.252-.074.364a.95.95 0 0 1-.199.294.902.902 0 0 1-.651.266.937.937 0 0 1-.364-.07.863.863 0 0 1-.29-.196.93.93 0 0 1-.263-.658zm6.615-.21c.322 0 .614-.052.875-.157.261-.106.485-.249.672-.431.187-.182.331-.399.434-.651a2.15 2.15 0 0 0 .154-.819c0-.322-.05-.61-.15-.864a1.85 1.85 0 0 0-.42-.648 1.797 1.797 0 0 0-.648-.406 2.403 2.403 0 0 0-.84-.14 2.19 2.19 0 0 0-.868.165c-.257.11-.476.256-.658.44-.182.185-.322.4-.42.648a2.09 2.09 0 0 0-.147.777c0 .308.044.59.133.847.089.257.22.476.392.658.173.182.384.324.634.427.25.103.535.154.857.154zm-.644-5.285c-.08.103-.157.202-.234.297-.078.096-.151.19-.221.284a2.81 2.81 0 0 1 .745-.336c.274-.08.569-.119.886-.119.397 0 .775.065 1.134.196a2.685 2.685 0 0 1 1.596 1.512c.159.373.238.803.238 1.288 0 .462-.084.895-.252 1.299a3.109 3.109 0 0 1-.71 1.05 3.34 3.34 0 0 1-1.096.7c-.425.17-.896.255-1.414.255a3.75 3.75 0 0 1-1.39-.245 2.973 2.973 0 0 1-1.056-.697 3.096 3.096 0 0 1-.676-1.092 4.063 4.063 0 0 1-.238-1.424c0-.448.097-.92.29-1.418.194-.497.501-1.027.921-1.592l2.513-3.367a.813.813 0 0 1 .294-.234.958.958 0 0 1 .434-.095h1.218l-2.982 3.738z" id="90.6" fill="#445661"/><path d="M29.575 26.171c.315 0 .614.052.896.157.283.104.53.256.743.456.213.2.381.446.506.737.125.292.187.624.187.998 0 .364-.066.7-.198 1.013a2.474 2.474 0 0 1-.553.814 2.55 2.55 0 0 1-.855.544c-.334.132-.7.198-1.1.198a2.91 2.91 0 0 1-1.075-.19 2.324 2.324 0 0 1-.823-.539 2.374 2.374 0 0 1-.525-.847 3.19 3.19 0 0 1-.184-1.114c0-.344.077-.71.231-1.1.154-.388.398-.806.732-1.253l1.996-2.69a.613.613 0 0 1 .214-.168.692.692 0 0 1 .314-.069h.869l-2.733 3.46c.187-.128.394-.228.621-.3.227-.071.473-.107.737-.107zm-2.035 2.398c0 .253.037.484.11.693a1.441 1.441 0 0 0 .839.888c.203.083.435.124.695.124.265 0 .503-.042.715-.127a1.556 1.556 0 0 0 .9-.886c.082-.204.123-.428.123-.67 0-.257-.04-.489-.12-.696a1.492 1.492 0 0 0-.341-.528 1.48 1.48 0 0 0-.528-.332 1.913 1.913 0 0 0-.677-.116 1.82 1.82 0 0 0-.715.135 1.576 1.576 0 0 0-.883.891c-.079.2-.118.408-.118.624zm5.324 1.826a.699.699 0 0 1 .195-.49.673.673 0 0 1 .487-.203.706.706 0 0 1 .49.203.699.699 0 0 1 .198.49.676.676 0 0 1-.688.688.699.699 0 0 1-.27-.053.638.638 0 0 1-.217-.146.7.7 0 0 1-.195-.489zm11.759-3.333c0 .59-.093 1.127-.28 1.611a3.574 3.574 0 0 1-.793 1.244c-.34.344-.75.61-1.226.8A4.266 4.266 0 0 1 40.74 31h-2.948v-7.881h2.948c.58 0 1.107.094 1.584.283.477.189.885.456 1.227.803.34.346.604.761.791 1.246.188.484.281 1.02.281 1.611zm-1.094 0c0-.484-.066-.917-.199-1.298a2.736 2.736 0 0 0-.56-.968 2.393 2.393 0 0 0-.88-.605 3.041 3.041 0 0 0-1.15-.209h-1.876v6.155h1.876c.422 0 .805-.07 1.15-.21.344-.139.637-.34.88-.602.242-.262.428-.584.56-.965.133-.381.199-.814.199-1.298zm4.597-1.722c.334 0 .642.056.925.168a2.074 2.074 0 0 1 1.212 1.265c.116.31.174.663.174 1.059 0 .154-.017.257-.05.308-.033.051-.095.077-.187.077h-3.707c.007.352.055.658.143.919.088.26.209.477.363.651.154.174.337.305.55.39.213.087.451.13.715.13.246 0 .457-.028.635-.085a3.022 3.022 0 0 0 .781-.369.427.427 0 0 1 .223-.085c.08 0 .143.031.187.093l.275.358a1.86 1.86 0 0 1-.434.382c-.17.108-.35.197-.542.267a3.645 3.645 0 0 1-1.207.209c-.386 0-.74-.065-1.065-.195a2.336 2.336 0 0 1-.841-.572 2.624 2.624 0 0 1-.553-.932 3.79 3.79 0 0 1-.198-1.276c0-.39.06-.752.179-1.09.119-.337.29-.63.514-.877.224-.247.497-.442.82-.583a2.69 2.69 0 0 1 1.089-.212zm.023.721c-.474 0-.846.137-1.117.41-.271.273-.44.651-.506 1.136h3.03c0-.228-.03-.436-.093-.625a1.391 1.391 0 0 0-.275-.49 1.23 1.23 0 0 0-.443-.318 1.493 1.493 0 0 0-.596-.113zm7.337.358a.437.437 0 0 1-.088.093.208.208 0 0 1-.127.033.314.314 0 0 1-.179-.069 2.605 2.605 0 0 0-.245-.151 1.7 1.7 0 0 0-.88-.22c-.27 0-.511.049-.72.146a1.397 1.397 0 0 0-.525.42 1.904 1.904 0 0 0-.32.666c-.07.26-.107.552-.107.875 0 .337.039.637.116.899.077.262.185.482.325.66.139.178.308.313.508.407.2.093.425.14.674.14.238 0 .434-.028.589-.085.154-.057.282-.12.385-.19.102-.07.186-.133.252-.19a.305.305 0 0 1 .199-.085c.084 0 .146.031.186.093l.275.358a2.117 2.117 0 0 1-.907.652 3.218 3.218 0 0 1-1.15.206c-.348 0-.671-.064-.97-.193a2.213 2.213 0 0 1-.779-.558 2.649 2.649 0 0 1-.52-.899 3.615 3.615 0 0 1-.189-1.215c0-.415.058-.798.173-1.15.116-.352.284-.655.506-.91.222-.255.496-.454.822-.597.327-.143.7-.215 1.123-.215.388 0 .733.064 1.034.19.3.127.566.305.797.537l-.258.352zm5.962-3.389c.333 0 .645.05.934.149.29.099.54.243.751.432.211.189.377.419.498.69.121.271.181.58.181.924 0 .293-.043.565-.131.814a3.32 3.32 0 0 1-.358.718c-.15.229-.324.45-.52.665-.196.215-.404.434-.624.657l-2.074 2.123a4.1 4.1 0 0 1 .446-.096c.15-.024.295-.036.434-.036h2.64c.107 0 .191.032.254.094a.327.327 0 0 1 .093.242V31h-5.258v-.335a.572.572 0 0 1 .176-.418l2.524-2.536c.21-.213.4-.417.572-.613a4.47 4.47 0 0 0 .443-.591c.123-.199.217-.4.283-.603a2.1 2.1 0 0 0 .1-.651c0-.232-.037-.434-.11-.608a1.176 1.176 0 0 0-.754-.688 1.763 1.763 0 0 0-.556-.085c-.198 0-.38.03-.55.088a1.486 1.486 0 0 0-.968 1.089.438.438 0 0 1-.131.231.355.355 0 0 1-.232.072.639.639 0 0 1-.126-.012l-.511-.087c.05-.36.15-.678.296-.955a2.275 2.275 0 0 1 1.334-1.122c.292-.097.606-.145.944-.145zm9.124 4.032c0 .69-.074 1.286-.223 1.79-.148.504-.35.921-.608 1.252-.256.33-.56.575-.91.736-.35.162-.725.242-1.124.242-.404 0-.779-.08-1.125-.242a2.455 2.455 0 0 1-.905-.736c-.257-.33-.458-.748-.605-1.252-.147-.504-.22-1.1-.22-1.79s.073-1.287.22-1.793c.147-.506.348-.925.605-1.257.257-.332.558-.578.905-.74a2.632 2.632 0 0 1 1.125-.241c.4 0 .774.08 1.124.242.35.16.654.407.91.74.257.331.46.75.608 1.256.149.506.223 1.104.223 1.793zm-1.017 0c0-.601-.05-1.106-.152-1.515-.1-.41-.236-.738-.407-.988a1.536 1.536 0 0 0-.591-.536 1.586 1.586 0 0 0-1.397 0c-.224.108-.42.287-.588.537-.17.249-.304.578-.405.987-.1.409-.151.914-.151 1.515 0 .601.05 1.105.151 1.512.101.408.236.736.404.985.17.25.365.428.589.536a1.586 1.586 0 0 0 1.397 0c.224-.108.42-.287.591-.536.17-.25.306-.577.407-.985.101-.407.151-.91.151-1.512zm2.925 3.19h1.694v-5.373c0-.162.006-.325.017-.49l-1.408 1.204a.377.377 0 0 1-.11.064.316.316 0 0 1-.253-.017.27.27 0 0 1-.099-.085l-.308-.424 2.343-2.029h.797v7.15h1.551V31h-4.223v-.748zm10.181-6.704a.47.47 0 0 1-.132.343c-.088.09-.236.135-.445.135h-2.475l-.363 2.068a5.46 5.46 0 0 1 1.138-.132c.41 0 .773.06 1.086.181.314.122.577.288.79.501.212.213.373.464.48.754.109.29.163.604.163.945 0 .419-.073.796-.22 1.134a2.598 2.598 0 0 1-.602.866c-.255.24-.555.424-.9.552a3.175 3.175 0 0 1-1.116.193c-.231 0-.453-.023-.665-.069a3.358 3.358 0 0 1-1.106-.448 2.957 2.957 0 0 1-.418-.314l.297-.418a.306.306 0 0 1 .264-.142.49.49 0 0 1 .245.085c.093.057.206.12.338.19.132.07.287.132.465.19.178.056.39.085.635.085.275 0 .522-.044.742-.133a1.58 1.58 0 0 0 .564-.376c.156-.163.276-.359.36-.586.085-.227.127-.482.127-.765a1.95 1.95 0 0 0-.107-.665 1.307 1.307 0 0 0-.325-.506 1.489 1.489 0 0 0-.541-.325 2.263 2.263 0 0 0-.76-.115c-.198 0-.403.016-.616.05a4.301 4.301 0 0 0-.66.159l-.615-.181.638-3.685h3.734v.428z" id="6.-Dec-2015" fill="#999"/></g></g></g></g></g></svg>