<svg width="32" height="32" viewBox="0 0 32 32" xmlns="http://www.w3.org/2000/svg"><title>Group 13</title><g id="Page-1" fill="none" fill-rule="evenodd"><g id="DASHBOARD-2" transform="translate(-1116 -655)"><g id="ARQIVA-RIGHT-SIDE" transform="translate(933 102)"><g id="SUPPORT-CONTACTS" transform="translate(164 489)"><g id="Group-Copy-17" transform="translate(19 64)"><g id="Group-13"><circle id="Oval-81" fill="#4D5368" cx="16" cy="16" r="16"/><path d="M10.918 19.859h4.34V21H9.56V10.969h1.358v8.89zm6.629.189h2.156v-6.839c0-.205.007-.413.021-.623l-1.792 1.533a.48.48 0 0 1-.14.08.403.403 0 0 1-.322-.02.344.344 0 0 1-.126-.109l-.392-.539 2.982-2.583h1.015v9.1h1.974V21h-5.376v-.952z" id="L1" fill="#FFF"/></g></g></g></g></g></g></svg>