<svg width="174" height="174" viewBox="0 0 174 174" xmlns="http://www.w3.org/2000/svg"><title>Graph</title><g id="Page-1" fill="none" fill-rule="evenodd"><g id="DASHBOARD-2" transform="translate(-245 -1286)"><g id="ASSET-TRACKING-OVERVIEW" transform="translate(218 1225)"><g id="Graph" transform="translate(23 61)"><path d="M46.943 11.964C21.246 27.084 4 55.028 4 87c0 33.767 19.237 63.04 47.35 77.46l16.349-32.976c-15.536-8.473-26.077-24.953-26.077-43.896 0-17.545 9.042-32.977 22.72-41.892l-17.4-33.732z" id="Combined-Shape" fill="#8E99C3"/><path d="M72.163 41.538L61.7 5.057a86.593 86.593 0 0 0-14.831 6.95l17.25 33.836a49.841 49.841 0 0 1 8.043-4.305z" id="Combined-Shape" fill="#FF004C"/><path d="M72.356 89.359h2.025v2.349c0 .207-.07.387-.21.54-.139.153-.339.23-.6.23h-1.215V97h-3.645v-4.522H60.8c-.261 0-.497-.081-.709-.243a1.031 1.031 0 0 1-.398-.608l-.432-2.066 9.099-12.23h3.996v12.028zm-3.645-5.13c0-.315.011-.655.034-1.02.022-.364.056-.74.101-1.127l-5.198 7.277h5.063v-5.13zm21.249 2.93c0 1.719-.184 3.208-.553 4.468-.37 1.26-.88 2.304-1.533 3.132-.652.828-1.426 1.444-2.322 1.85a6.977 6.977 0 0 1-2.909.607c-1.044 0-2.01-.202-2.896-.607-.886-.406-1.653-1.022-2.302-1.85-.648-.828-1.154-1.872-1.518-3.132-.365-1.26-.547-2.75-.547-4.468 0-1.72.182-3.209.547-4.469.364-1.26.87-2.304 1.518-3.132.649-.828 1.416-1.442 2.302-1.843.887-.4 1.852-.6 2.896-.6 1.044 0 2.014.2 2.91.6.895.4 1.669 1.015 2.321 1.843.653.828 1.163 1.872 1.532 3.132.37 1.26.554 2.75.554 4.469zm-4.32 0c0-1.36-.085-2.473-.257-3.342-.17-.868-.398-1.55-.681-2.045-.284-.495-.605-.835-.965-1.02a2.375 2.375 0 0 0-1.094-.276c-.369 0-.731.092-1.087.277-.355.184-.67.524-.945 1.019-.274.495-.495 1.177-.661 2.045-.167.869-.25 1.982-.25 3.342 0 1.368.083 2.483.25 3.347.166.865.387 1.546.661 2.046.275.5.59.841.945 1.026.356.184.718.276 1.087.276s.733-.092 1.094-.276c.36-.185.681-.527.965-1.026.283-.5.51-1.181.681-2.046.172-.864.257-1.98.257-3.347zm19.98 0c0 1.719-.184 3.208-.553 4.468-.37 1.26-.88 2.304-1.533 3.132-.652.828-1.426 1.444-2.322 1.85a6.977 6.977 0 0 1-2.909.607c-1.044 0-2.01-.202-2.896-.607-.886-.406-1.653-1.022-2.301-1.85-.649-.828-1.155-1.872-1.52-3.132-.364-1.26-.546-2.75-.546-4.468 0-1.72.182-3.209.547-4.469.364-1.26.87-2.304 1.519-3.132.648-.828 1.415-1.442 2.301-1.843.887-.4 1.852-.6 2.896-.6 1.044 0 2.014.2 2.91.6.895.4 1.669 1.015 2.321 1.843.653.828 1.163 1.872 1.532 3.132.37 1.26.554 2.75.554 4.469zm-4.32 0c0-1.36-.085-2.473-.257-3.342-.17-.868-.398-1.55-.681-2.045-.284-.495-.605-.835-.965-1.02a2.375 2.375 0 0 0-1.094-.276c-.369 0-.731.092-1.087.277-.355.184-.67.524-.945 1.019-.274.495-.495 1.177-.661 2.045-.167.869-.25 1.982-.25 3.342 0 1.368.083 2.483.25 3.347.166.865.387 1.546.661 2.046.275.5.59.841.945 1.026.356.184.718.276 1.087.276s.733-.092 1.094-.276c.36-.185.681-.527.965-1.026.283-.5.51-1.181.681-2.046.172-.864.257-1.98.257-3.347zm19.98 0c0 1.719-.184 3.208-.553 4.468-.37 1.26-.88 2.304-1.533 3.132-.652.828-1.426 1.444-2.322 1.85a6.977 6.977 0 0 1-2.909.607c-1.044 0-2.01-.202-2.896-.607-.886-.406-1.653-1.022-2.301-1.85-.649-.828-1.155-1.872-1.52-3.132-.364-1.26-.546-2.75-.546-4.468 0-1.72.182-3.209.547-4.469.364-1.26.87-2.304 1.519-3.132.648-.828 1.415-1.442 2.301-1.843.887-.4 1.852-.6 2.896-.6 1.044 0 2.014.2 2.91.6.895.4 1.669 1.015 2.321 1.843.653.828 1.163 1.872 1.532 3.132.37 1.26.554 2.75.554 4.469zm-4.32 0c0-1.36-.085-2.473-.256-3.342-.172-.868-.399-1.55-.682-2.045-.284-.495-.605-.835-.966-1.02a2.375 2.375 0 0 0-1.093-.276c-.369 0-.731.092-1.087.277-.355.184-.67.524-.945 1.019-.274.495-.495 1.177-.661 2.045-.167.869-.25 1.982-.25 3.342 0 1.368.083 2.483.25 3.347.166.865.387 1.546.661 2.046.275.5.59.841.945 1.026.356.184.718.276 1.087.276s.733-.092 1.094-.276c.36-.185.681-.527.965-1.026.283-.5.51-1.181.681-2.046.172-.864.257-1.98.257-3.347z" id="4000" fill-opacity=".841" fill="#4D5368"/><path d="M91.986 37.623L93.47.034C140.377 1.342 178 39.778 178 87c0 48.049-38.951 87-87 87-14.457 0-28.09-3.526-40.087-9.766l16.373-32.978c7.193 4.012 15.48 6.298 24.302 6.298 27.595 0 49.966-22.37 49.966-49.966 0-27.463-22.156-49.751-49.568-49.965z" id="Combined-Shape" fill="#727B9C"/><path d="M94.287.06A88.55 88.55 0 0 0 91 0C80.713 0 70.844 1.785 61.684 5.063L73.1 41.153a49.832 49.832 0 0 1 18.488-3.531c.771 0 1.539.017 2.302.052L94.287.06z" id="Combined-Shape" fill="#CCD5F6"/></g></g></g></g></svg>