<?xml version="1.0" encoding="UTF-8"?>
<svg width="254px" height="254px" viewBox="0 0 254 254" version="1.1" xmlns="http://www.w3.org/2000/svg" xmlns:xlink="http://www.w3.org/1999/xlink">
    <!-- Generator: Sketch 43.2 (39069) - http://www.bohemiancoding.com/sketch -->
    <title>One_Menu_Final_Logo_Alone</title>
    <desc>Created with Sketch.</desc>
    <defs></defs>
    <g id="Page-1" stroke="none" stroke-width="1" fill="none" fill-rule="evenodd">
        <g id="One_Menu_Final_Logo_Alone" fill="#FFFFFF">
            <g id="Group-3">
                <path d="M126.644,254 C56.812,254 -0.001,197.189 -0.001,127.359 C-0.001,57.524 56.812,0.715 126.644,0.715 C196.474,0.715 253.288,57.524 253.288,127.359 C253.288,197.189 196.474,254 126.644,254 M126.644,14.454 C64.392,14.454 13.741,65.107 13.741,127.359 C13.741,189.611 64.392,240.259 126.644,240.259 C188.896,240.259 239.546,189.611 239.546,127.359 C239.546,65.107 188.896,14.454 126.644,14.454" id="Fill-1"></path>
            </g>
            <path d="M86.45,111.445 C87.778,111.445 89.005,111.201 90.13,110.709 C91.257,110.219 92.216,109.541 93.009,108.676 C93.804,107.809 94.423,106.807 94.87,105.666 C95.317,104.528 95.542,103.309 95.542,102.01 L95.542,101.922 C95.542,100.623 95.317,99.399 94.87,98.244 C94.423,97.09 93.788,96.078 92.966,95.213 C92.144,94.348 91.169,93.662 90.044,93.156 C88.919,92.652 87.692,92.401 86.364,92.401 C85.009,92.401 83.774,92.645 82.663,93.135 C81.552,93.627 80.599,94.305 79.808,95.17 C79.013,96.035 78.392,97.039 77.946,98.178 C77.497,99.318 77.274,100.537 77.274,101.836 L77.274,101.922 C77.274,103.223 77.497,104.447 77.946,105.602 C78.392,106.756 79.028,107.768 79.851,108.633 C80.673,109.498 81.64,110.184 82.749,110.688 C83.86,111.194 85.095,111.445 86.45,111.445 Z M86.364,117.594 C84.026,117.594 81.878,117.182 79.915,116.36 C77.952,115.537 76.257,114.426 74.829,113.026 C73.401,111.627 72.288,109.983 71.495,108.092 C70.702,106.201 70.306,104.174 70.306,102.01 L70.306,101.922 C70.306,99.758 70.71,97.731 71.517,95.84 C72.323,93.951 73.442,92.291 74.872,90.863 C76.3,89.434 78.003,88.309 79.979,87.487 C81.956,86.664 84.114,86.254 86.45,86.254 C88.788,86.254 90.938,86.664 92.901,87.487 C94.864,88.309 96.56,89.42 97.987,90.82 C99.415,92.219 100.526,93.865 101.319,95.754 C102.114,97.645 102.511,99.672 102.511,101.836 L102.511,101.922 C102.511,104.086 102.106,106.115 101.3,108.004 C100.491,109.895 99.372,111.555 97.944,112.983 C96.515,114.412 94.812,115.537 92.837,116.36 C90.858,117.182 88.702,117.594 86.364,117.594 L86.364,117.594 Z" id="Fill-4"></path>
            <polyline id="Fill-5" points="117.099 86.772 123.245 86.772 137.444 105.43 137.444 86.772 144.024 86.772 144.024 117.072 138.353 117.072 123.679 97.811 123.679 117.072 117.099 117.072 117.099 86.772"></polyline>
            <polyline id="Fill-6" points="159.952 86.772 182.765 86.772 182.765 92.703 166.532 92.703 166.532 98.85 180.817 98.85 180.817 104.779 166.532 104.779 166.532 111.143 182.981 111.143 182.981 117.072 159.952 117.072 159.952 86.772"></polyline>
            <polyline id="Fill-7" points="50.306 138.143 57.491 138.143 65.456 150.957 73.421 138.143 80.608 138.143 80.608 168.444 74.026 168.444 74.026 148.662 65.499 161.604 65.327 161.604 56.886 148.791 56.886 168.444 50.306 168.444 50.306 138.143"></polyline>
            <polyline id="Fill-8" points="96.536 138.143 119.349 138.143 119.349 144.074 103.116 144.074 103.116 150.221 117.401 150.221 117.401 156.151 103.116 156.151 103.116 162.514 119.567 162.514 119.567 168.444 96.536 168.444 96.536 138.143"></polyline>
            <polyline id="Fill-9" points="134.198 138.143 140.345 138.143 154.542 156.801 154.542 138.143 161.122 138.143 161.122 168.444 155.452 168.444 140.776 149.182 140.776 168.444 134.198 168.444 134.198 138.143"></polyline>
            <path d="M189.692,168.922 C185.622,168.922 182.421,167.795 180.083,165.543 C177.745,163.293 176.575,159.932 176.575,155.459 L176.575,138.143 L183.241,138.143 L183.241,155.285 C183.241,157.768 183.819,159.635 184.974,160.891 C186.128,162.147 187.729,162.774 189.778,162.774 C191.827,162.774 193.429,162.166 194.583,160.955 C195.737,159.742 196.315,157.926 196.315,155.5 L196.315,138.143 L202.981,138.143 L202.981,155.24 C202.981,157.551 202.673,159.557 202.05,161.258 C201.429,162.961 200.542,164.383 199.388,165.522 C198.233,166.662 196.835,167.512 195.188,168.076 C193.544,168.639 191.712,168.922 189.692,168.922" id="Fill-10"></path>
        </g>
    </g>
</svg>