<svg width="6" height="15" viewBox="0 0 6 15" xmlns="http://www.w3.org/2000/svg"><title>person</title><g id="Page-1" fill="none" fill-rule="evenodd"><g id="LOGIN-1" transform="translate(-1050 -395)" fill="#FFF"><g id="Log-In-Panel" transform="translate(1006)"><g id="Username" transform="translate(40 392)"><path d="M9.05 7.809c.131 0 .242.02.333.058.091.04.179.098.263.176a.628.628 0 0 1 .176.264c.033.097.056.205.069.322l-.332 3.437.02.059h-.01c-.007 0-.007 0 0 0h-.01a.325.325 0 0 1-.05.176.767.767 0 0 1-.107.136.448.448 0 0 1-.166.098.557.557 0 0 1-.185.04h-.166-.02-.01.01-.01a.244.244 0 0 0-.126.029c-.033.019-.069.042-.108.068a.188.188 0 0 0-.078.098l-.04.117c.014 0 .017.003.01.01-.006.006-.006.01 0 .01-.006 0-.003.006.01.019l-.312 3.554.02.118a4.046 4.046 0 0 0-.079.166.367.367 0 0 1-.117.146.632.632 0 0 1-.156.088.561.561 0 0 1-.195.03H6.297a.435.435 0 0 1-.195-.04 1.026 1.026 0 0 1-.157-.097.388.388 0 0 1-.117-.137 2.328 2.328 0 0 1-.078-.176l.02-.078-.313-3.574c.013 0 .016-.003.01-.01-.007-.006-.007-.013 0-.02.006-.006.006-.01 0-.01h.01a1.014 1.014 0 0 0-.04-.126.197.197 0 0 0-.078-.088 2.699 2.699 0 0 0-.107-.068.244.244 0 0 0-.127-.03h.01-.02-.02-.166a.619.619 0 0 1-.175-.03.364.364 0 0 1-.156-.087 1.275 1.275 0 0 1-.118-.137.286.286 0 0 1-.058-.175l-.04-.098-.273-3.418a.593.593 0 0 1 .05-.322c.045-.098.103-.186.175-.264a.671.671 0 0 1 .264-.176.885.885 0 0 1 .312-.058h4.16-.02zm-.234-2.52a2.126 2.126 0 0 1-.156.703 1.807 1.807 0 0 1-.967.977 1.807 1.807 0 0 1-.713.136c-.234 0-.465-.045-.693-.136a1.56 1.56 0 0 1-.576-.39 2.302 2.302 0 0 1-.39-.587 1.448 1.448 0 0 1-.137-.703 1.448 1.448 0 0 1 .136-.703c.104-.221.235-.413.39-.576.157-.163.35-.293.577-.39.228-.099.46-.147.693-.147.26 0 .499.048.713.146.215.098.407.228.577.39.169.164.299.356.39.577.091.221.143.456.156.703z" id="person"/></g></g></g></g></svg>