<svg width="15" height="13" viewBox="0 0 15 13" xmlns="http://www.w3.org/2000/svg"><title>Shape</title><g id="Symbols" fill="none" fill-rule="evenodd"><g id="Share-alert-btn" transform="translate(-23 -10)" fill="#898E9F"><g transform="translate(23 8)" id="Group"><path d="M14.841 6.314l-4.286-4.16A.523.523 0 0 0 10.18 2a.522.522 0 0 0-.377.154.493.493 0 0 0-.16.366V4.6H7.769c-3.98 0-6.42 1.092-7.324 3.274C.148 8.6 0 9.502 0 10.58c0 .9.354 2.12 1.063 3.664a19.833 19.833 0 0 0 .2.44c.035.07.07.13.11.178.067.092.145.138.234.138.084 0 .15-.027.197-.081a.298.298 0 0 0 .071-.203c0-.049-.007-.12-.021-.216a1.632 1.632 0 0 1-.02-.19 13.324 13.324 0 0 1-.043-1c0-.547.05-1.037.147-1.47.097-.434.233-.809.406-1.126.173-.317.396-.59.67-.82.273-.23.567-.419.882-.565a4.893 4.893 0 0 1 1.114-.345 10.91 10.91 0 0 1 1.289-.175c.432-.033.922-.049 1.469-.049h1.875v2.08c0 .141.053.263.159.366a.523.523 0 0 0 .376.154c.145 0 .271-.051.377-.154l4.286-4.16A.493.493 0 0 0 15 6.68a.494.494 0 0 0-.159-.366z" id="Shape"/></g></g></g></svg>