<svg width="28" height="28" viewBox="0 0 28 28" xmlns="http://www.w3.org/2000/svg"><title>Group 9</title><g id="Page-1" fill="none" fill-rule="evenodd"><g id="DASHBOARD-Hover" transform="translate(-237 -268)" fill="#FFF"><g id="ADVERSE-NOTIFICATIONS" transform="translate(218 255)"><g id="Adverse-notifications"><g id="Group-9" transform="translate(19 13)"><path d="M23.059 16H3.294C1.37 16 0 15.346 0 13.474c0-1.563 1.371-2.956 3.294-3.369.075.413.367.475.824.842-.173-.305-.18-.329 0 0-.18-2.359 1.419-3.982 3.294-4.21.18.228.262.247 0 0 .34.166.316.087 0 0C7.728 3.017 10.697 0 14 0c3.673 0 6.397 2.472 6.588 5.895.884-.426 1.505-.562 2.47-.842C25.649 5.333 28 7.72 28 10.947 28 13.614 25.648 16 23.059 16zM8.23 27.967l4.18-7.524H8.23c.027-.022 2.453-2.593 4.18-4.18h5.016l-3.344 3.344h3.344l-9.196 8.36z" id="Path"/></g></g></g></g></g></svg>