<svg width="3" height="9" viewBox="0 0 3 9" xmlns="http://www.w3.org/2000/svg"><title>Shape Copy</title><g id="Symbols" fill="none" fill-rule="evenodd"><g id="ADVANCE" transform="translate(-9 -6)" fill="#FFF"><g transform="translate(2 2)" id="Thick"><g id="Thick-Red" transform="translate(.3 .6)"><path d="M6.92 11.913c.027-.13 0-2.087 0-2.087.134.026 1.62 0 1.62 0 .343 0 .406.026.54 0-.027.13 0 2.087 0 2.087-.133-.026-2.16 0-2.16 0zm1.62-3.478H7.46c-.227 0-.287-.02-.54 0 .152-.103 0-4.87 0-4.87.14.035 2.16 0 2.16 0-.025.15 0 4.87 0 4.87-.261-.02-.32 0-.54 0z" id="Shape-Copy"/></g></g></g></g></svg>