<svg width="12" height="12" viewBox="0 0 12 12" xmlns="http://www.w3.org/2000/svg"><title>? off</title><g id="Symbols" fill="none" fill-rule="evenodd"><path d="M11.195 2.988A5.974 5.974 0 0 0 9.012.805 5.87 5.87 0 0 0 6 0a5.869 5.869 0 0 0-3.012.805A5.972 5.972 0 0 0 .805 2.988 5.868 5.868 0 0 0 0 6a5.87 5.87 0 0 0 .805 3.012 5.975 5.975 0 0 0 2.183 2.183A5.87 5.87 0 0 0 6 12a5.869 5.869 0 0 0 3.012-.805 5.974 5.974 0 0 0 2.183-2.183A5.87 5.87 0 0 0 12 6a5.87 5.87 0 0 0-.805-3.012zM7 9.75a.243.243 0 0 1-.07.18.243.243 0 0 1-.18.07h-1.5a.244.244 0 0 1-.18-.07.243.243 0 0 1-.07-.18v-1.5c0-.073.024-.133.07-.18A.244.244 0 0 1 5.25 8h1.5c.073 0 .133.023.18.07.047.047.07.107.07.18v1.5zm1.903-4.617c-.066.193-.138.35-.22.473-.08.122-.196.247-.347.374-.15.128-.27.22-.36.274-.088.055-.216.129-.382.223a1.318 1.318 0 0 0-.426.386c-.112.16-.168.288-.168.387a.244.244 0 0 1-.07.18.243.243 0 0 1-.18.07h-1.5a.243.243 0 0 1-.18-.07.243.243 0 0 1-.07-.18v-.281c0-.35.137-.676.41-.98.274-.306.575-.53.903-.677.25-.114.427-.231.531-.351A.7.7 0 0 0 7 4.484c0-.172-.097-.325-.293-.46a1.144 1.144 0 0 0-.668-.204c-.27 0-.494.063-.671.188-.172.125-.396.364-.672.718a.23.23 0 0 1-.196.094.22.22 0 0 1-.148-.047l-1.031-.78c-.12-.095-.141-.204-.063-.329C3.925 2.554 4.891 2 6.156 2c.454 0 .897.107 1.329.32a2.96 2.96 0 0 1 1.082.907 2.098 2.098 0 0 1 .336 1.906z" id="?-off" fill="#CBCED7"/></g></svg>