<svg width="14" height="9" viewBox="0 0 14 9" xmlns="http://www.w3.org/2000/svg"><title>mail</title><g id="Page-1" fill="none" fill-rule="evenodd"><g id="DASHBOARD" transform="translate(-1124 -731)" fill="#898E9F"><g id="ARQIVA-RIGHT-SIDE" transform="translate(933 102)"><g id="SUPPORT-CONTACTS" transform="translate(164 489)"><g id="Group-Copy-17" transform="translate(19 64)"><path d="M20.957 77.457h-.039a.16.16 0 0 0-.049.01.379.379 0 0 0-.049.02.153.153 0 0 0-.039.029l-.83.644a964.381 964.381 0 0 0-3.652 2.861c-.554.437-.837.655-.85.655a.372.372 0 0 1-.097.068.895.895 0 0 1-.235.078.712.712 0 0 1-.351-.029.895.895 0 0 1-.118-.049.372.372 0 0 1-.097-.068c-.013 0-.3-.218-.86-.655-.56-.436-1.168-.914-1.826-1.435a983.952 983.952 0 0 0-2.646-2.09.087.087 0 0 1-.04-.01.379.379 0 0 0-.048-.02.16.16 0 0 0-.049-.009h-.039a.368.368 0 0 0-.264.107.412.412 0 0 0-.078.108.302.302 0 0 0-.03.137v5.742c0 .117.024.224.07.322a.884.884 0 0 0 .175.254.808.808 0 0 0 .557.225h11.054a.808.808 0 0 0 .557-.225.884.884 0 0 0 .176-.254.753.753 0 0 0 .068-.322v-5.742a.302.302 0 0 0-.03-.137.412.412 0 0 0-.077-.108.37.37 0 0 0-.264-.107zm-6.328 3.262c.026.013.055.026.088.039.032.013.062.026.088.039a.347.347 0 0 0 .097.03.614.614 0 0 0 .205 0 .557.557 0 0 0 .098-.03c.033-.013.062-.026.088-.04l.078-.038 5.117-3.906.078-.079a.32.32 0 0 0 .069-.107l.02-.059a.302.302 0 0 0-.02-.205.412.412 0 0 0-.078-.107.37.37 0 0 0-.264-.108H9.707a.302.302 0 0 0-.137.03.412.412 0 0 0-.185.185.321.321 0 0 0-.02.215.938.938 0 0 0 .02.068.32.32 0 0 0 .068.107l5.176 3.966z" id="mail"/></g></g></g></g></g></svg>