<svg width="32" height="32" viewBox="0 0 32 32" xmlns="http://www.w3.org/2000/svg" xmlns:xlink="http://www.w3.org/1999/xlink"><title>Group 14</title><defs><circle id="path-1" cx="16" cy="16" r="16"/></defs><g id="Page-1" fill="none" fill-rule="evenodd"><g id="DASHBOARD-2" transform="translate(-1116 -785)"><g id="ARQIVA-RIGHT-SIDE" transform="translate(933 102)"><g id="SUPPORT-CONTACTS" transform="translate(164 489)"><g id="Group-Copy-18" transform="translate(19 194)"><g id="Screen-Shot-2016-07-15-at-12.14.35"><g id="Group-14"><mask id="mask-2" fill="#fff"><use xlink:href="#path-1"/></mask><use id="Mask" fill="#4D5368" xlink:href="#path-1"/><path d="M10.918 19.859h4.34V21H9.56V10.969h1.358v8.89zm8.827-9.002c.425 0 .821.063 1.19.189s.687.31.956.55c.268.24.479.533.633.878.154.345.231.737.231 1.176 0 .373-.056.719-.168 1.036a4.225 4.225 0 0 1-.455.914 6.71 6.71 0 0 1-.662.847c-.25.273-.514.551-.794.836l-2.639 2.702c.187-.051.376-.092.567-.122.191-.03.376-.046.553-.046h3.36c.135 0 .243.04.322.119.08.08.119.182.119.308V21h-6.692v-.427c0-.089.017-.18.053-.273a.727.727 0 0 1 .171-.259l3.213-3.227c.266-.27.509-.53.728-.78.22-.25.407-.501.563-.753.157-.252.277-.507.361-.767.084-.259.126-.535.126-.829 0-.294-.047-.552-.14-.774a1.496 1.496 0 0 0-.385-.549 1.62 1.62 0 0 0-.574-.325 2.244 2.244 0 0 0-.707-.109c-.252 0-.485.037-.7.112a1.892 1.892 0 0 0-.99.784 1.843 1.843 0 0 0-.242.602.558.558 0 0 1-.168.294.452.452 0 0 1-.294.091.813.813 0 0 1-.161-.014l-.651-.112a3.69 3.69 0 0 1 .378-1.215 2.895 2.895 0 0 1 1.697-1.428 3.774 3.774 0 0 1 1.201-.185z" id="L2" fill="#FFF" mask="url(#mask-2)"/></g></g></g></g></g></g></g></svg>