<svg width="78" height="78" viewBox="0 0 78 78" xmlns="http://www.w3.org/2000/svg"><title>Graph</title><g id="Page-1" fill="none" fill-rule="evenodd"><g id="DASHBOARD-2" transform="translate(-607 -747)"><g id="CHANNEL-HEALTH-INDICATOR" transform="translate(217 272)"><g id="Stats-Copy" transform="translate(20 404)"><g id="Box-Copy-2" transform="translate(280)"><g id="Box"><g id="Graph" transform="translate(93 65)"><circle id="Oval-81" stroke="#FFBC3D" stroke-width="5" cx="36" cy="45" r="36"/><path d="M.955 35.728C6.1 16.523 25.84 5.126 45.045 10.272" id="Oval-81" stroke="#7C8191" stroke-width="5" stroke-linecap="round"/><path d="M26.101 32.905c1.08 0 2.053.157 2.918.472.865.316 1.602.753 2.212 1.313a5.651 5.651 0 0 1 1.403 2.003c.325.775.487 1.627.487 2.557 0 .8-.112 1.54-.337 2.22a8.745 8.745 0 0 1-.923 1.943 13.57 13.57 0 0 1-1.357 1.785 51.682 51.682 0 0 1-1.643 1.747l-4.275 4.38c.55-.16 1.093-.287 1.628-.383a8.645 8.645 0 0 1 1.507-.142h4.08c.5 0 .895.137 1.185.413.29.275.435.637.435 1.087V55h-15.36v-1.5c0-.29.06-.6.18-.93.12-.33.33-.63.63-.9l6.3-6.345c.54-.54 1.01-1.055 1.41-1.545.4-.49.73-.972.99-1.447.26-.476.455-.95.585-1.425.13-.476.195-.978.195-1.508 0-.87-.207-1.537-.622-2.002-.415-.466-1.048-.698-1.898-.698-.35 0-.67.05-.96.15-.29.1-.55.235-.78.405-.23.17-.427.37-.592.6-.165.23-.298.48-.398.75-.16.45-.362.775-.607.975-.245.2-.578.3-.998.3a4.534 4.534 0 0 1-.675-.06l-2.46-.435c.16-1.09.468-2.04.923-2.85a6.859 6.859 0 0 1 1.695-2.025 6.877 6.877 0 0 1 2.317-1.207 9.58 9.58 0 0 1 2.805-.398zm23.34 2.16c0 .32-.05.61-.15.87-.1.26-.257.487-.472.682-.215.196-.498.345-.848.45-.35.106-.77.158-1.26.158h-5.22l-.615 3.615c.41-.07.805-.122 1.185-.158.38-.035.75-.052 1.11-.052 1.15 0 2.165.175 3.045.525.88.35 1.62.827 2.22 1.432a5.948 5.948 0 0 1 1.358 2.13c.305.816.457 1.688.457 2.618 0 1.17-.207 2.237-.622 3.203a7.444 7.444 0 0 1-1.733 2.497 7.785 7.785 0 0 1-2.647 1.628c-1.025.385-2.148.577-3.368.577-.71 0-1.387-.075-2.032-.225a9.792 9.792 0 0 1-3.383-1.492c-.48-.336-.915-.693-1.305-1.073l1.44-1.92c.15-.2.325-.352.525-.458.2-.105.415-.157.645-.157.3 0 .583.082.848.248l.87.54c.315.195.682.372 1.102.532.42.16.94.24 1.56.24.62 0 1.15-.102 1.59-.308.44-.205.798-.484 1.073-.84.275-.355.475-.77.6-1.244.125-.476.187-.983.187-1.523 0-1.06-.3-1.867-.9-2.422-.6-.556-1.45-.833-2.55-.833a7.8 7.8 0 0 0-2.88.555l-2.88-.78 1.86-10.935h11.19v1.92z" id="25" fill-opacity=".77" fill="#4D5368"/><path d="M59.08 44.376a2.154 2.154 0 0 1-.636 1.557 2.078 2.078 0 0 1-1.464.597c-.304 0-.583-.052-.837-.156a1.942 1.942 0 0 1-1.095-1.122 2.37 2.37 0 0 1-.156-.876c0-.332.052-.633.156-.903a1.958 1.958 0 0 1 1.095-1.14c.254-.106.533-.159.837-.159.304 0 .585.053.843.159a1.943 1.943 0 0 1 1.101 1.14c.104.27.156.571.156.903zm-1.428 0c0-.204-.017-.373-.051-.507a.902.902 0 0 0-.141-.321.487.487 0 0 0-.213-.168.728.728 0 0 0-.267-.048.705.705 0 0 0-.264.048.454.454 0 0 0-.204.168.94.94 0 0 0-.132.321 2.234 2.234 0 0 0-.048.507c0 .192.016.352.048.48a.87.87 0 0 0 .132.306c.056.076.124.13.204.162.08.032.168.048.264.048a.728.728 0 0 0 .267-.048.503.503 0 0 0 .213-.162.837.837 0 0 0 .141-.306c.034-.128.051-.288.051-.48zm4.176-1.842c.06-.068.134-.131.222-.189a.66.66 0 0 1 .366-.087h1.356l-6.588 8.478a.664.664 0 0 1-.552.264H55.24l6.588-8.466zm2.28 6.414a2.175 2.175 0 0 1-.636 1.563 2.078 2.078 0 0 1-1.464.597c-.304 0-.583-.052-.837-.156a1.942 1.942 0 0 1-1.095-1.125 2.394 2.394 0 0 1-.156-.879c0-.332.052-.633.156-.903a1.958 1.958 0 0 1 1.095-1.14c.254-.106.533-.159.837-.159.304 0 .585.053.843.159a1.943 1.943 0 0 1 1.101 1.14c.104.27.156.571.156.903zm-1.428 0c0-.2-.017-.367-.051-.501a.902.902 0 0 0-.141-.321.487.487 0 0 0-.213-.168.728.728 0 0 0-.267-.048.705.705 0 0 0-.264.048.454.454 0 0 0-.204.168.94.94 0 0 0-.132.321 2.201 2.201 0 0 0-.048.501c0 .192.016.352.048.48a.87.87 0 0 0 .132.306c.056.076.124.13.204.162.08.032.168.048.264.048a.728.728 0 0 0 .267-.048.503.503 0 0 0 .213-.162.837.837 0 0 0 .141-.306c.034-.128.051-.288.051-.48z" id="Shape" fill-opacity=".77" fill="#4D5368"/></g></g></g></g></g></g></g></svg>