<svg width="30" height="30" viewBox="0 0 30 30" xmlns="http://www.w3.org/2000/svg"><title>Arquiva logo</title><g id="Page-1" fill="none" fill-rule="evenodd"><g id="SCHEDULE" transform="translate(-1110 -512)"><g id="Recent-Activity-/-Conversation" transform="translate(1096 185)"><g id="Opened" transform="translate(0 64)"><g id="Messages"><g id="Message" transform="translate(14 263)"><g id="Arquiva-logo"><circle id="Oval-19" fill="#4D5368" cx="15" cy="15" r="15"/><g id="Logo" transform="translate(10 10)" fill="#FFF"><path d="M2.616 1.933c-.817.695-.973 1.825-1.026 2.825.024.527-.042 1.058.046 1.58.04.866.323 1.751.935 2.39.824.707 2.058.803 3.049.41a2.962 2.962 0 0 0 1.61-1.643c.35-1.161.31-2.396.181-3.587-.087-.737-.334-1.514-.926-2.01a2.525 2.525 0 0 0-1.475-.587c-.83-.088-1.76.039-2.394.622M1.474.665c.94-.47 2.005-.71 3.06-.658.665-.015 1.339-.01 1.986.164 1.257.266 2.424 1.067 2.992 2.222.339.66.44 1.406.488 2.135-.032 1.992.006 3.986-.017 5.979-.64-.012-1.282-.002-1.922-.006-.068-.49-.204-.97-.286-1.46-.244.242-.469.504-.736.723-1.555 1.095-3.682 1.2-5.42.49C.88 9.92.228 9.395-.217 8.721c-.165-.086-.153-.286-.23-.43C-.79 7.633-.956 6.9-1 6.166c.007-.47 0-.94.002-1.41C-.9 3.577-.49 2.382.34 1.504c.33-.335.722-.609 1.134-.839" id="Fill-1"/></g></g></g></g></g></g></g></g></svg>