<svg width="174" height="174" viewBox="0 0 174 174" xmlns="http://www.w3.org/2000/svg"><title>Graph</title><g id="Page-1" fill="none" fill-rule="evenodd"><g id="CATALOGUE" transform="translate(-244 -528)"><g id="ARCHIVE-STATUS" transform="translate(217 476)"><g id="Modules" transform="translate(0 26)"><g id="Asset-Tracking-Overview"><g id="Graph" transform="translate(23 26)"><path d="M46.943 11.964C21.246 27.084 4 55.028 4 87c0 33.767 19.237 63.04 47.35 77.46l16.349-32.976c-15.536-8.473-26.077-24.953-26.077-43.896 0-17.545 9.042-32.977 22.72-41.892l-17.4-33.732z" id="Combined-Shape" fill="#8E99C3"/><path d="M91 174c48.049 0 87-38.951 87-87S139.049 0 91 0 4 38.951 4 87s38.951 87 87 87zm.588-36.446c27.595 0 49.966-22.37 49.966-49.966s-22.37-49.966-49.966-49.966-49.966 22.37-49.966 49.966c0 27.595 22.37 49.966 49.966 49.966z" id="Combined-Shape-Copy-2" fill="#8E99C3"/><path d="M88.616.032A88.645 88.645 0 0 1 91 0c48.049 0 87 38.951 87 87s-38.951 87-87 87S4 135.049 4 87c0-15.298 3.948-29.673 10.881-42.163l31.037 22.45a49.791 49.791 0 0 0-4.296 20.3c0 27.596 22.37 49.967 49.966 49.967 27.595 0 49.966-22.37 49.966-49.966s-22.37-49.966-49.966-49.966c-.831 0-1.658.02-2.48.06L88.617.032z" id="Combined-Shape" fill="#727B9C"/><path d="M67.186 84.54c.71 0 1.412.116 2.105.35a5.38 5.38 0 0 1 1.864 1.08c.549.487.992 1.1 1.33 1.843.337.743.505 1.618.505 2.626 0 .918-.17 1.789-.512 2.612a6.5 6.5 0 0 1-1.452 2.16 6.884 6.884 0 0 1-2.261 1.465c-.882.36-1.858.54-2.93.54-1.098 0-2.083-.173-2.956-.52a6.323 6.323 0 0 1-2.22-1.451 6.23 6.23 0 0 1-1.391-2.228c-.32-.864-.48-1.813-.48-2.848 0-.981.19-1.957.568-2.93.378-.972.935-1.961 1.673-2.97l4.428-5.98c.199-.27.495-.497.892-.682a3.16 3.16 0 0 1 1.35-.276h3.725l-5.832 6.965c-.09.1-.177.2-.263.304l-.25.304c.316-.117.646-.207.993-.27a6.227 6.227 0 0 1 1.114-.094zm-4.375 6.196c0 .486.059.922.176 1.31.117.387.297.72.54.998.243.28.549.493.918.642.369.148.805.222 1.31.222.432 0 .834-.08 1.208-.243.373-.162.695-.384.965-.668.27-.283.484-.616.641-.999.158-.382.236-.798.236-1.249 0-.504-.074-.953-.222-1.35a2.76 2.76 0 0 0-.628-.999 2.718 2.718 0 0 0-.979-.62 3.597 3.597 0 0 0-1.275-.216c-.424 0-.81.074-1.161.222a2.599 2.599 0 0 0-.912.641 3.006 3.006 0 0 0-.6 1 3.735 3.735 0 0 0-.216 1.309zm19.252-13.621c.972 0 1.835.137 2.591.411.757.275 1.395.646 1.918 1.114a4.7 4.7 0 0 1 1.188 1.627 4.81 4.81 0 0 1 .404 1.95c0 .622-.062 1.168-.189 1.64a3.758 3.758 0 0 1-.56 1.23 3.507 3.507 0 0 1-.918.883 5.46 5.46 0 0 1-1.248.608c2.178.756 3.267 2.236 3.267 4.441 0 1.045-.19 1.953-.568 2.727a5.608 5.608 0 0 1-1.518 1.931 6.498 6.498 0 0 1-2.208 1.154 8.888 8.888 0 0 1-2.618.385c-.937 0-1.769-.101-2.498-.304a5.75 5.75 0 0 1-1.944-.945 6.26 6.26 0 0 1-1.492-1.64c-.427-.666-.798-1.458-1.114-2.376l1.864-.756c.162-.072.321-.121.479-.148.157-.028.312-.041.466-.041.288 0 .546.056.776.169.23.112.402.276.52.493.405.747.834 1.289 1.289 1.626.454.338.987.507 1.6.507.468 0 .875-.08 1.221-.237.347-.157.635-.36.864-.607a2.52 2.52 0 0 0 .52-.844c.117-.315.175-.634.175-.959 0-.423-.029-.803-.087-1.14a1.49 1.49 0 0 0-.493-.871c-.27-.243-.677-.43-1.222-.56-.544-.13-1.302-.196-2.275-.196v-2.889c.82 0 1.481-.063 1.985-.189s.893-.3 1.168-.52c.274-.22.456-.488.546-.803.09-.315.136-.661.136-1.04 0-.774-.187-1.37-.56-1.788-.374-.419-.943-.628-1.709-.628-.315 0-.602.045-.864.135-.26.09-.494.211-.701.364a2.428 2.428 0 0 0-.534.54 2.85 2.85 0 0 0-.358.675c-.144.406-.326.698-.546.878-.22.18-.52.27-.898.27a4.08 4.08 0 0 1-.608-.054l-2.213-.392c.144-.98.42-1.835.83-2.564a6.173 6.173 0 0 1 1.525-1.823 6.19 6.19 0 0 1 2.086-1.087 8.623 8.623 0 0 1 2.525-.357zm23.058.216v3.617h-5.535V97h-4.564V80.948h-5.535v-3.617h15.634zM107.01 97V77.33h7.236c1.359 0 2.515.126 3.469.379.954.252 1.732.607 2.336 1.066a4.042 4.042 0 0 1 1.316 1.674c.274.657.412 1.39.412 2.2 0 .442-.063.867-.19 1.276-.126.41-.323.794-.594 1.154-.27.36-.616.687-1.039.98a6.701 6.701 0 0 1-1.525.762c1.296.315 2.254.826 2.875 1.532.621.707.931 1.613.931 2.72 0 .838-.161 1.616-.486 2.336a5.348 5.348 0 0 1-1.424 1.883c-.625.536-1.397.954-2.315 1.256-.918.301-1.966.452-3.145.452h-7.858zm4.563-8.343v4.9h3.213c.603 0 1.095-.076 1.478-.229.382-.153.681-.351.897-.594.217-.243.365-.517.446-.823.081-.307.121-.617.121-.932 0-.36-.047-.684-.141-.972a1.607 1.607 0 0 0-.486-.729c-.23-.198-.533-.351-.912-.459-.378-.108-.854-.162-1.43-.162h-3.187zm0-3.051h2.376a7.83 7.83 0 0 0 1.363-.108c.405-.072.75-.198 1.033-.378.283-.18.5-.427.648-.743.148-.315.222-.71.222-1.188 0-.468-.058-.857-.175-1.167a1.673 1.673 0 0 0-.54-.75c-.243-.189-.551-.323-.925-.404a6.35 6.35 0 0 0-1.33-.122h-2.672v4.86z" id="63TB" fill-opacity=".841" fill="#4D5368"/></g></g></g></g></g></g></svg>