<svg width="174" height="174" viewBox="0 0 174 174" xmlns="http://www.w3.org/2000/svg"><title>Group 9</title><g id="Page-1" fill="none" fill-rule="evenodd"><g id="DASHBOARD-2" transform="translate(-245 -2740)"><g id="FAILED-ASSETS" transform="translate(218 2678)"><g id="Graph" transform="translate(27 61)"><g id="Group-9" transform="translate(0 1)"><g id="Graph"><path d="M87 174c48.049 0 87-38.951 87-87S135.049 0 87 0 0 38.951 0 87s38.951 87 87 87zm0-37c27.614 0 50-22.386 50-50s-22.386-50-50-50-50 22.386-50 50 22.386 50 50 50z" id="Combined-Shape" fill="#CBD4F5"/><path d="M92.404.165A88.339 88.339 0 0 0 87 0C38.951 0 0 38.951 0 87c0 24.862 10.429 47.289 27.151 63.144l22.846-29.517C41.922 111.748 37 99.948 37 87c0-27.614 22.386-50 50-50 1.826 0 3.629.098 5.404.289V.165z" id="Combined-Shape" fill="#FF004C"/></g><path d="M63.685 77.115c.972 0 1.836.137 2.592.411.756.275 1.395.646 1.917 1.114a4.7 4.7 0 0 1 1.188 1.627 4.81 4.81 0 0 1 .405 1.95c0 .622-.063 1.168-.189 1.64a3.758 3.758 0 0 1-.56 1.23 3.507 3.507 0 0 1-.918.883 5.46 5.46 0 0 1-1.249.608c2.178.756 3.267 2.236 3.267 4.441 0 1.045-.189 1.953-.567 2.727a5.608 5.608 0 0 1-1.519 1.931 6.498 6.498 0 0 1-2.207 1.154 8.888 8.888 0 0 1-2.619.385c-.936 0-1.768-.101-2.498-.304a5.75 5.75 0 0 1-1.944-.945 6.26 6.26 0 0 1-1.491-1.64c-.428-.666-.799-1.458-1.114-2.376l1.863-.756c.162-.072.322-.121.48-.148.157-.028.312-.041.465-.041.288 0 .547.056.776.169.23.112.403.276.52.493.405.747.835 1.289 1.29 1.626.454.338.987.507 1.599.507.468 0 .875-.08 1.222-.237.346-.157.634-.36.864-.607a2.52 2.52 0 0 0 .52-.844c.117-.315.175-.634.175-.959 0-.423-.03-.803-.088-1.14a1.49 1.49 0 0 0-.492-.871c-.27-.243-.678-.43-1.222-.56-.545-.13-1.303-.196-2.275-.196v-2.889c.819 0 1.48-.063 1.985-.189.504-.126.893-.3 1.167-.52.275-.22.457-.488.547-.803.09-.315.135-.661.135-1.04 0-.774-.187-1.37-.56-1.788-.374-.419-.943-.628-1.708-.628-.315 0-.603.045-.864.135-.261.09-.495.211-.702.364a2.428 2.428 0 0 0-.533.54 2.85 2.85 0 0 0-.358.675c-.144.406-.326.698-.547.878-.22.18-.52.27-.898.27a4.08 4.08 0 0 1-.608-.054l-2.213-.392c.144-.98.42-1.835.83-2.564a6.173 6.173 0 0 1 1.526-1.823 6.19 6.19 0 0 1 2.085-1.087 8.623 8.623 0 0 1 2.525-.357zM85.96 87.159c0 1.719-.184 3.208-.553 4.468-.37 1.26-.88 2.304-1.533 3.132-.652.828-1.426 1.444-2.322 1.85a6.977 6.977 0 0 1-2.909.607c-1.044 0-2.01-.202-2.896-.607-.886-.406-1.653-1.022-2.302-1.85-.648-.828-1.154-1.872-1.518-3.132-.365-1.26-.547-2.75-.547-4.468 0-1.72.182-3.209.547-4.469.364-1.26.87-2.304 1.518-3.132.649-.828 1.416-1.442 2.302-1.843.887-.4 1.852-.6 2.896-.6 1.044 0 2.014.2 2.91.6.895.4 1.669 1.015 2.321 1.843.653.828 1.163 1.872 1.532 3.132.37 1.26.554 2.75.554 4.469zm-4.32 0c0-1.36-.085-2.473-.257-3.342-.17-.868-.398-1.55-.681-2.045-.284-.495-.605-.835-.965-1.02a2.375 2.375 0 0 0-1.094-.276c-.369 0-.731.092-1.087.277-.355.184-.67.524-.945 1.019-.274.495-.495 1.177-.661 2.045-.167.869-.25 1.982-.25 3.342 0 1.368.083 2.483.25 3.347.166.865.387 1.546.661 2.046.275.5.59.841.945 1.026.356.184.718.276 1.087.276s.733-.092 1.094-.276c.36-.185.681-.527.965-1.026.283-.5.51-1.181.681-2.046.172-.864.257-1.98.257-3.347zm19.98 0c0 1.719-.184 3.208-.553 4.468-.37 1.26-.88 2.304-1.533 3.132-.652.828-1.426 1.444-2.322 1.85a6.977 6.977 0 0 1-2.909.607c-1.044 0-2.01-.202-2.896-.607-.886-.406-1.653-1.022-2.301-1.85-.649-.828-1.155-1.872-1.52-3.132-.364-1.26-.546-2.75-.546-4.468 0-1.72.182-3.209.547-4.469.364-1.26.87-2.304 1.519-3.132.648-.828 1.415-1.442 2.301-1.843.887-.4 1.852-.6 2.896-.6 1.044 0 2.014.2 2.91.6.895.4 1.669 1.015 2.321 1.843.653.828 1.163 1.872 1.532 3.132.37 1.26.554 2.75.554 4.469zm-4.32 0c0-1.36-.085-2.473-.257-3.342-.17-.868-.398-1.55-.681-2.045-.284-.495-.605-.835-.965-1.02a2.375 2.375 0 0 0-1.094-.276c-.369 0-.731.092-1.087.277-.355.184-.67.524-.945 1.019-.274.495-.495 1.177-.661 2.045-.167.869-.25 1.982-.25 3.342 0 1.368.083 2.483.25 3.347.166.865.387 1.546.661 2.046.275.5.59.841.945 1.026.356.184.718.276 1.087.276s.733-.092 1.094-.276c.36-.185.681-.527.965-1.026.283-.5.51-1.181.681-2.046.172-.864.257-1.98.257-3.347zm19.98 0c0 1.719-.184 3.208-.553 4.468-.37 1.26-.88 2.304-1.533 3.132-.652.828-1.426 1.444-2.322 1.85a6.977 6.977 0 0 1-2.909.607c-1.044 0-2.01-.202-2.896-.607-.886-.406-1.653-1.022-2.301-1.85-.649-.828-1.155-1.872-1.52-3.132-.364-1.26-.546-2.75-.546-4.468 0-1.72.182-3.209.547-4.469.364-1.26.87-2.304 1.519-3.132.648-.828 1.415-1.442 2.301-1.843.887-.4 1.852-.6 2.896-.6 1.044 0 2.014.2 2.91.6.895.4 1.669 1.015 2.321 1.843.653.828 1.163 1.872 1.532 3.132.37 1.26.554 2.75.554 4.469zm-4.32 0c0-1.36-.085-2.473-.256-3.342-.172-.868-.399-1.55-.682-2.045-.284-.495-.605-.835-.966-1.02a2.375 2.375 0 0 0-1.093-.276c-.369 0-.731.092-1.087.277-.355.184-.67.524-.945 1.019-.274.495-.495 1.177-.661 2.045-.167.869-.25 1.982-.25 3.342 0 1.368.083 2.483.25 3.347.166.865.387 1.546.661 2.046.275.5.59.841.945 1.026.356.184.718.276 1.087.276s.733-.092 1.094-.276c.36-.185.681-.527.965-1.026.283-.5.51-1.181.681-2.046.172-.864.257-1.98.257-3.347z" id="3000" fill-opacity=".841" fill="#4D5368"/></g></g></g></g></g></svg>