<svg width="79" height="78" viewBox="0 0 79 78" xmlns="http://www.w3.org/2000/svg"><title>Graph</title><g id="Page-1" fill="none" fill-rule="evenodd"><g id="DASHBOARD-2" transform="translate(-885 -989)"><g id="CHANNEL-HEALTH-INDICATOR" transform="translate(217 272)"><g id="Stats-Copy-2" transform="translate(20 645)"><g id="Box-2" transform="translate(559 1)"><g id="Box"><g id="Graph" transform="translate(84 65)"><g id="Group-12" stroke-width="5"><circle id="Oval-81" stroke="#FFBC3D" cx="45" cy="45" r="36"/><path d="M9 4c19.882 0 36 16.118 36 36S28.882 76 9 76" id="Oval-81" stroke="#767B8B" stroke-linecap="round" transform="rotate(-165 27 40)"/></g><path d="M41.041 35.065c0 .32-.05.61-.15.87-.1.26-.257.487-.472.682-.215.196-.498.345-.848.45-.35.106-.77.158-1.26.158h-5.22l-.615 3.615c.41-.07.805-.122 1.185-.158.38-.035.75-.052 1.11-.052 1.15 0 2.165.175 3.045.525.88.35 1.62.827 2.22 1.432a5.948 5.948 0 0 1 1.358 2.13c.305.816.457 1.688.457 2.618 0 1.17-.207 2.237-.622 3.203a7.444 7.444 0 0 1-1.733 2.497 7.785 7.785 0 0 1-2.647 1.628c-1.025.385-2.148.577-3.368.577-.71 0-1.387-.075-2.032-.225a9.792 9.792 0 0 1-3.383-1.492c-.48-.336-.915-.693-1.305-1.073l1.44-1.92c.15-.2.325-.352.525-.458.2-.105.415-.157.645-.157.3 0 .583.082.848.248l.87.54c.315.195.682.372 1.102.532.42.16.94.24 1.56.24.62 0 1.15-.102 1.59-.308.44-.205.798-.484 1.073-.84.275-.355.475-.77.6-1.244.125-.476.187-.983.187-1.523 0-1.06-.3-1.867-.9-2.422-.6-.556-1.45-.833-2.55-.833a7.8 7.8 0 0 0-2.88.555l-2.88-.78 1.86-10.935h11.19v1.92zm19.23 9c0 1.91-.205 3.565-.615 4.965-.41 1.4-.977 2.56-1.702 3.48-.725.92-1.585 1.605-2.58 2.055a7.752 7.752 0 0 1-3.233.675c-1.16 0-2.232-.225-3.217-.675-.985-.45-1.838-1.135-2.558-2.055-.72-.92-1.282-2.08-1.687-3.48s-.608-3.055-.608-4.965c0-1.91.203-3.565.608-4.965.405-1.4.967-2.56 1.687-3.48.72-.92 1.573-1.602 2.558-2.047.985-.446 2.057-.668 3.217-.668 1.16 0 2.238.222 3.233.667.995.446 1.855 1.128 2.58 2.048.725.92 1.292 2.08 1.702 3.48.41 1.4.615 3.055.615 4.965zm-4.8 0c0-1.51-.095-2.747-.285-3.712-.19-.966-.442-1.723-.757-2.273s-.673-.927-1.073-1.133a2.639 2.639 0 0 0-1.215-.307c-.41 0-.812.102-1.207.307-.395.206-.745.583-1.05 1.133-.305.55-.55 1.307-.735 2.273-.185.965-.278 2.202-.278 3.712 0 1.52.093 2.76.278 3.72.185.96.43 1.717.735 2.273.305.555.655.934 1.05 1.14.395.205.797.307 1.207.307.41 0 .815-.102 1.215-.308.4-.205.758-.584 1.073-1.14.315-.555.567-1.312.757-2.272.19-.96.285-2.2.285-3.72z" id="50" fill-opacity=".77" fill="#4D5368"/><path d="M68.08 44.376a2.154 2.154 0 0 1-.636 1.557 2.078 2.078 0 0 1-1.464.597c-.304 0-.583-.052-.837-.156a1.942 1.942 0 0 1-1.095-1.122 2.37 2.37 0 0 1-.156-.876c0-.332.052-.633.156-.903a1.958 1.958 0 0 1 1.095-1.14c.254-.106.533-.159.837-.159.304 0 .585.053.843.159a1.943 1.943 0 0 1 1.101 1.14c.104.27.156.571.156.903zm-1.428 0c0-.204-.017-.373-.051-.507a.902.902 0 0 0-.141-.321.487.487 0 0 0-.213-.168.728.728 0 0 0-.267-.048.705.705 0 0 0-.264.048.454.454 0 0 0-.204.168.94.94 0 0 0-.132.321 2.234 2.234 0 0 0-.048.507c0 .192.016.352.048.48a.87.87 0 0 0 .132.306c.056.076.124.13.204.162.08.032.168.048.264.048a.728.728 0 0 0 .267-.048.503.503 0 0 0 .213-.162.837.837 0 0 0 .141-.306c.034-.128.051-.288.051-.48zm4.176-1.842c.06-.068.134-.131.222-.189a.66.66 0 0 1 .366-.087h1.356l-6.588 8.478a.664.664 0 0 1-.552.264H64.24l6.588-8.466zm2.28 6.414a2.175 2.175 0 0 1-.636 1.563 2.078 2.078 0 0 1-1.464.597c-.304 0-.583-.052-.837-.156a1.942 1.942 0 0 1-1.095-1.125 2.394 2.394 0 0 1-.156-.879c0-.332.052-.633.156-.903a1.958 1.958 0 0 1 1.095-1.14c.254-.106.533-.159.837-.159.304 0 .585.053.843.159a1.943 1.943 0 0 1 1.101 1.14c.104.27.156.571.156.903zm-1.428 0c0-.2-.017-.367-.051-.501a.902.902 0 0 0-.141-.321.487.487 0 0 0-.213-.168.728.728 0 0 0-.267-.048.705.705 0 0 0-.264.048.454.454 0 0 0-.204.168.94.94 0 0 0-.132.321 2.201 2.201 0 0 0-.048.501c0 .192.016.352.048.48a.87.87 0 0 0 .132.306c.056.076.124.13.204.162.08.032.168.048.264.048a.728.728 0 0 0 .267-.048.503.503 0 0 0 .213-.162.837.837 0 0 0 .141-.306c.034-.128.051-.288.051-.48z" id="Shape" fill-opacity=".77" fill="#4D5368"/></g></g></g></g></g></g></g></svg>