<svg width="78" height="78" viewBox="0 0 78 78" xmlns="http://www.w3.org/2000/svg"><title>Group</title><g id="Symbols" fill="none" fill-rule="evenodd"><g id="Box" transform="translate(-90 -72)"><g transform="translate(90 72)" id="Graph"><g id="Group"><path d="M77.5 39C77.5 17.737 60.263.5 39 .5S.5 17.737.5 39 17.737 77.5 39 77.5 77.5 60.263 77.5 39zm-72 0C5.5 20.498 20.498 5.5 39 5.5c18.502 0 33.5 14.998 33.5 33.5 0 18.502-14.998 33.5-33.5 33.5C20.498 72.5 5.5 57.502 5.5 39z" id="Oval-81" fill="#ECEFF2"/><path d="M1.812 29.035c-5.503 20.539 6.685 41.65 27.223 47.153 20.539 5.503 41.65-6.685 47.153-27.223a2.5 2.5 0 0 0-4.83-1.295C66.57 65.542 48.202 76.147 30.33 71.36 12.458 66.57 1.853 48.2 6.64 30.329 11.43 12.46 29.8 1.854 47.671 6.642a2.5 2.5 0 1 0 1.294-4.83C28.426-3.69 7.315 8.498 1.812 29.036z" id="Oval-81" fill-opacity=".7" fill="#4D5368"/><path d="M36.661 27.145v1.95c0 .55-.06.995-.18 1.335-.12.34-.235.63-.345.87l-7.635 16.17c-.2.43-.495.792-.885 1.087-.39.296-.905.443-1.545.443h-3.39l7.8-15.645c.21-.43.438-.815.683-1.155.245-.34.512-.665.802-.975h-9.615a.976.976 0 0 1-.397-.083 1.074 1.074 0 0 1-.33-.224 1.192 1.192 0 0 1-.233-.33.875.875 0 0 1-.09-.383v-3.06h15.36zm15.78 1.92c0 .32-.05.61-.15.87-.1.26-.257.487-.472.683-.215.195-.498.344-.848.45-.35.105-.77.157-1.26.157h-5.22l-.615 3.615c.41-.07.805-.122 1.185-.158.38-.035.75-.052 1.11-.052 1.15 0 2.165.175 3.045.525.88.35 1.62.827 2.22 1.432a5.948 5.948 0 0 1 1.358 2.13c.305.816.457 1.688.457 2.618 0 1.17-.207 2.237-.622 3.203a7.444 7.444 0 0 1-1.733 2.497 7.785 7.785 0 0 1-2.647 1.628c-1.025.385-2.148.577-3.368.577-.71 0-1.387-.075-2.032-.225a9.792 9.792 0 0 1-3.383-1.492c-.48-.336-.915-.693-1.305-1.073l1.44-1.92c.15-.2.325-.352.525-.458.2-.105.415-.157.645-.157.3 0 .583.082.848.248l.87.54c.315.195.682.372 1.102.532.42.16.94.24 1.56.24.62 0 1.15-.102 1.59-.308.44-.205.798-.484 1.073-.84.275-.355.475-.77.6-1.244.125-.476.187-.983.187-1.523 0-1.06-.3-1.867-.9-2.422-.6-.556-1.45-.833-2.55-.833a7.8 7.8 0 0 0-2.88.555l-2.88-.78 1.86-10.935h11.19v1.92z" id="75" fill-opacity=".77" fill="#4D5368"/><path d="M62.08 38.376a2.154 2.154 0 0 1-.636 1.557 2.078 2.078 0 0 1-1.464.597c-.304 0-.583-.052-.837-.156a1.942 1.942 0 0 1-1.095-1.122 2.37 2.37 0 0 1-.156-.876c0-.332.052-.633.156-.903a1.958 1.958 0 0 1 1.095-1.14c.254-.106.533-.159.837-.159.304 0 .585.053.843.159a1.943 1.943 0 0 1 1.101 1.14c.104.27.156.571.156.903zm-1.428 0c0-.204-.017-.373-.051-.507a.902.902 0 0 0-.141-.321.487.487 0 0 0-.213-.168.728.728 0 0 0-.267-.048.705.705 0 0 0-.264.048.454.454 0 0 0-.204.168.94.94 0 0 0-.132.321 2.234 2.234 0 0 0-.048.507c0 .192.016.352.048.48a.87.87 0 0 0 .132.306c.056.076.124.13.204.162.08.032.168.048.264.048a.728.728 0 0 0 .267-.048.503.503 0 0 0 .213-.162.837.837 0 0 0 .141-.306c.034-.128.051-.288.051-.48zm4.176-1.842c.06-.068.134-.131.222-.189a.66.66 0 0 1 .366-.087h1.356l-6.588 8.478a.664.664 0 0 1-.552.264H58.24l6.588-8.466zm2.28 6.414a2.175 2.175 0 0 1-.636 1.563 2.078 2.078 0 0 1-1.464.597c-.304 0-.583-.052-.837-.156a1.942 1.942 0 0 1-1.095-1.125 2.394 2.394 0 0 1-.156-.879c0-.332.052-.633.156-.903a1.958 1.958 0 0 1 1.095-1.14c.254-.106.533-.159.837-.159.304 0 .585.053.843.159a1.943 1.943 0 0 1 1.101 1.14c.104.27.156.571.156.903zm-1.428 0c0-.2-.017-.367-.051-.501a.902.902 0 0 0-.141-.321.487.487 0 0 0-.213-.168.728.728 0 0 0-.267-.048.705.705 0 0 0-.264.048.454.454 0 0 0-.204.168.94.94 0 0 0-.132.321 2.201 2.201 0 0 0-.048.501c0 .192.016.352.048.48a.87.87 0 0 0 .132.306c.056.076.124.13.204.162.08.032.168.048.264.048a.728.728 0 0 0 .267-.048.503.503 0 0 0 .213-.162.837.837 0 0 0 .141-.306c.034-.128.051-.288.051-.48z" id="Shape" fill-opacity=".77" fill="#4D5368"/></g></g></g></g></svg>