<svg width="78" height="78" viewBox="0 0 78 78" xmlns="http://www.w3.org/2000/svg"><title>Group</title><g id="Symbols" fill="none" fill-rule="evenodd"><g id="Box" transform="translate(-90 -72)"><g transform="translate(90 72)" id="Graph"><g id="Group"><path d="M77.5 39C77.5 17.737 60.263.5 39 .5S.5 17.737.5 39 17.737 77.5 39 77.5 77.5 60.263 77.5 39zm-72 0C5.5 20.498 20.498 5.5 39 5.5c18.502 0 33.5 14.998 33.5 33.5 0 18.502-14.998 33.5-33.5 33.5C20.498 72.5 5.5 57.502 5.5 39z" id="Oval-81" fill="#ECEFF2"/><path d="M1.812 29.035c-5.503 20.539 6.685 41.65 27.223 47.153 20.539 5.503 41.65-6.685 47.153-27.223a2.5 2.5 0 0 0-4.83-1.295C66.57 65.542 48.202 76.147 30.33 71.36 12.458 66.57 1.853 48.2 6.64 30.329 11.43 12.46 29.8 1.854 47.671 6.642a2.5 2.5 0 1 0 1.294-4.83C28.426-3.69 7.315 8.498 1.812 29.036z" id="Oval-81" fill-opacity=".7" fill="#4D5368"/></g></g></g></g></svg>