<svg width="207" height="51" viewBox="0 0 207 51" xmlns="http://www.w3.org/2000/svg" xmlns:xlink="http://www.w3.org/1999/xlink"><title>Page 1</title><defs><path id="path-1" d="M0 .574h206.03V51H0"/><path id="path-3" d="M0 0h206.03v50.426H0"/></defs><g id="Page-1" fill="none" fill-rule="evenodd"><g id="LOGIN-1" transform="translate(-1046 -189)"><g id="Log-In-Panel" transform="translate(1006)"><g id="Page-1" transform="translate(40 189)"><g id="Group-3"><mask id="mask-2" fill="#fff"><use xlink:href="#path-1"/></mask><path d="M12.393 7.287c-2.798 2.416-3.335 6.342-3.514 9.815.082 1.83-.146 3.676.157 5.49.136 3.007 1.107 6.082 3.205 8.302 2.825 2.457 7.055 2.79 10.45 1.424 2.518-1.052 4.533-3.167 5.517-5.708 1.201-4.034 1.065-8.323.624-12.461-.3-2.559-1.145-5.26-3.175-6.979-1.405-1.195-3.213-1.946-5.057-2.041-2.844-.307-6.033.133-8.207 2.158M8.481 2.884C11.704 1.249 15.354.417 18.968.598c2.28-.051 4.59-.038 6.808.57 4.308.922 8.31 3.706 10.257 7.719 1.16 2.291 1.51 4.883 1.672 7.415-.108 6.922.02 13.849-.059 20.771-2.196-.043-4.392-.008-6.589-.019-.23-1.705-.696-3.373-.978-5.073-.838.841-1.608 1.752-2.525 2.511-5.327 3.804-12.618 4.167-18.58 1.703-2.53-1.161-4.764-2.983-6.285-5.325-.566-.298-.526-.993-.79-1.497C.723 27.093.148 24.544 0 21.998c.024-1.634 0-3.267.008-4.899.336-4.102 1.74-8.25 4.585-11.3 1.133-1.166 2.475-2.115 3.888-2.915" id="Fill-1" fill="#FFF" mask="url(#mask-2)"/></g><path d="M87.927 5.034c-2.578.146-5.23 1.136-6.824 3.248-1.825 2.733-2.362 6.14-2.24 9.37.006 1.727-.005 3.452-.008 5.176.304 3.002.998 6.304 3.449 8.316 1.91 1.548 4.457 2.133 6.88 2.068 2.962-.021 6.115-1.176 7.79-3.74 1.459-2.395 1.955-5.27 1.953-8.04.26-1.245.173-2.524.149-3.788-.274-1.25-.073-2.538-.347-3.788-.396-2.89-1.57-5.994-4.238-7.504-1.966-1.106-4.335-1.497-6.564-1.318m-13.81 1.14C77.284 2.605 82.06.778 86.758.588c1.533.025 3.065 0 4.597.006 3.823.274 7.65 1.545 10.626 4.01 1.01 1.049 2.185 1.974 2.939 3.243 2.274 3.326 3.218 7.456 3.074 11.449.152 5.499-2.006 11.255-6.436 14.679-2.527 1.876-5.596 2.874-8.682 3.349.328.024.656.046.987.062 2.283.58 4.563 1.217 6.719 2.193 3.359 1.397 6.539 3.189 9.96 4.444 5.223 2.196 11.39 2.505 16.548-.035.688-.32 1.179-.98 1.946-1.147-.506 1.746-1.594 3.237-2.73 4.626-2.321 2.006-5.22 3.679-8.386 3.524-1.814-.062-3.65.157-5.436-.236-8.191-1.605-14.953-7.412-23.331-8.378-1.35-.027-2.697-.425-4.04-.127-3.367.109-6.623 1.29-9.475 3.045a12.51 12.51 0 0 1-1.605.873c.672-1.651 1.678-3.121 2.876-4.433 1.836-1.841 4.16-3.156 6.638-3.93.393-.148.913-.121 1.155-.53-3.986-.491-7.942-2.223-10.615-5.287-2.462-2.84-3.856-6.491-4.2-10.213-.564-5.437.467-11.42 4.232-15.6" id="Fill-4" fill="#FFF"/><g id="Group-8" transform="translate(14 1)"><mask id="mask-4" fill="#fff"><use xlink:href="#path-3"/></mask><path d="M173.17 4.015c-2.987.057-6.064 1.258-7.791 3.8-.922 1.533-1.51 3.263-1.763 5.03-.235 1.166-.12 2.365-.357 3.53-.038 3.47.035 7.045 1.295 10.33.903 2.246 2.763 4.157 5.103 4.876 1.963.683 4.09.667 6.095.195 2.955-.792 5.534-2.94 6.683-5.794 1.41-3.376.99-7.101 1.06-10.664-.26-2.632-.555-5.422-2.065-7.675-.814-.938-1.671-1.904-2.798-2.47-1.654-.93-3.604-1.147-5.461-1.158m-8.633-2.898c2.194-.895 4.547-1.394 6.91-1.527a413.7 413.7 0 0 0 4.857 0c3.698.198 7.459 1.285 10.379 3.628 1 .984 2.112 1.895 2.844 3.112 1.649 2.286 2.275 5.125 2.503 7.885-.022 7.285.016 14.57-.02 21.855-2.057-.051-4.115.014-6.173-.027-.426.076-.423-.47-.472-.734-.113-.873-.406-1.711-.526-2.584a17.318 17.318 0 0 1-.352-1.78c-1.483 2.029-3.61 3.526-5.935 4.437-3.096 1.247-6.532 1.65-9.834 1.196-3.427-.315-6.767-1.687-9.332-3.997-2.785-2.671-4.411-6.412-4.86-10.216-.563-4.818-.11-9.896 2.116-14.272.654-1.193 1.497-2.264 2.362-3.311.759-.686 1.578-1.307 2.312-2.022a77.948 77.948 0 0 1 3.22-1.643" id="Fill-6" fill="#FFF" mask="url(#mask-4)"/></g><path d="M49.73 5.855C52.89 2.656 57.436 1.24 61.825.918c.995.095 1.963-.217 2.953-.187 1.686.273 3.421.13 5.081.593a44.3 44.3 0 0 0-2.14 3.764c-2.323.16-4.696-.23-6.97.41-2.102.43-4.016 1.791-4.986 3.722-1.502 2.651-1.416 5.775-1.692 8.706.024 6.374-.008 12.748.016 19.122-2.847.02-5.69-.016-8.538.02-.097-6.38 0-12.763-.049-19.142.18-4.295 1.172-8.864 4.23-12.07" id="Fill-9" fill="#FFF"/><path d="M115.66 1.08c2.913-.002 5.822-.002 8.734 0 .013 11.987-.025 23.97.018 35.958-2.92.033-5.837.005-8.757.014.008-11.99-.002-23.982.005-35.971" id="Fill-11" fill="#FFF"/><path d="M130.765 1.103c3.028-.057 6.062-.004 9.094-.03 3.123 8.107 6.395 16.157 9.448 24.287 1.662-3.323 3.034-6.788 4.577-10.17 2.137-4.69 4.091-9.464 6.301-14.123 2.278.03 4.558-.002 6.835.02-.558 2.016-1.789 3.748-2.554 5.68-3.107 6.426-6.176 12.87-9.275 19.298-1.678 3.684-3.576 7.27-5.19 10.983-1.314.006-2.627.014-3.939-.005-5.105-11.976-10.21-23.953-15.297-35.94" id="Fill-13" fill="#FFF"/></g></g></g></g></svg>