<svg width="104" height="26" viewBox="0 0 104 26" xmlns="http://www.w3.org/2000/svg"><title>Arquiva logo</title><g id="Page-1" fill="none" fill-rule="evenodd"><g id="DASHBOARD-2" transform="translate(-44 -3751)" fill="#FF004C"><g id="Footer" transform="translate(0 3701)"><g transform="translate(44 24)" id="Group-11"><g id="Arquiva-logo" transform="translate(0 26)"><path d="M94.037 2.557c-1.5.029-3.047.64-3.914 1.937a6.94 6.94 0 0 0-.886 2.565c-.118.594-.06 1.205-.18 1.8-.019 1.768.018 3.59.651 5.266.454 1.144 1.388 2.118 2.564 2.485.986.348 2.055.34 3.062.1 1.485-.404 2.78-1.499 3.358-2.955.708-1.72.497-3.62.533-5.436-.131-1.342-.28-2.764-1.038-3.913-.41-.478-.84-.97-1.406-1.259-.83-.474-1.81-.585-2.744-.59M89.7 1.079a10.686 10.686 0 0 1 3.472-.778c.814.004 1.627.005 2.44 0 1.858.1 3.747.655 5.215 1.85.502.5 1.06.965 1.428 1.586.829 1.165 1.143 2.613 1.258 4.02-.011 3.714.008 7.427-.01 11.141-1.034-.026-2.068.008-3.102-.013-.214.038-.212-.24-.237-.375-.056-.445-.204-.872-.264-1.317a8.944 8.944 0 0 1-.177-.907c-.745 1.034-1.813 1.797-2.982 2.262a9.618 9.618 0 0 1-4.94.61c-1.722-.161-3.4-.86-4.689-2.038-1.4-1.362-2.216-3.27-2.441-5.208-.283-2.457-.056-5.046 1.062-7.276.33-.609.753-1.155 1.187-1.688.382-.35.793-.667 1.162-1.031a38.95 38.95 0 0 1 1.618-.838" id="Fill-6"/><path d="M65.698.562c1.522-.029 3.046-.001 4.57-.015 1.568 4.133 3.212 8.237 4.746 12.382.835-1.695 1.525-3.461 2.3-5.185 1.073-2.391 2.055-4.825 3.165-7.2 1.145.016 2.29-.001 3.434.01-.28 1.028-.898 1.911-1.283 2.896-1.56 3.276-3.103 6.56-4.66 9.838-.843 1.878-1.796 3.706-2.607 5.6-.66.003-1.32.007-1.98-.003C70.82 12.78 68.254 6.673 65.699.562" id="Fill-13"/><path d="M58.11.551h4.387c.007 6.11-.012 12.22.01 18.331-1.467.017-2.933.003-4.4.007.004-6.112-.001-12.226.003-18.338" id="Fill-11"/><path d="M44.176 2.566c-1.295.075-2.628.58-3.429 1.656-.917 1.393-1.186 3.13-1.125 4.777.003.88-.003 1.76-.004 2.639.153 1.53.501 3.214 1.733 4.24.96.788 2.239 1.087 3.457 1.054 1.487-.011 3.072-.6 3.914-1.907.732-1.221.981-2.686.98-4.099.131-.635.087-1.287.075-1.931-.137-.637-.036-1.294-.174-1.931-.2-1.474-.789-3.056-2.13-3.826-.987-.564-2.177-.763-3.297-.672m-6.938.582c1.59-1.82 3.99-2.752 6.35-2.849.77.013 1.54 0 2.31.003 1.92.14 3.844.788 5.338 2.045.508.534 1.098 1.006 1.477 1.653 1.142 1.695 1.617 3.801 1.544 5.837.077 2.803-1.008 5.737-3.233 7.483-1.27.956-2.812 1.465-4.362 1.707.165.013.33.024.496.032 1.147.296 2.292.62 3.375 1.118 1.688.712 3.286 1.626 5.005 2.266 2.624 1.12 5.722 1.277 8.313-.018.346-.163.593-.5.978-.585-.254.89-.8 1.65-1.372 2.358-1.166 1.023-2.622 1.876-4.213 1.797-.911-.032-1.833.08-2.73-.12-4.116-.819-7.514-3.78-11.723-4.272-.678-.013-1.355-.216-2.029-.064-1.692.055-3.328.658-4.76 1.552-.26.166-.527.32-.807.445.337-.842.843-1.591 1.445-2.26.922-.938 2.09-1.609 3.335-2.003.197-.076.458-.062.58-.27-2.003-.25-3.99-1.134-5.333-2.696-1.237-1.447-1.937-3.31-2.11-5.207-.284-2.771.234-5.822 2.126-7.952" id="Fill-4"/><path d="M24.985 2.985c1.587-1.63 3.872-2.353 6.077-2.517.5.049.986-.11 1.484-.095.847.139 1.718.066 2.552.302-.385.622-.75 1.26-1.075 1.92-1.167.08-2.36-.119-3.502.208-1.056.22-2.017.913-2.505 1.898-.754 1.351-.711 2.944-.85 4.438.012 3.25-.004 6.499.008 9.748-1.43.01-2.859-.008-4.29.01-.048-3.252 0-6.506-.024-9.758.09-2.19.589-4.519 2.125-6.154" id="Fill-9"/><path d="M6.227 3.715C4.82 4.947 4.55 6.948 4.46 8.719c.041.933-.073 1.874.079 2.798.068 1.533.556 3.101 1.61 4.233 1.42 1.252 3.545 1.422 5.25.726 1.266-.536 2.278-1.615 2.772-2.91.604-2.057.535-4.243.314-6.353-.151-1.304-.575-2.681-1.595-3.558a4.283 4.283 0 0 0-2.541-1.04c-1.429-.157-3.031.068-4.123 1.1M4.26 1.47C5.881.637 7.714.213 9.53.305c1.145-.026 2.306-.02 3.42.29 2.165.47 4.175 1.89 5.154 3.936.582 1.168.758 2.489.84 3.78-.055 3.529.01 7.06-.03 10.589-1.103-.022-2.207-.004-3.31-.01-.116-.869-.35-1.72-.492-2.586-.42.429-.808.893-1.268 1.28-2.677 1.94-6.34 2.125-9.335.868-1.271-.592-2.394-1.52-3.158-2.714-.284-.152-.264-.507-.397-.764-.59-1.162-.879-2.461-.954-3.76.012-.832 0-1.665.004-2.497.169-2.091.874-4.206 2.304-5.76.569-.595 1.243-1.079 1.953-1.487" id="Fill-1"/></g></g></g></g></g></svg>